<svg width="419" height="502" viewBox="0 0 419 502" fill="none" xmlns="http://www.w3.org/2000/svg">
<path d="M338.964 470.743V462.961H333.415C327.829 459.43 318.559 457.122 308.058 457.122C297.556 457.122 288.286 459.43 282.7 462.961H277.151V470.743C277.151 478.272 290.988 484.373 308.058 484.373C325.127 484.373 338.964 478.272 338.964 470.743Z" fill="#3157A3"/>
<path d="M308.064 477.463C325.133 477.463 338.97 471.091 338.97 463.23C338.97 455.369 325.133 448.997 308.064 448.997C290.995 448.997 277.158 455.369 277.158 463.23C277.158 471.091 290.995 477.463 308.064 477.463Z" fill="#4378BC"/>
<path d="M308.085 469.608C317.989 469.608 326.379 467.205 329.204 463.9H330.224V461.439C330.224 456.925 320.312 453.271 308.085 453.271C295.858 453.271 285.947 456.925 285.947 461.439V463.9H286.967C289.792 467.213 298.182 469.608 308.085 469.608Z" fill="#3157A3"/>
<path d="M308.085 471.669C320.312 471.669 330.224 468.047 330.224 463.58C330.224 459.113 320.312 455.491 308.085 455.491C295.859 455.491 285.947 459.113 285.947 463.58C285.947 468.047 295.859 471.669 308.085 471.669Z" fill="#5397E0"/>
<path d="M298.904 462.611H315.428V464.053H298.904V462.611ZM300.841 463.157C300.841 462.196 300.98 461.279 301.256 460.405C301.533 459.532 301.89 458.833 302.32 458.309L304.097 459.102C303.711 459.597 303.39 460.202 303.128 460.93C302.873 461.658 302.742 462.4 302.742 463.165C302.742 463.805 302.815 464.33 302.953 464.73C303.092 465.13 303.281 465.422 303.521 465.611C303.762 465.8 304.031 465.895 304.337 465.895C304.716 465.895 305.014 465.757 305.24 465.487C305.466 465.218 305.648 464.868 305.786 464.439C305.917 464.009 306.041 463.536 306.157 463.012C306.267 462.488 306.405 461.971 306.573 461.446C306.733 460.922 306.944 460.449 307.199 460.012C307.454 459.575 307.789 459.233 308.211 458.964C308.633 458.694 309.172 458.571 309.828 458.571C310.483 458.571 311.109 458.753 311.663 459.109C312.216 459.466 312.668 460.012 312.996 460.748C313.331 461.476 313.498 462.408 313.498 463.536C313.498 464.271 313.403 465.007 313.214 465.735C313.025 466.463 312.755 467.096 312.406 467.635L310.629 466.914C310.957 466.361 311.197 465.793 311.357 465.211C311.517 464.628 311.597 464.06 311.597 463.521C311.597 462.903 311.525 462.393 311.372 461.993C311.219 461.592 311.015 461.301 310.767 461.126C310.512 460.944 310.236 460.857 309.93 460.857C309.551 460.857 309.252 460.988 309.027 461.25C308.801 461.512 308.619 461.862 308.488 462.284C308.357 462.713 308.233 463.187 308.116 463.718C308 464.242 307.862 464.766 307.701 465.283C307.541 465.8 307.337 466.274 307.09 466.71C306.835 467.147 306.507 467.489 306.085 467.759C305.662 468.028 305.138 468.152 304.497 468.152C303.856 468.152 303.237 467.97 302.677 467.613C302.123 467.256 301.672 466.71 301.344 465.968C301.009 465.232 300.841 464.3 300.841 463.172V463.157Z" fill="#B6DCFF"/>
<path d="M338.964 460.768V452.985H333.415C327.829 449.454 318.559 447.146 308.058 447.146C297.556 447.146 288.286 449.454 282.7 452.985H277.151V460.768C277.151 468.296 290.988 474.398 308.058 474.398C325.127 474.398 338.964 468.296 338.964 460.768Z" fill="#3157A3"/>
<path d="M308.064 467.496C325.133 467.496 338.97 461.123 338.97 453.262C338.97 445.401 325.133 439.029 308.064 439.029C290.995 439.029 277.158 445.401 277.158 453.262C277.158 461.123 290.995 467.496 308.064 467.496Z" fill="#4378BC"/>
<path d="M308.085 459.632C317.989 459.632 326.379 457.23 329.204 453.924H330.224V451.464C330.224 446.95 320.312 443.295 308.085 443.295C295.858 443.295 285.947 446.95 285.947 451.464V453.924H286.967C289.792 457.237 298.182 459.632 308.085 459.632Z" fill="#3157A3"/>
<path d="M308.085 461.693C320.312 461.693 330.224 458.072 330.224 453.604C330.224 449.137 320.312 445.516 308.085 445.516C295.859 445.516 285.947 449.137 285.947 453.604C285.947 458.072 295.859 461.693 308.085 461.693Z" fill="#5397E0"/>
<path d="M298.904 452.636H315.428V454.078H298.904V452.636ZM300.841 453.182C300.841 452.221 300.98 451.304 301.256 450.43C301.533 449.557 301.89 448.858 302.32 448.333L304.097 449.127C303.711 449.622 303.39 450.226 303.128 450.955C302.873 451.683 302.742 452.425 302.742 453.19C302.742 453.83 302.815 454.354 302.953 454.755C303.092 455.155 303.281 455.447 303.521 455.636C303.762 455.825 304.031 455.92 304.337 455.92C304.716 455.92 305.014 455.781 305.24 455.519C305.466 455.25 305.648 454.901 305.786 454.471C305.917 454.041 306.041 453.568 306.157 453.044C306.267 452.527 306.405 452.003 306.573 451.479C306.733 450.962 306.944 450.481 307.199 450.044C307.454 449.608 307.789 449.265 308.211 448.996C308.633 448.734 309.172 448.603 309.828 448.603C310.483 448.603 311.109 448.778 311.663 449.142C312.216 449.498 312.668 450.044 312.996 450.772C313.331 451.508 313.498 452.432 313.498 453.561C313.498 454.296 313.403 455.032 313.214 455.76C313.025 456.488 312.755 457.121 312.406 457.66L310.629 456.939C310.957 456.386 311.197 455.818 311.357 455.235C311.517 454.653 311.597 454.085 311.597 453.546C311.597 452.928 311.525 452.418 311.372 452.017C311.219 451.617 311.015 451.326 310.767 451.151C310.512 450.969 310.236 450.874 309.93 450.874C309.551 450.874 309.252 451.005 309.027 451.268C308.801 451.53 308.619 451.879 308.488 452.301C308.357 452.731 308.233 453.204 308.116 453.736C308 454.26 307.862 454.784 307.701 455.301C307.541 455.818 307.337 456.291 307.09 456.728C306.835 457.165 306.507 457.507 306.085 457.776C305.67 458.038 305.138 458.169 304.497 458.169C303.856 458.169 303.237 457.995 302.677 457.631C302.123 457.274 301.672 456.728 301.344 455.985C301.009 455.25 300.841 454.318 300.841 453.19V453.182Z" fill="#B6DCFF"/>
<path d="M338.964 449.987V442.204H333.415C327.829 438.673 318.559 436.365 308.058 436.365C297.556 436.365 288.286 438.673 282.7 442.204H277.151V449.987C277.151 457.515 290.988 463.616 308.058 463.616C325.127 463.616 338.964 457.515 338.964 449.987Z" fill="#3157A3"/>
<path d="M308.064 456.707C325.133 456.707 338.97 450.334 338.97 442.473C338.97 434.612 325.133 428.24 308.064 428.24C290.995 428.24 277.158 434.612 277.158 442.473C277.158 450.334 290.995 456.707 308.064 456.707Z" fill="#4378BC"/>
<path d="M308.085 448.852C317.989 448.852 326.379 446.449 329.204 443.144H330.224V440.683C330.224 436.169 320.312 432.514 308.085 432.514C295.858 432.514 285.947 436.169 285.947 440.683V443.144H286.967C289.792 446.456 298.182 448.852 308.085 448.852Z" fill="#3157A3"/>
<path d="M308.085 450.912C320.312 450.912 330.224 447.29 330.224 442.823C330.224 438.356 320.312 434.734 308.085 434.734C295.859 434.734 285.947 438.356 285.947 442.823C285.947 447.29 295.859 450.912 308.085 450.912Z" fill="#5397E0"/>
<path d="M298.904 441.855H315.428V443.296H298.904V441.855ZM300.841 442.401C300.841 441.44 300.98 440.522 301.256 439.649C301.533 438.775 301.89 438.076 302.32 437.552L304.097 438.345C303.711 438.84 303.39 439.445 303.128 440.173C302.873 440.901 302.742 441.643 302.742 442.408C302.742 443.049 302.815 443.573 302.953 443.973C303.092 444.374 303.281 444.665 303.521 444.854C303.762 445.043 304.031 445.138 304.337 445.138C304.716 445.138 305.014 445 305.24 444.73C305.466 444.461 305.648 444.112 305.786 443.682C305.917 443.252 306.041 442.779 306.157 442.255C306.267 441.731 306.405 441.214 306.573 440.69C306.733 440.165 306.944 439.692 307.199 439.255C307.454 438.819 307.789 438.476 308.211 438.207C308.633 437.938 309.172 437.814 309.828 437.814C310.483 437.814 311.109 437.996 311.663 438.353C312.216 438.709 312.668 439.255 312.996 439.991C313.331 440.719 313.498 441.651 313.498 442.779C313.498 443.514 313.403 444.25 313.214 444.978C313.025 445.706 312.755 446.339 312.406 446.878L310.629 446.157C310.957 445.604 311.197 445.036 311.357 444.454C311.517 443.871 311.597 443.303 311.597 442.765C311.597 442.146 311.525 441.636 311.372 441.236C311.219 440.835 311.015 440.544 310.767 440.369C310.512 440.187 310.236 440.1 309.93 440.1C309.551 440.1 309.252 440.231 309.027 440.493C308.801 440.755 308.619 441.105 308.488 441.527C308.357 441.956 308.233 442.43 308.116 442.961C308 443.485 307.862 444.01 307.701 444.527C307.541 445.043 307.337 445.517 307.09 445.954C306.835 446.39 306.507 446.733 306.085 447.002C305.662 447.271 305.138 447.395 304.497 447.395C303.856 447.395 303.237 447.213 302.677 446.856C302.123 446.5 301.672 445.953 301.344 445.211C301.009 444.476 300.841 443.544 300.841 442.415V442.401Z" fill="#B6DCFF"/>
<path d="M338.964 439.618V431.836H333.415C327.829 428.305 318.559 425.997 308.058 425.997C297.556 425.997 288.286 428.305 282.7 431.836H277.151V439.618C277.151 447.147 290.988 453.248 308.058 453.248C325.127 453.248 338.964 447.147 338.964 439.618Z" fill="#3157A3"/>
<path d="M308.064 446.346C325.133 446.346 338.97 439.973 338.97 432.112C338.97 424.251 325.133 417.879 308.064 417.879C290.995 417.879 277.158 424.251 277.158 432.112C277.158 439.973 290.995 446.346 308.064 446.346Z" fill="#4378BC"/>
<path d="M308.085 438.483C317.989 438.483 326.379 436.08 329.204 432.775H330.224V430.314C330.224 425.8 320.312 422.145 308.085 422.145C295.858 422.145 285.947 425.8 285.947 430.314V432.775H286.967C289.792 436.087 298.182 438.483 308.085 438.483Z" fill="#3157A3"/>
<path d="M308.085 440.543C320.312 440.543 330.224 436.921 330.224 432.454C330.224 427.987 320.312 424.365 308.085 424.365C295.859 424.365 285.947 427.987 285.947 432.454C285.947 436.921 295.859 440.543 308.085 440.543Z" fill="#5397E0"/>
<path d="M298.904 431.486H315.428V432.927H298.904V431.486ZM300.841 432.032C300.841 431.071 300.98 430.154 301.256 429.28C301.533 428.406 301.89 427.707 302.32 427.183L304.097 427.977C303.711 428.472 303.39 429.076 303.128 429.804C302.873 430.532 302.742 431.275 302.742 432.039C302.742 432.68 302.815 433.204 302.953 433.605C303.092 434.005 303.281 434.296 303.521 434.485C303.762 434.675 304.031 434.769 304.337 434.769C304.716 434.769 305.014 434.631 305.24 434.362C305.466 434.092 305.648 433.743 305.786 433.313C305.917 432.884 306.041 432.411 306.157 431.886C306.267 431.362 306.405 430.845 306.573 430.321C306.733 429.797 306.944 429.324 307.199 428.887C307.454 428.45 307.789 428.108 308.211 427.838C308.633 427.569 309.172 427.445 309.828 427.445C310.483 427.445 311.109 427.627 311.663 427.984C312.216 428.341 312.668 428.887 312.996 429.622C313.331 430.35 313.498 431.282 313.498 432.411C313.498 433.146 313.403 433.881 313.214 434.609C313.025 435.337 312.755 435.971 312.406 436.509L310.629 435.789C310.957 435.235 311.197 434.667 311.357 434.085C311.517 433.503 311.597 432.935 311.597 432.396C311.597 431.777 311.525 431.267 311.372 430.867C311.219 430.467 311.015 430.175 310.767 430.001C310.512 429.819 310.236 429.731 309.93 429.731C309.551 429.731 309.252 429.862 309.027 430.124C308.801 430.387 308.619 430.736 308.488 431.158C308.357 431.588 308.233 432.061 308.116 432.593C308 433.117 307.862 433.641 307.701 434.158C307.541 434.675 307.337 435.148 307.09 435.585C306.835 436.022 306.507 436.364 306.085 436.633C305.662 436.903 305.138 437.026 304.497 437.026C303.856 437.026 303.237 436.844 302.677 436.488C302.123 436.131 301.672 435.585 301.344 434.842C301.009 434.107 300.841 433.175 300.841 432.046V432.032Z" fill="#B6DCFF"/>
<path d="M338.964 428.836V421.053H333.415C327.829 417.522 318.559 415.214 308.058 415.214C297.556 415.214 288.286 417.522 282.7 421.053H277.151V428.836C277.151 436.364 290.988 442.465 308.058 442.465C325.127 442.465 338.964 436.364 338.964 428.836Z" fill="#3157A3"/>
<path d="M308.064 435.563C325.133 435.563 338.97 429.191 338.97 421.33C338.97 413.469 325.133 407.097 308.064 407.097C290.995 407.097 277.158 413.469 277.158 421.33C277.158 429.191 290.995 435.563 308.064 435.563Z" fill="#4378BC"/>
<path d="M308.085 427.701C317.989 427.701 326.379 425.298 329.204 421.993H330.224V419.532C330.224 415.018 320.312 411.363 308.085 411.363C295.858 411.363 285.947 415.018 285.947 419.532V421.993H286.967C289.792 425.305 298.182 427.701 308.085 427.701Z" fill="#3157A3"/>
<path d="M308.085 429.761C320.312 429.761 330.224 426.139 330.224 421.672C330.224 417.205 320.312 413.583 308.085 413.583C295.859 413.583 285.947 417.205 285.947 421.672C285.947 426.139 295.859 429.761 308.085 429.761Z" fill="#5397E0"/>
<path d="M298.904 420.704H315.428V422.146H298.904V420.704ZM300.841 421.25C300.841 420.289 300.98 419.372 301.256 418.498C301.533 417.624 301.89 416.926 302.32 416.401L304.097 417.195C303.711 417.69 303.39 418.294 303.128 419.022C302.873 419.75 302.742 420.493 302.742 421.257C302.742 421.898 302.815 422.422 302.953 422.823C303.092 423.223 303.281 423.514 303.521 423.704C303.762 423.893 304.031 423.988 304.337 423.988C304.716 423.988 305.014 423.849 305.24 423.58C305.466 423.311 305.648 422.961 305.786 422.532C305.917 422.102 306.041 421.629 306.157 421.105C306.267 420.58 306.405 420.063 306.573 419.539C306.733 419.015 306.944 418.542 307.199 418.105C307.454 417.668 307.789 417.326 308.211 417.057C308.633 416.787 309.172 416.663 309.828 416.663C310.483 416.663 311.109 416.846 311.663 417.202C312.216 417.559 312.668 418.105 312.996 418.84C313.331 419.568 313.498 420.5 313.498 421.629C313.498 422.364 313.403 423.099 313.214 423.828C313.025 424.556 312.755 425.189 312.406 425.728L310.629 425.007C310.957 424.454 311.197 423.886 311.357 423.303C311.517 422.721 311.597 422.153 311.597 421.614C311.597 420.995 311.525 420.486 311.372 420.085C311.219 419.685 311.015 419.394 310.767 419.219C310.512 419.037 310.236 418.95 309.93 418.95C309.551 418.95 309.252 419.081 309.027 419.343C308.801 419.605 308.619 419.954 308.488 420.377C308.357 420.806 308.233 421.279 308.116 421.811C308 422.335 307.862 422.859 307.701 423.376C307.541 423.893 307.337 424.366 307.09 424.803C306.835 425.24 306.507 425.582 306.085 425.851C305.662 426.121 305.138 426.245 304.497 426.245C303.856 426.245 303.237 426.063 302.677 425.706C302.123 425.349 301.672 424.803 301.344 424.06C301.009 423.325 300.841 422.393 300.841 421.265V421.25Z" fill="#B6DCFF"/>
<path d="M267.611 470.743V462.961H262.062C256.476 459.43 247.206 457.122 236.705 457.122C226.204 457.122 216.933 459.43 211.348 462.961H205.799V470.743C205.799 478.272 219.635 484.373 236.705 484.373C253.775 484.373 267.611 478.272 267.611 470.743Z" fill="#3157A3"/>
<path d="M236.705 477.463C253.774 477.463 267.611 471.091 267.611 463.23C267.611 455.369 253.774 448.997 236.705 448.997C219.636 448.997 205.799 455.369 205.799 463.23C205.799 471.091 219.636 477.463 236.705 477.463Z" fill="#4378BC"/>
<path d="M236.734 469.608C246.638 469.608 255.027 467.205 257.853 463.9H258.872V461.439C258.872 456.925 248.961 453.271 236.734 453.271C224.507 453.271 214.596 456.925 214.596 461.439V463.9H215.615C218.441 467.213 226.83 469.608 236.734 469.608Z" fill="#3157A3"/>
<path d="M236.734 471.669C248.961 471.669 258.872 468.047 258.872 463.58C258.872 459.113 248.961 455.491 236.734 455.491C224.507 455.491 214.596 459.113 214.596 463.58C214.596 468.047 224.507 471.669 236.734 471.669Z" fill="#5397E0"/>
<path d="M227.543 462.611H244.067V464.053H227.543V462.611ZM229.48 463.157C229.48 462.196 229.618 461.279 229.895 460.405C230.172 459.532 230.529 458.833 230.958 458.309L232.735 459.102C232.349 459.597 232.029 460.202 231.767 460.93C231.512 461.658 231.381 462.4 231.381 463.165C231.381 463.805 231.454 464.33 231.592 464.73C231.73 465.13 231.92 465.422 232.16 465.611C232.4 465.8 232.67 465.895 232.976 465.895C233.354 465.895 233.653 465.757 233.879 465.487C234.104 465.218 234.286 464.868 234.425 464.439C234.556 464.009 234.68 463.536 234.796 463.012C234.905 462.488 235.044 461.971 235.211 461.446C235.371 460.922 235.583 460.449 235.838 460.012C236.092 459.575 236.427 459.233 236.85 458.964C237.272 458.694 237.811 458.571 238.466 458.571C239.122 458.571 239.748 458.753 240.302 459.109C240.855 459.466 241.307 460.012 241.634 460.748C241.969 461.476 242.137 462.408 242.137 463.536C242.137 464.271 242.042 465.007 241.853 465.735C241.663 466.463 241.394 467.096 241.044 467.635L239.267 466.914C239.595 466.361 239.835 465.793 239.996 465.211C240.156 464.628 240.236 464.06 240.236 463.521C240.236 462.903 240.163 462.393 240.01 461.993C239.857 461.592 239.653 461.301 239.406 461.126C239.151 460.944 238.874 460.857 238.568 460.857C238.19 460.857 237.891 460.988 237.665 461.25C237.44 461.512 237.258 461.862 237.126 462.284C236.995 462.713 236.872 463.187 236.755 463.718C236.639 464.242 236.5 464.766 236.34 465.283C236.18 465.8 235.976 466.274 235.728 466.71C235.473 467.147 235.146 467.489 234.723 467.759C234.301 468.028 233.777 468.152 233.136 468.152C232.495 468.152 231.876 467.97 231.315 467.613C230.762 467.256 230.31 466.71 229.983 465.968C229.648 465.232 229.48 464.3 229.48 463.172V463.157Z" fill="#B6DCFF"/>
<path d="M267.611 460.769V452.986H262.062C256.476 449.455 247.206 447.147 236.705 447.147C226.204 447.147 216.933 449.455 211.348 452.986H205.799V460.769C205.799 468.297 219.635 474.398 236.705 474.398C253.775 474.398 267.611 468.297 267.611 460.769Z" fill="#3157A3"/>
<path d="M236.705 467.496C253.774 467.496 267.611 461.124 267.611 453.263C267.611 445.402 253.774 439.029 236.705 439.029C219.636 439.029 205.799 445.402 205.799 453.263C205.799 461.124 219.636 467.496 236.705 467.496Z" fill="#4378BC"/>
<path d="M236.734 459.633C246.638 459.633 255.027 457.23 257.853 453.925H258.872V451.464C258.872 446.95 248.961 443.295 236.734 443.295C224.507 443.295 214.596 446.95 214.596 451.464V453.925H215.615C218.441 457.238 226.83 459.633 236.734 459.633Z" fill="#3157A3"/>
<path d="M236.734 461.693C248.961 461.693 258.872 458.072 258.872 453.604C258.872 449.137 248.961 445.516 236.734 445.516C224.507 445.516 214.596 449.137 214.596 453.604C214.596 458.072 224.507 461.693 236.734 461.693Z" fill="#5397E0"/>
<path d="M227.543 452.636H244.067V454.078H227.543V452.636ZM229.48 453.182C229.48 452.221 229.618 451.304 229.895 450.43C230.172 449.557 230.529 448.858 230.958 448.333L232.735 449.127C232.349 449.622 232.029 450.226 231.767 450.955C231.512 451.683 231.381 452.425 231.381 453.19C231.381 453.83 231.454 454.354 231.592 454.755C231.73 455.155 231.92 455.447 232.16 455.636C232.4 455.825 232.67 455.92 232.976 455.92C233.354 455.92 233.653 455.781 233.879 455.519C234.104 455.25 234.286 454.901 234.425 454.471C234.556 454.041 234.68 453.568 234.796 453.044C234.905 452.527 235.044 452.003 235.211 451.479C235.371 450.962 235.583 450.481 235.838 450.044C236.092 449.608 236.427 449.265 236.85 448.996C237.272 448.734 237.811 448.603 238.466 448.603C239.122 448.603 239.748 448.778 240.302 449.142C240.855 449.498 241.307 450.044 241.634 450.772C241.969 451.508 242.137 452.432 242.137 453.561C242.137 454.296 242.042 455.032 241.853 455.76C241.663 456.488 241.394 457.121 241.044 457.66L239.267 456.939C239.595 456.386 239.835 455.818 239.996 455.235C240.156 454.653 240.236 454.085 240.236 453.546C240.236 452.928 240.163 452.418 240.01 452.017C239.857 451.617 239.653 451.326 239.406 451.151C239.151 450.969 238.874 450.874 238.568 450.874C238.19 450.874 237.891 451.005 237.665 451.268C237.44 451.53 237.258 451.879 237.126 452.301C236.995 452.731 236.872 453.204 236.755 453.736C236.639 454.26 236.5 454.784 236.34 455.301C236.18 455.818 235.976 456.291 235.728 456.728C235.473 457.165 235.146 457.507 234.723 457.776C234.308 458.038 233.777 458.169 233.136 458.169C232.495 458.169 231.876 457.995 231.315 457.631C230.762 457.274 230.31 456.728 229.983 455.985C229.648 455.25 229.48 454.318 229.48 453.19V453.182Z" fill="#B6DCFF"/>
<path d="M369.87 486.003V478.22H364.321C358.735 474.689 349.465 472.381 338.964 472.381C328.463 472.381 319.192 474.689 313.607 478.22H308.058V486.003C308.058 493.531 321.894 499.632 338.964 499.632C356.033 499.632 369.87 493.531 369.87 486.003Z" fill="#3157A3"/>
<path d="M338.964 492.73C356.033 492.73 369.87 486.357 369.87 478.497C369.87 470.636 356.033 464.263 338.964 464.263C321.895 464.263 308.058 470.636 308.058 478.497C308.058 486.357 321.895 492.73 338.964 492.73Z" fill="#4378BC"/>
<path d="M338.993 484.875C348.897 484.875 357.286 482.473 360.111 479.167H361.131V476.706C361.131 472.192 351.22 468.538 338.993 468.538C326.766 468.538 316.854 472.192 316.854 476.706V479.167H317.874C320.7 482.48 329.089 484.875 338.993 484.875Z" fill="#3157A3"/>
<path d="M338.993 486.935C351.219 486.935 361.131 483.314 361.131 478.846C361.131 474.379 351.219 470.758 338.993 470.758C326.766 470.758 316.854 474.379 316.854 478.846C316.854 483.314 326.766 486.935 338.993 486.935Z" fill="#5397E0"/>
<path d="M329.802 477.871H346.325V479.312H329.802V477.871ZM331.739 478.417C331.739 477.456 331.877 476.538 332.154 475.665C332.431 474.791 332.78 474.092 333.217 473.568L334.994 474.361C334.608 474.856 334.288 475.461 334.026 476.189C333.763 476.917 333.64 477.66 333.64 478.424C333.64 479.065 333.712 479.589 333.851 479.989C333.989 480.39 334.178 480.681 334.419 480.87C334.659 481.06 334.929 481.154 335.234 481.154C335.606 481.154 335.912 481.016 336.137 480.746C336.363 480.477 336.545 480.128 336.684 479.698C336.822 479.269 336.938 478.795 337.055 478.271C337.164 477.747 337.303 477.23 337.47 476.706C337.638 476.182 337.841 475.708 338.096 475.271C338.351 474.835 338.686 474.492 339.109 474.223C339.531 473.961 340.07 473.83 340.725 473.83C341.381 473.83 342.007 474.012 342.56 474.369C343.114 474.725 343.565 475.271 343.893 476.007C344.228 476.735 344.396 477.667 344.396 478.795C344.396 479.531 344.301 480.266 344.111 480.994C343.922 481.722 343.653 482.355 343.303 482.894L341.526 482.173C341.854 481.62 342.094 481.052 342.255 480.47C342.415 479.887 342.495 479.319 342.495 478.781C342.495 478.162 342.415 477.652 342.269 477.252C342.116 476.851 341.912 476.56 341.665 476.378C341.417 476.196 341.133 476.109 340.827 476.109C340.449 476.109 340.15 476.24 339.924 476.502C339.698 476.764 339.516 477.113 339.385 477.536C339.254 477.958 339.13 478.439 339.014 478.97C338.897 479.494 338.759 480.018 338.599 480.535C338.439 481.052 338.235 481.525 337.98 481.962C337.725 482.399 337.397 482.741 336.975 483.011C336.56 483.273 336.028 483.404 335.38 483.404C334.732 483.404 334.12 483.222 333.559 482.865C333.006 482.508 332.554 481.962 332.227 481.22C331.892 480.484 331.724 479.552 331.724 478.424L331.739 478.417Z" fill="#B6DCFF"/>
<path d="M104.887 482.901V475.118H99.3383C93.7528 471.587 84.4824 469.279 73.9813 469.279C63.4802 469.279 54.2099 471.587 48.6243 475.118H43.0752V482.901C43.0752 490.429 56.9116 496.53 73.9813 496.53C91.0511 496.53 104.887 490.429 104.887 482.901Z" fill="#3157A3"/>
<path d="M73.9813 489.628C91.0503 489.628 104.887 483.256 104.887 475.395C104.887 467.534 91.0503 461.162 73.9813 461.162C56.9123 461.162 43.0752 467.534 43.0752 475.395C43.0752 483.256 56.9123 489.628 73.9813 489.628Z" fill="#4378BC"/>
<path d="M74.0103 481.765C83.9142 481.765 92.3035 479.363 95.129 476.057H96.1485V473.596C96.1485 469.083 86.2373 465.428 74.0103 465.428C61.7833 465.428 51.8721 469.083 51.8721 473.596V476.057H52.8916C55.7171 479.37 64.1064 481.765 74.0103 481.765Z" fill="#3157A3"/>
<path d="M74.0103 483.826C86.2369 483.826 96.1485 480.204 96.1485 475.737C96.1485 471.27 86.2369 467.648 74.0103 467.648C61.7837 467.648 51.8721 471.27 51.8721 475.737C51.8721 480.204 61.7837 483.826 74.0103 483.826Z" fill="#5397E0"/>
<path d="M64.8193 474.769H81.3429V476.211H64.8193V474.769ZM66.7564 475.315C66.7564 474.354 66.8948 473.437 67.1715 472.563C67.4483 471.689 67.7978 470.991 68.2347 470.466L70.0116 471.26C69.6257 471.755 69.3052 472.359 69.0431 473.087C68.7809 473.815 68.6571 474.558 68.6571 475.322C68.6571 475.963 68.7299 476.487 68.8683 476.888C69.0067 477.288 69.196 477.579 69.4363 477.769C69.6766 477.958 69.9461 478.053 70.2519 478.053C70.6233 478.053 70.9292 477.914 71.155 477.645C71.3807 477.376 71.5628 477.026 71.7011 476.596C71.8395 476.167 71.956 475.694 72.0725 475.17C72.1818 474.645 72.3201 474.128 72.4876 473.604C72.6551 473.08 72.859 472.607 73.1139 472.17C73.3688 471.733 73.7038 471.391 74.1261 471.122C74.5485 470.852 75.0874 470.728 75.7428 470.728C76.3982 470.728 77.0245 470.91 77.5779 471.267C78.1314 471.624 78.5829 472.17 78.9106 472.905C79.2456 473.633 79.4131 474.565 79.4131 475.694C79.4131 476.429 79.3184 477.164 79.1291 477.892C78.9397 478.62 78.6703 479.254 78.3207 479.793L76.5439 479.072C76.8716 478.519 77.1119 477.951 77.2721 477.368C77.4323 476.786 77.5124 476.218 77.5124 475.679C77.5124 475.06 77.4323 474.551 77.2867 474.15C77.1337 473.75 76.9298 473.459 76.6822 473.284C76.4273 473.102 76.1506 473.014 75.8448 473.014C75.4661 473.014 75.1675 473.146 74.9418 473.408C74.716 473.67 74.5339 474.019 74.4029 474.441C74.2718 474.871 74.148 475.344 74.0315 475.876C73.9149 476.4 73.7766 476.924 73.6164 477.441C73.4562 477.958 73.2523 478.431 72.9974 478.868C72.7425 479.305 72.4148 479.647 71.9924 479.916C71.5773 480.179 71.0457 480.31 70.3976 480.31C69.7495 480.31 69.1377 480.128 68.577 479.771C68.0236 479.414 67.5721 478.868 67.2443 478.125C66.9094 477.39 66.7419 476.458 66.7419 475.33L66.7564 475.315Z" fill="#B6DCFF"/>
<path d="M172.499 124.808C169.892 118.474 162.638 115.46 156.31 118.067L116.003 134.659C120.401 124.168 124.8 113.677 129.198 103.178C129.475 102.093 129.832 100.026 129.14 97.6448C127.756 92.9052 123.387 90.954 122.71 90.6628C123.307 88.2457 122.848 87.423 122.447 87.1026C120.663 85.6393 115.005 89.9348 113.672 90.9686C102.538 111.572 91.4101 132.184 80.2755 152.787C79.8531 153.698 79.5691 154.629 79.3798 155.569C79.3579 155.671 79.3434 155.772 79.3215 155.882C79.2851 156.1 79.2414 156.326 79.2196 156.544C78.9428 158.619 79.1831 160.796 80.0425 162.871C82.6495 169.205 89.9027 172.219 96.231 169.613L165.755 140.986C172.091 138.379 175.106 131.128 172.499 124.801V124.808Z" fill="#FABE9D"/>
<path d="M156.543 110.51C157.301 125.282 158.058 140.061 158.816 154.834L155.531 155.678L123.285 163.934L123.547 156.668L124.662 125.653C135.286 120.608 145.919 115.555 156.543 110.51Z" fill="#ED9646"/>
<path d="M150.623 466.592C146.399 434.223 143.166 398.643 141.746 360.246C140.049 314.408 141.236 272.224 143.967 234.446C158.685 236.695 173.409 238.938 188.127 241.188C186.234 280.524 184.369 319.861 182.512 359.205C180.881 393.94 179.119 431.653 177.517 466.389C168.552 466.454 159.588 466.527 150.623 466.592Z" fill="#283238"/>
<path d="M155.522 155.678L123.276 163.934L123.539 156.668L154.903 149.388L155.522 155.678Z" fill="#A2672D"/>
<path d="M221.39 465.624C208.908 423.878 197.409 375.739 189.457 321.87C185.124 292.508 182.306 264.609 180.602 238.45C196.229 236.019 211.865 233.58 227.492 231.148C228.344 239.273 229.641 251.846 231.155 267.216C236.391 320.436 237.986 344.105 241.737 383.056C243.528 401.614 246.288 428.683 250.257 461.809C240.637 463.076 231.017 464.35 221.397 465.617L221.39 465.624Z" fill="#283238"/>
<path d="M243.428 146.584C242.685 150.203 241.986 153.421 241.331 156.347C240.573 159.769 239.867 162.776 239.204 165.521C238.374 169.008 237.617 172.066 236.917 174.993C235.403 181.283 234.143 186.976 232.919 195.043C231.419 204.923 230.545 210.318 230.4 215.378C230.385 215.909 230.378 216.441 230.378 216.972C230.385 221.275 230.691 225.206 231.062 228.796C231.266 230.732 231.492 232.574 231.696 234.322C231.936 236.375 232.155 238.304 232.293 240.102C232.49 242.687 232.526 245.024 232.22 247.135C231.842 249.756 230.946 252.021 229.198 253.986C228.142 255.166 227.101 255.887 225.826 256.578C225.302 256.869 224.734 257.161 224.108 257.474C209.208 264.958 198.94 253.389 175.826 253.724C163.497 253.899 156.521 257.335 148.547 252.341C147.207 251.504 142.568 248.599 140.755 243.109C140.594 242.629 140.471 242.155 140.369 241.69C139.502 237.758 140.427 234.314 140.755 233.033C145.088 215.975 148.306 164.159 149.056 152.066C150.717 125.34 147.862 117.95 154.649 111.747C158.465 108.259 168.595 107.961 188.701 107.502C202.487 107.189 211.815 108.398 230.465 110.815C238.032 111.798 241.454 112.446 244.105 115.46C247.95 119.85 247.593 126.33 243.428 146.584Z" fill="#ED9646"/>
<path d="M241.33 156.347C240.573 159.769 239.867 162.776 239.204 165.521C238.374 169.008 237.616 172.066 236.917 174.993C235.403 181.283 234.143 186.977 232.919 195.043C231.419 204.923 230.545 210.318 230.4 215.378C230.385 215.909 230.378 216.441 230.378 216.972C230.385 221.275 230.691 225.207 231.062 228.796C231.266 230.732 231.492 232.574 231.696 234.322C230.305 234.227 228.98 233.856 227.902 233.186C224.603 231.133 224.057 226.502 223.816 223.809C222.36 207.471 225.906 191.134 228.142 177.403C230.931 160.279 230.866 152.183 234.521 151.433C236.728 150.974 239.43 153.392 241.33 156.347Z" fill="#A2672D"/>
<path d="M232.293 240.103C214.633 241.435 202.29 239.317 202.29 239.317C175.935 234.803 162.754 232.538 155.304 223.605C150.971 218.407 145.975 209.052 149.376 204.05C152.544 199.383 161.953 200.096 167.975 202.128C176.19 204.902 176.954 209.736 184.171 215.269C196.172 224.486 206.419 220.598 231.062 228.796C231.506 233.012 232.038 236.768 232.293 240.103Z" fill="#A2672D"/>
<path d="M280.879 162.507L247.322 128.959C242.479 124.117 234.622 124.117 229.779 128.959C224.936 133.8 224.936 141.656 229.779 146.498L255.318 172.03L226.058 208.637C225.795 209.139 223.407 213.915 225.89 218.997C228.555 224.465 234.418 225.295 234.847 225.346L280.879 181.553C283.493 178.94 284.68 175.452 284.476 172.03C284.68 168.609 283.493 165.121 280.879 162.507Z" fill="#FABE9D"/>
<path d="M211.669 135.431L242.852 169.468C252.18 160.811 261.509 152.155 270.83 143.498C261.669 133.895 252.508 124.299 243.354 114.696C232.795 121.606 222.228 128.522 211.669 135.431Z" fill="#ED9646"/>
<path d="M177.515 466.389C177.405 476.676 177.303 486.971 177.194 497.265C177.194 497.906 177.18 498.554 177.172 499.195C177.165 499.777 177.158 500.352 177.151 500.935H154.903C154.83 500.352 154.757 499.777 154.685 499.195C154.605 498.554 154.524 497.906 154.444 497.265C153.84 492.387 153.228 487.524 152.624 482.646C151.954 477.295 151.291 471.944 150.621 466.593L177.515 466.389Z" fill="#ED9646"/>
<path d="M233.959 500.84C233.442 499.398 232.932 497.957 232.415 496.523C230.798 492.001 229.189 487.48 227.58 482.959C225.511 477.178 223.451 471.405 221.39 465.624L250.249 461.816C252.019 473.138 253.796 484.459 255.566 495.78C255.82 497.389 256.068 499.005 256.323 500.614C248.866 500.687 241.409 500.76 233.959 500.84Z" fill="#ED9646"/>
<path d="M239.203 165.522C238.373 169.009 237.616 172.067 236.917 174.993C231.775 171.346 224.173 164.495 220.466 153.618C219.111 149.628 218.551 145.908 218.376 142.748C219.468 144 220.561 145.253 221.653 146.505C227.501 152.846 233.356 159.18 239.203 165.522Z" fill="#A2672D"/>
<path d="M162.484 500.935H139.654C138.263 500.52 137.025 499.931 136.013 499.195C135.219 498.627 134.578 497.972 134.112 497.266C133.682 496.611 133.42 495.905 133.34 495.177C133.012 492.162 136.034 489.774 137.986 488.224C142.487 484.656 147.774 483.149 152.624 482.647C155.806 482.319 158.792 482.421 161.239 482.647C161.574 487.517 161.901 492.395 162.236 497.266C162.28 497.907 162.324 498.555 162.367 499.195C162.404 499.778 162.447 500.353 162.484 500.935Z" fill="#ED9646"/>
<path d="M232.22 247.136C231.842 249.757 230.946 252.021 229.198 253.987C228.142 255.166 227.101 255.887 225.826 256.579C225.899 249.153 230.982 243.496 227.545 237.875C225.076 233.842 219.957 232.648 218.646 232.342C210.184 230.376 203.601 236.39 200.368 233.31C199.246 232.24 198.853 230.398 199.159 228.978C200.302 223.795 210.89 224.479 222.491 219.601C225.55 218.32 228.157 216.864 230.4 215.378C230.385 215.91 230.378 216.441 230.378 216.973C230.4 230.231 233.254 239.979 232.22 247.136Z" fill="#A2672D"/>
<path d="M177.195 497.266C177.195 497.906 177.181 498.554 177.174 499.195C177.166 499.777 177.159 500.353 177.152 500.935H139.655C138.264 500.52 137.026 499.93 136.014 499.195C135.22 498.627 134.579 497.972 134.113 497.266H177.195Z" fill="#9A6A38"/>
<path d="M240.042 500.76L233.962 500.833L217.212 501.036C215.821 500.643 214.576 500.068 213.557 499.34C212.756 498.787 212.108 498.139 211.627 497.44C211.569 497.36 211.518 497.272 211.474 497.192C211.124 496.61 210.913 495.991 210.833 495.358C210.469 492.351 213.462 489.926 215.392 488.347C219.128 485.311 223.431 483.716 227.582 482.959C228.383 482.799 229.177 482.682 229.964 482.595C233.139 482.231 236.125 482.296 238.579 482.493C238.95 487.087 239.314 491.688 239.686 496.29C239.707 496.559 239.729 496.828 239.751 497.098C239.802 497.738 239.853 498.386 239.904 499.027C239.948 499.609 239.999 500.177 240.042 500.76Z" fill="#ED9646"/>
<path d="M233.961 500.841L217.212 501.037C215.821 500.644 214.576 500.069 213.556 499.341C212.755 498.788 212.107 498.14 211.627 497.441C211.568 497.361 211.517 497.273 211.474 497.193L232.418 496.523L239.685 496.29L255.568 495.781C255.823 497.39 256.071 499.006 256.325 500.615C248.868 500.688 241.411 500.761 233.961 500.841Z" fill="#9A6A38"/>
<path d="M237.695 164.197C237.593 164.197 237.498 164.16 237.425 164.08L218.113 143.003C217.974 142.857 217.989 142.624 218.134 142.486C218.28 142.348 218.513 142.362 218.652 142.508L237.964 163.585C238.103 163.731 238.088 163.964 237.942 164.102C237.87 164.168 237.782 164.197 237.695 164.197Z" fill="#231F20"/>
<path d="M250.877 127.707C250.76 127.707 250.644 127.648 250.571 127.539C248.976 125.086 247.083 122.843 244.935 120.877C242.043 118.227 238.737 116.087 235.096 114.529C234.914 114.449 234.827 114.238 234.907 114.048C234.987 113.859 235.198 113.779 235.387 113.859C239.101 115.446 242.48 117.63 245.43 120.339C247.622 122.348 249.552 124.634 251.183 127.139C251.292 127.306 251.241 127.532 251.074 127.641C251.015 127.677 250.942 127.699 250.877 127.699V127.707Z" fill="#231F20"/>
<path d="M229.453 209.314L218.384 207.093C217.845 206.984 217.306 206.933 216.774 206.919C216.767 206.875 216.76 206.824 216.752 206.787C216.752 206.773 216.738 206.766 216.723 206.766C212.441 206.686 208.167 206.605 203.885 206.518C203.666 206.518 203.455 206.562 203.244 206.613C203.047 206.642 202.858 206.686 202.668 206.758L194.228 209.882C192.757 210.428 192 212.066 192.546 213.536C192.801 214.228 193.303 214.76 193.915 215.073L191.57 216.667C190.274 217.548 189.932 219.317 190.82 220.62C191.286 221.305 192 221.713 192.757 221.829L192.437 222.047C191.141 222.928 190.798 224.698 191.687 226.001C192.568 227.297 194.337 227.639 195.641 226.751L202.843 221.851L207.511 220.548C207.839 221.305 208.261 222.018 208.771 222.666L198.561 225.528C197.046 225.95 196.165 227.522 196.588 229.037C197.01 230.551 198.583 231.432 200.098 231.01L216.046 226.547L225.615 228.469C230.902 229.532 236.043 226.103 237.106 220.824C238.17 215.539 234.74 210.399 229.46 209.336L229.453 209.314Z" fill="#FABE9D"/>
<path d="M151.232 90.3137C150.933 89.4765 150.285 88.8795 149.513 88.6028C149.935 87.8966 150.066 87.0229 149.768 86.1929C149.294 84.8606 147.925 84.1034 146.571 84.3583C146.928 83.6812 147.015 82.8657 146.738 82.094C146.236 80.6743 144.714 79.9171 143.286 80.3176C143.265 80.2375 143.257 80.1501 143.228 80.07C142.704 78.5921 141.08 77.8131 139.594 78.3373L131.118 81.3441C130.994 81.3878 130.885 81.446 130.775 81.5043C130.12 81.6353 129.472 81.8319 128.838 82.1086L118.461 86.557C113.509 88.6829 111.215 94.4199 113.334 99.3707C115.461 104.321 121.199 106.615 126.151 104.496C127.229 104.038 128.533 103.623 130.856 103.39C131.635 103.309 133.659 103.164 136.266 103.652C141.597 104.649 143.512 107.219 146.425 106.178C146.811 106.04 147.634 105.734 147.867 105.035C148.275 103.805 146.607 102.05 145.34 101.125C143.265 99.6109 141.437 99.7201 140.832 98.1767C140.65 97.718 140.65 97.2957 140.665 97.0482C141.983 96.9972 145.908 95.2281 149.491 93.954C150.969 93.4298 151.749 91.8062 151.224 90.321L151.232 90.3137Z" fill="#FABE9D"/>
<path d="M138.19 96.4876C138.11 96.4876 138.022 96.4585 137.957 96.4003C137.054 95.6358 135.539 94.6748 133.464 94.4418C132.298 94.3108 131.14 94.4272 130.004 94.784C129.815 94.8422 129.611 94.7403 129.546 94.5437C129.487 94.3545 129.589 94.1506 129.779 94.0851C131.009 93.6919 132.277 93.5681 133.536 93.7065C135.794 93.9613 137.44 95.0024 138.423 95.8324C138.576 95.9634 138.598 96.1891 138.466 96.3493C138.394 96.4367 138.292 96.4804 138.19 96.4804V96.4876Z" fill="#231F20"/>
<path d="M140.316 96.4513C140.156 96.4513 140.003 96.342 139.967 96.1746C139.428 94.0632 138.678 91.9956 137.746 90.0298C136.777 87.9986 135.605 86.0474 134.258 84.2418C134.134 84.0816 134.17 83.8487 134.33 83.7322C134.491 83.6084 134.716 83.6448 134.84 83.805C136.217 85.6542 137.418 87.6418 138.409 89.7168C139.362 91.7262 140.127 93.8375 140.681 95.9926C140.732 96.1891 140.615 96.3857 140.418 96.4367C140.389 96.444 140.36 96.4513 140.331 96.4513H140.316Z" fill="#231F20"/>
<path d="M136.742 84.6133C136.298 84.6133 135.868 84.5041 135.489 84.2347C134.696 83.6595 134.331 82.4437 134.717 81.672C134.921 81.2643 135.271 81.1041 135.788 80.8711C135.963 80.791 136.167 80.7037 136.407 80.5872C137.019 80.2887 137.601 79.9465 138.147 79.5752C138.315 79.4587 138.541 79.5024 138.657 79.6698C138.774 79.8373 138.73 80.063 138.562 80.1795C137.987 80.5726 137.375 80.9366 136.735 81.2497C136.487 81.3735 136.276 81.4681 136.094 81.5482C135.613 81.7593 135.46 81.8394 135.373 82.0069C135.147 82.4583 135.424 83.2882 135.919 83.6523C136.8 84.293 138.446 83.463 139.327 83.0189C140.427 82.4655 141.395 81.6647 142.204 80.6308C142.327 80.4707 142.56 80.4488 142.713 80.5726C142.874 80.6964 142.903 80.9294 142.772 81.0822C141.898 82.1962 140.849 83.0625 139.655 83.6668C138.89 84.0527 137.769 84.6133 136.742 84.6133Z" fill="#231F20"/>
<path d="M139.996 88.2392C139.792 88.2392 139.61 88.2174 139.428 88.181C139.108 88.1227 138.132 87.9334 137.549 87.0889C136.974 86.2371 136.996 85.0504 137.615 83.9947C137.717 83.8199 137.943 83.7617 138.11 83.8636C138.285 83.9656 138.343 84.1913 138.241 84.3587C137.768 85.1596 137.739 86.0696 138.147 86.6739C138.554 87.2709 139.283 87.4092 139.552 87.4602C140.113 87.5694 140.768 87.5039 142.137 86.8486C143.404 86.2444 144.599 85.4435 145.706 84.4825C145.859 84.3514 146.084 84.366 146.223 84.5189C146.354 84.6718 146.339 84.8975 146.186 85.0358C145.036 86.0478 143.783 86.8778 142.458 87.5184C141.307 88.0645 140.586 88.2465 139.996 88.2465V88.2392Z" fill="#231F20"/>
<path d="M142.495 92.4103C142.277 92.4103 142.051 92.3885 141.825 92.3521C141.345 92.272 140.354 92.1046 139.815 91.2673C139.182 90.2917 139.466 88.7846 140.507 87.5324C140.638 87.3795 140.864 87.3577 141.017 87.4814C141.17 87.6125 141.192 87.8382 141.068 87.9911C140.238 88.9885 139.976 90.1679 140.427 90.8669C140.791 91.4347 141.541 91.5585 141.942 91.624C143.209 91.8352 144.243 91.3183 145.954 90.3791C146.938 89.8403 147.892 89.2069 148.787 88.4934C148.947 88.3696 149.173 88.3915 149.297 88.5517C149.421 88.7118 149.399 88.9375 149.239 89.0613C148.314 89.8039 147.324 90.4592 146.297 91.0198C144.906 91.7769 143.77 92.3958 142.488 92.3958L142.495 92.4103Z" fill="#231F20"/>
<path d="M142.998 95.8834C142.582 95.8834 142.102 95.7887 141.716 95.4466C141.33 95.1116 141.097 94.5802 141.075 93.9832C141.046 93.1969 141.374 92.396 141.978 91.7772C142.116 91.6316 142.349 91.6316 142.495 91.7772C142.641 91.9155 142.641 92.1485 142.495 92.2941C142.029 92.7673 141.781 93.3716 141.803 93.9613C141.818 94.3618 141.963 94.7039 142.197 94.9078C142.735 95.381 143.711 95.0534 143.719 95.0461C143.908 94.9806 144.119 95.0825 144.185 95.2718C144.25 95.4611 144.148 95.665 143.959 95.7305C143.886 95.7596 143.485 95.8834 143.005 95.8834H142.998Z" fill="#231F20"/>
<path d="M232.221 247.137C231.842 249.757 230.947 252.022 229.199 253.987C227.706 255.662 226.242 256.397 224.108 257.475C209.209 264.959 198.941 253.39 175.827 253.725C163.498 253.9 156.521 257.337 148.547 252.342C147.207 251.505 142.568 248.6 140.755 243.11C140.595 242.63 140.471 242.157 140.369 241.691C142.911 241.538 145.663 241.625 148.176 241.967C156.529 243.096 156.871 246.27 164.532 247.974C176.227 250.58 179.002 243.962 192.43 245.811C202.058 247.137 201.905 250.711 209.988 250.376C215.479 250.158 218.181 248.396 228.026 247.493C229.628 247.348 231.019 247.224 232.221 247.137Z" fill="#A2672D"/>
<path d="M409.061 131.181L398.057 120.18L390.214 128.021C377.332 130.926 360.969 140.754 346.135 155.585C331.3 170.415 321.462 186.782 318.564 199.654L310.721 207.495L321.724 218.496C332.364 229.133 360.532 218.205 384.651 194.092C408.77 169.978 419.693 141.817 409.061 131.181Z" fill="#3157A3"/>
<path d="M374.892 184.336C399.009 160.225 409.551 131.674 398.44 120.566C387.329 109.457 358.771 119.998 334.655 144.108C310.539 168.219 299.996 196.769 311.107 207.878C322.218 218.986 350.776 208.446 374.892 184.336Z" fill="#4378BC"/>
<path d="M363.824 173.196C377.82 159.203 386.275 143.965 385.598 135.294L387.04 133.852L383.566 130.38C377.187 124.002 358.012 132.841 340.739 150.117C323.458 167.394 314.624 186.563 320.996 192.934L324.47 196.407L325.912 194.965C334.585 195.65 349.827 187.197 363.824 173.196Z" fill="#3157A3"/>
<path d="M366.735 176.103C384.015 158.827 392.907 139.708 386.596 133.399C380.286 127.09 361.162 135.98 343.882 153.255C326.603 170.531 317.711 189.65 324.021 195.959C330.332 202.268 349.456 193.378 366.735 176.103Z" fill="#5397E0"/>
<path d="M344.455 174.318C343.101 172.963 341.994 171.471 341.149 169.847C340.305 168.224 339.817 166.731 339.686 165.377L343.312 163.986C343.465 165.231 343.866 166.542 344.528 167.932C345.191 169.323 346.058 170.553 347.135 171.631C348.046 172.541 348.883 173.182 349.64 173.546C350.405 173.91 351.082 174.055 351.687 173.983C352.291 173.91 352.808 173.655 353.238 173.225C353.77 172.694 354.003 172.082 353.944 171.376C353.886 170.67 353.653 169.92 353.238 169.126C352.823 168.333 352.328 167.488 351.745 166.593C351.162 165.697 350.624 164.765 350.121 163.797C349.619 162.829 349.233 161.861 348.978 160.892C348.723 159.924 348.701 158.956 348.927 157.987C349.153 157.019 349.728 156.073 350.653 155.141C351.599 154.194 352.714 153.583 354.003 153.306C355.292 153.022 356.69 153.168 358.197 153.728C359.705 154.289 361.256 155.366 362.843 156.953C363.885 157.995 364.788 159.167 365.552 160.455C366.317 161.744 366.827 163.018 367.096 164.278L363.572 165.77C363.258 164.525 362.8 163.382 362.195 162.334C361.591 161.285 360.906 160.375 360.149 159.611C359.268 158.73 358.445 158.118 357.666 157.776C356.886 157.427 356.195 157.303 355.576 157.405C354.964 157.507 354.44 157.769 354.01 158.198C353.478 158.73 353.238 159.341 353.289 160.033C353.34 160.725 353.573 161.467 353.995 162.254C354.418 163.04 354.92 163.892 355.495 164.802C356.078 165.712 356.617 166.644 357.119 167.598C357.622 168.551 358.008 169.512 358.263 170.481C358.518 171.449 358.539 172.41 358.321 173.371C358.103 174.332 357.542 175.264 356.631 176.174C355.707 177.099 354.592 177.703 353.303 177.987C352.015 178.271 350.609 178.125 349.094 177.55C347.58 176.982 346.028 175.897 344.434 174.31L344.455 174.318ZM340.953 176.283L364.3 152.942L366.339 154.98L342.992 178.322L340.953 176.283Z" fill="#B6DCFF"/>
<path d="M407.184 343.18L404.394 335.907L399.217 337.895C392.736 336.599 383.254 337.756 373.452 341.521C363.65 345.277 355.821 350.752 351.867 356.045L346.689 358.033L349.479 365.306C352.173 372.332 367.277 373.074 383.21 366.966C399.144 360.858 409.878 350.206 407.184 343.18Z" fill="#3157A3"/>
<path d="M380.738 360.502C396.675 354.392 407.313 343.489 404.497 336.149C401.682 328.809 386.48 327.812 370.543 333.922C354.605 340.032 343.968 350.935 346.783 358.275C349.598 365.614 364.8 366.611 380.738 360.502Z" fill="#4378BC"/>
<path d="M377.945 353.169C387.193 349.623 394.162 344.382 395.619 340.275L396.573 339.911L395.692 337.618C394.075 333.402 383.508 333.541 372.09 337.916C360.671 342.292 352.726 349.259 354.343 353.468L355.224 355.761L356.178 355.397C360.001 357.472 368.689 356.715 377.945 353.169Z" fill="#3157A3"/>
<path d="M378.683 355.084C390.099 350.708 398.057 343.778 396.457 339.607C394.857 335.436 384.305 335.603 372.889 339.979C361.473 344.356 353.516 351.285 355.116 355.456C356.715 359.627 367.267 359.461 378.683 355.084Z" fill="#5397E0"/>
<path d="M366.862 349.922L382.294 344.011L382.811 345.357L367.379 351.269L366.862 349.922ZM368.865 349.74C368.523 348.845 368.319 347.935 368.268 347.025C368.21 346.115 368.29 345.328 368.508 344.68L370.452 344.782C370.27 345.379 370.183 346.064 370.205 346.835C370.227 347.607 370.372 348.35 370.642 349.056C370.875 349.653 371.122 350.119 371.399 350.439C371.676 350.76 371.953 350.963 372.251 351.058C372.543 351.145 372.827 351.138 373.118 351.029C373.467 350.898 373.7 350.658 373.817 350.33C373.933 349.995 373.977 349.609 373.955 349.158C373.926 348.706 373.875 348.226 373.788 347.694C373.708 347.17 373.649 346.631 373.613 346.085C373.577 345.539 373.606 345.022 373.686 344.527C373.766 344.032 373.955 343.588 374.254 343.188C374.552 342.795 375.011 342.474 375.623 342.241C376.249 342.001 376.883 341.95 377.531 342.081C378.179 342.212 378.791 342.569 379.366 343.13C379.941 343.69 380.429 344.498 380.83 345.554C381.092 346.246 381.267 346.959 381.354 347.702C381.441 348.452 381.412 349.136 381.281 349.762L379.366 349.726C379.475 349.092 379.497 348.473 379.439 347.869C379.381 347.265 379.25 346.712 379.053 346.209C378.827 345.627 378.58 345.183 378.296 344.862C378.012 344.542 377.72 344.345 377.414 344.265C377.116 344.185 376.824 344.2 376.54 344.309C376.191 344.44 375.958 344.673 375.834 345.001C375.71 345.328 375.674 345.714 375.703 346.158C375.732 346.602 375.79 347.097 375.871 347.629C375.951 348.16 376.009 348.699 376.045 349.238C376.082 349.777 376.06 350.294 375.98 350.789C375.9 351.284 375.71 351.728 375.419 352.121C375.128 352.514 374.676 352.827 374.072 353.06C373.46 353.293 372.827 353.344 372.178 353.213C371.53 353.075 370.919 352.725 370.343 352.157C369.768 351.59 369.28 350.781 368.872 349.726L368.865 349.74Z" fill="#B6DCFF"/>
<path d="M7.4658 272.406L15.4472 264.427L21.1347 270.113C30.4779 272.217 42.3408 279.345 53.104 290.105C63.8673 300.866 70.9967 312.726 73.1013 322.067L78.7888 327.753L70.8074 335.732C63.0954 343.442 42.6612 335.521 25.1691 318.033C7.67699 300.545 -0.246165 280.116 7.4658 272.406Z" fill="#3157A3"/>
<path d="M78.5036 328.035C86.5604 319.981 78.9132 299.276 61.4231 281.79C43.933 264.304 23.2231 256.659 15.1663 264.714C7.10947 272.769 14.7567 293.473 32.2468 310.959C49.7369 328.445 70.4467 336.09 78.5036 328.035Z" fill="#4378BC"/>
<path d="M40.2732 302.875C30.1217 292.726 23.99 281.674 24.4852 275.384L23.4365 274.335L25.9562 271.816C30.5805 267.193 44.4897 273.6 57.0153 286.13C69.5408 298.66 75.9566 312.558 71.3323 317.181L68.8126 319.7L67.764 318.652C61.472 319.147 50.4175 313.017 40.2659 302.868L40.2732 302.875Z" fill="#3157A3"/>
<path d="M69.1443 319.382C73.723 314.804 67.2769 300.938 54.7466 288.411C42.2163 275.884 28.3467 269.439 23.768 274.017C19.1893 278.594 25.6354 292.46 38.1657 304.988C50.696 317.515 64.5656 323.959 69.1443 319.382Z" fill="#5397E0"/>
<path d="M54.0427 304.536L37.1113 287.608L38.5896 286.13L55.521 303.058L54.0427 304.536ZM52.6154 301.995C51.6323 302.978 50.5472 303.778 49.3747 304.39C48.195 305.002 47.1172 305.358 46.1341 305.453L45.1219 302.825C46.0249 302.715 46.9789 302.424 47.9838 301.944C48.9961 301.463 49.8845 300.837 50.671 300.051C51.3337 299.388 51.7925 298.784 52.0546 298.231C52.3168 297.677 52.426 297.182 52.3678 296.745C52.3168 296.309 52.1275 295.93 51.8216 295.617C51.4356 295.231 50.9914 295.064 50.4817 295.107C49.9719 295.151 49.4257 295.318 48.8504 295.624C48.2751 295.923 47.6634 296.287 47.0153 296.702C46.3671 297.124 45.6899 297.517 44.9908 297.881C44.2917 298.245 43.5853 298.522 42.8862 298.711C42.1871 298.9 41.4807 298.908 40.7816 298.748C40.0825 298.587 39.3907 298.165 38.7207 297.495C38.0507 296.825 37.592 296.003 37.3881 295.064C37.1842 294.124 37.2861 293.112 37.6939 292.02C38.1017 290.928 38.8809 289.807 40.0388 288.649C40.7962 287.892 41.6409 287.237 42.5803 286.684C43.5198 286.13 44.4446 285.759 45.3549 285.57L46.4327 288.125C45.5297 288.351 44.6995 288.686 43.9349 289.123C43.1702 289.56 42.5148 290.055 41.9613 290.608C41.3278 291.241 40.8836 291.846 40.6287 292.406C40.3738 292.974 40.2864 293.476 40.3592 293.921C40.4321 294.365 40.6214 294.743 40.9345 295.056C41.3205 295.442 41.7647 295.617 42.2672 295.581C42.7697 295.544 43.3086 295.377 43.8766 295.064C44.4446 294.758 45.0636 294.394 45.719 293.972C46.3817 293.549 47.0517 293.156 47.7435 292.792C48.4353 292.428 49.1344 292.151 49.8335 291.962C50.5399 291.78 51.239 291.758 51.9308 291.918C52.6299 292.071 53.3072 292.486 53.9699 293.142C54.6326 293.797 55.0841 294.62 55.288 295.559C55.4919 296.498 55.3899 297.51 54.9748 298.609C54.5597 299.709 53.7733 300.83 52.6227 301.987L52.6154 301.995Z" fill="#B6DCFF"/>
<path d="M133.189 49.2005C137.282 43.7911 139.59 36.9474 139.226 29.5577C138.476 14.2613 126.052 1.8189 110.745 1.03988C93.6826 0.173502 79.533 13.5333 79.1034 30.293C78.681 46.9508 92.197 60.9731 108.866 61.1479C115.02 61.2134 120.744 59.4224 125.535 56.3136L136.073 61.2425C136.969 61.6648 137.915 60.762 137.544 59.8446L133.189 49.2005Z" fill="white" stroke="#231F20" strokeWidth="1.24" strokeLinecap="round" strokeLinejoin="round"/>
<path d="M119.504 45.6693C118.572 45.6693 117.639 45.3125 116.926 44.6063L96.2877 23.9733C94.8676 22.5536 94.8676 20.2457 96.2877 18.826C97.7077 17.4063 100.016 17.4063 101.436 18.826L122.074 39.459C123.494 40.8787 123.494 43.1866 122.074 44.6063C121.361 45.3198 120.429 45.6693 119.496 45.6693H119.504Z" fill="#ED9646"/>
<path d="M98.8656 45.6693C97.9335 45.6693 97.0014 45.3125 96.2877 44.6063C94.8676 43.1866 94.8676 40.8787 96.2877 39.459L116.926 18.826C118.346 17.4063 120.654 17.4063 122.074 18.826C123.494 20.2457 123.494 22.5536 122.074 23.9733L101.436 44.6063C100.723 45.3198 99.7905 45.6693 98.8584 45.6693H98.8656Z" fill="#ED9646"/>
<path d="M333.138 282.549H303.062V259.135H330.641C332.024 259.135 333.146 260.256 333.146 261.64V282.549H333.138Z" fill="#E6E7E8"/>
<path d="M299.931 259.128H291.068V282.542H299.931V259.128Z" fill="#E6E7E8"/>
<path d="M303.062 282.549C304.148 283.138 307.097 284.937 308.859 288.643C310.221 291.511 310.214 294.139 310.126 295.406C310.418 295.566 311.758 296.258 313.025 295.705C313.848 295.348 314.226 294.642 314.678 293.768C315.107 292.945 315.712 291.497 315.821 289.458C315.821 289.458 315.974 288.031 315.333 282.542H303.062V282.549Z" fill="#E6E7E8"/>
<path d="M244.047 65.4653H264.241C265.624 65.4653 266.746 66.5865 266.746 67.9698V83.1351H244.047V65.4653Z" fill="#CAD1D8"/>
<path d="M241.693 65.4653H235.001V83.1351H241.693V65.4653Z" fill="#CAD1D8"/>
<path d="M244.045 83.1279C244.868 83.572 247.089 84.9262 248.422 87.7292C249.449 89.8988 249.442 91.8791 249.376 92.8329C249.594 92.9494 250.607 93.4808 251.561 93.0586C252.18 92.7892 252.464 92.2577 252.806 91.6025C253.134 90.9763 253.585 89.8842 253.665 88.3481C253.665 88.3481 253.782 87.2705 253.294 83.1279H244.038H244.045Z" fill="#CAD1D8"/>
<path d="M80.9873 385.211H106.359C107.743 385.211 108.864 386.332 108.864 387.715V406.914H80.9873V385.211Z" fill="#CAD1D8"/>
<path d="M78.0894 385.211H69.875V406.914H78.0894V385.211Z" fill="#CAD1D8"/>
<path d="M80.9873 406.914C81.9923 407.46 84.7304 409.127 86.3616 412.563C87.6288 415.221 87.6142 417.66 87.5341 418.832C87.8035 418.977 89.0415 419.625 90.2213 419.108C90.9786 418.774 91.3355 418.118 91.7578 417.317C92.1584 416.553 92.7191 415.213 92.8138 413.32C92.8138 413.32 92.9521 411.995 92.3623 406.914H80.9946H80.9873Z" fill="#CAD1D8"/>
<path d="M111.718 231.89H88.5678V216.368C88.5678 214.985 89.6893 213.864 91.073 213.864H111.726V231.89H111.718Z" fill="#CAD1D8"/>
<path d="M114.115 231.89H120.938V213.864H114.115V231.89Z" fill="#CAD1D8"/>
<path d="M111.718 231.897C110.881 232.356 108.609 233.732 107.254 236.586C106.205 238.799 106.213 240.816 106.278 241.792C106.06 241.915 105.026 242.447 104.042 242.017C103.409 241.741 103.118 241.195 102.768 240.532C102.433 239.899 101.974 238.785 101.887 237.212C101.887 237.212 101.77 236.113 102.266 231.89H111.711L111.718 231.897Z" fill="#CAD1D8"/>
<path d="M288.892 348.059H268.888V334.983C268.888 333.599 270.009 332.478 271.393 332.478H288.899V348.051L288.892 348.059Z" fill="#CAD1D8"/>
<path d="M290.967 348.059H296.865V332.486H290.967V348.059Z" fill="#CAD1D8"/>
<path d="M288.892 348.058C288.171 348.451 286.205 349.645 285.032 352.113C284.122 354.02 284.129 355.768 284.195 356.612C284.005 356.714 283.11 357.18 282.265 356.809C281.719 356.568 281.464 356.103 281.165 355.52C280.881 354.974 280.474 354.006 280.408 352.652C280.408 352.652 280.306 351.705 280.736 348.05H288.899L288.892 348.058Z" fill="#CAD1D8"/>
<path d="M206.302 41.9854C206.906 41.1336 207.358 40.4929 207.904 40.5439C211.334 40.8496 214.4 68.188 208.384 70.4377C206.324 71.2094 203.083 69.0689 201.889 66.5936C200.126 62.9169 204.051 61.0312 204.532 53.1246C204.794 48.7927 203.855 45.4145 206.294 41.9854H206.302Z" fill="#231F20"/>
<path d="M206.505 79.3421C209.361 79.3421 211.676 76.1118 211.676 72.1271C211.676 68.1424 209.361 64.9121 206.505 64.9121C203.65 64.9121 201.335 68.1424 201.335 72.1271C201.335 76.1118 203.65 79.3421 206.505 79.3421Z" fill="#FABE9D"/>
<path d="M180.165 69.0107H205.253V105.668C205.253 112.592 199.631 118.205 192.712 118.205C185.787 118.205 180.172 112.585 180.172 105.668V69.0107H180.165Z" fill="#FABE9D"/>
<path d="M206.381 65.9458C206.651 72.2725 206.979 79.9535 201.568 87.0302C194.955 95.6794 184.848 96.7861 183.289 96.9317C180.398 97.201 172.744 97.9145 167.254 93.0948C161.318 87.8893 161.668 79.5094 162.119 68.494C162.527 58.7089 162.811 52.2657 167.894 47.0892C173.473 41.4031 181.177 41.1046 183.289 41.0173C185.401 40.9372 193.921 40.6023 200.286 46.7689C205.821 52.1419 206.097 59.2768 206.381 65.9385V65.9458Z" fill="#FABE9D"/>
<path d="M184.274 70.6058C185.099 70.6058 185.767 69.4715 185.767 68.0722C185.767 66.6729 185.099 65.5386 184.274 65.5386C183.45 65.5386 182.781 66.6729 182.781 68.0722C182.781 69.4715 183.45 70.6058 184.274 70.6058Z" fill="#231F20"/>
<path d="M169.884 70.6053C170.708 70.6053 171.376 69.471 171.376 68.0717C171.376 66.6724 170.708 65.5381 169.884 65.5381C169.059 65.5381 168.391 66.6724 168.391 68.0717C168.391 69.471 169.059 70.6053 169.884 70.6053Z" fill="#231F20"/>
<path d="M189.546 62.8732C189.452 62.8732 189.35 62.8368 189.284 62.7568C188.862 62.3126 187.959 61.5264 186.604 61.3007C184.471 60.9512 182.876 62.269 182.577 62.5311C182.424 62.6621 182.198 62.6548 182.06 62.5019C181.922 62.349 181.936 62.1234 182.089 61.985C182.432 61.6792 184.259 60.1649 186.721 60.5726C188.287 60.8274 189.328 61.7302 189.816 62.2471C189.954 62.3927 189.947 62.6257 189.801 62.764C189.728 62.8296 189.641 62.866 189.554 62.866L189.546 62.8732Z" fill="#231F20"/>
<path d="M174.116 62.8737C174.021 62.8737 173.919 62.8373 173.854 62.7572C173.431 62.3131 172.528 61.5268 171.174 61.3011C169.04 60.9517 167.445 62.2695 167.147 62.5315C166.994 62.6626 166.768 62.6553 166.629 62.5024C166.491 62.3495 166.506 62.1238 166.659 61.9855C167.001 61.6797 168.829 60.1654 171.29 60.5731C172.856 60.8279 173.897 61.7307 174.385 62.2476C174.523 62.3932 174.516 62.6262 174.371 62.7645C174.298 62.8301 174.21 62.8665 174.123 62.8665L174.116 62.8737Z" fill="#231F20"/>
<path d="M173.429 80.8488C172.978 80.8488 172.541 80.7469 172.184 80.4702C170.982 79.5456 171.477 77.3906 172.002 75.0972C172.519 72.8403 173.385 70.6197 174.565 68.4938C174.66 68.319 174.886 68.2535 175.06 68.3554C175.235 68.4501 175.301 68.6758 175.199 68.8505C174.048 70.9109 173.211 73.0732 172.708 75.2574C172.257 77.2231 171.791 79.2471 172.621 79.8878C173.429 80.5139 175.148 79.6985 175.658 79.4291C175.84 79.3345 176.058 79.4073 176.145 79.582C176.24 79.764 176.167 79.9824 175.992 80.0698C175.344 80.4047 174.339 80.8343 173.422 80.8343L173.429 80.8488Z" fill="#231F20"/>
<path d="M206.381 65.9456C204.175 70.4523 200.126 75.6578 198.283 74.9298C197.744 74.7186 197.664 74.1071 197.002 69.4767C196.062 62.9169 195.851 62.0578 195.56 60.8201C195.145 59.0437 194.395 55.8402 191.955 53.8454C189.639 51.9524 186.85 51.9961 181.374 52.1636C175.868 52.331 174.871 53.212 169.831 53.1246C165.367 53.0445 163.132 53.0081 161.173 51.4428C158.136 49.0184 157.095 44.1259 158.529 40.3837C160.058 36.394 163.962 34.8432 166.948 33.6492C173.101 31.1957 181.803 30.7661 188.591 34.1297C190.287 34.967 192.909 36.5614 197.009 37.7336C198.997 38.3015 200.446 38.7165 202.543 38.9349C206.134 39.3062 206.228 38.9858 207.117 39.4154C211.45 41.5049 210.365 53.4668 208.318 60.8128C207.896 62.3272 207.328 64.0308 206.396 65.931L206.381 65.9456Z" fill="#231F20"/>
<path d="M180.806 97.0556C180.61 97.0556 180.442 96.8954 180.442 96.6988C180.442 96.495 180.603 96.3348 180.799 96.3275C182.613 96.2984 184.397 95.9708 186.093 95.3447C188.118 94.602 189.953 93.4881 191.541 92.0102C191.686 91.8719 191.919 91.8791 192.058 92.032C192.196 92.1776 192.181 92.4106 192.036 92.5489C190.368 94.0851 188.453 95.2573 186.341 96.029C184.571 96.677 182.707 97.0192 180.814 97.0556H180.806Z" fill="#231F20"/>
<path d="M174.747 86.207C174.645 86.207 174.543 86.1633 174.47 86.0832C174.339 85.9303 174.353 85.7046 174.506 85.5663C175.082 85.0566 175.781 84.6781 176.509 84.4669C177.783 84.1029 178.898 84.2995 179.611 84.5324C179.801 84.5907 179.91 84.8018 179.844 84.9911C179.779 85.1804 179.575 85.2896 179.386 85.2241C178.774 85.0275 177.805 84.8528 176.713 85.1658C176.087 85.3479 175.49 85.6755 174.987 86.1123C174.922 86.1706 174.834 86.1997 174.747 86.1997V86.207Z" fill="#231F20"/>
<path d="M148.917 154.702C148.917 154.702 148.888 154.702 148.873 154.702C148.677 154.673 148.531 154.491 148.56 154.295C149.245 148.987 150.155 143.643 151.269 138.416C152.464 132.817 153.92 127.196 155.61 121.714C155.668 121.525 155.872 121.408 156.061 121.474C156.25 121.532 156.36 121.736 156.301 121.925C154.627 127.386 153.17 132.984 151.983 138.569C150.876 143.774 149.966 149.104 149.281 154.389C149.259 154.571 149.099 154.71 148.917 154.71V154.702Z" fill="#231F20"/>
<path d="M215.761 238.479C215.761 238.479 215.746 238.479 215.739 238.479C204.029 237.766 192.508 235.414 181.483 231.483C171.98 228.097 162.891 223.554 154.466 217.977C154.298 217.868 154.254 217.642 154.364 217.475C154.473 217.307 154.699 217.264 154.866 217.373C163.241 222.921 172.278 227.435 181.723 230.798C192.683 234.701 204.138 237.038 215.775 237.751C215.979 237.766 216.132 237.933 216.118 238.137C216.103 238.333 215.943 238.479 215.754 238.479H215.761Z" fill="#231F20"/>
<path d="M212.841 254.649C212.28 254.649 211.719 254.627 211.159 254.591C207.816 254.343 205.493 253.411 203.039 252.429C201.124 251.657 199.143 250.863 196.434 250.259C191.955 249.254 187.149 249.174 182.146 250.019C181.949 250.055 181.76 249.917 181.724 249.72C181.687 249.524 181.826 249.334 182.022 249.298C187.12 248.432 192.021 248.512 196.594 249.538C199.354 250.157 201.364 250.965 203.308 251.744C205.813 252.749 207.984 253.615 211.21 253.856C215.026 254.139 218.929 253.419 222.825 251.722C223.014 251.642 223.225 251.722 223.306 251.912C223.386 252.094 223.306 252.312 223.116 252.392C219.679 253.892 216.234 254.649 212.841 254.649Z" fill="#231F20"/>
<path d="M196.434 220.402C197.533 219.47 200.49 217.22 204.852 216.878C207.466 216.674 209.585 217.227 210.867 217.679" stroke="#231F20" strokeLinecap="round" strokeLinejoin="round"/>
<path d="M196.355 213.668C197.958 212.947 200.339 212.11 203.332 211.826C205.487 211.622 207.352 211.768 208.786 211.986" stroke="#231F20" strokeLinecap="round" strokeLinejoin="round"/>
<path d="M196.675 298.995C196.61 298.995 196.544 298.98 196.486 298.944C191.374 295.821 187.019 291.802 183.552 286.982C177.974 279.236 176.081 271.278 175.469 265.97C175.447 265.774 175.593 265.592 175.789 265.57C175.986 265.548 176.168 265.694 176.19 265.89C176.787 271.111 178.659 278.937 184.142 286.56C187.55 291.299 191.832 295.253 196.864 298.325C197.039 298.427 197.09 298.653 196.988 298.827C196.923 298.937 196.799 299.002 196.675 299.002V298.995Z" fill="#485861"/>
<path d="M223.451 458.016C223.269 458.016 223.109 457.878 223.087 457.696C218.616 420.587 216.999 382.867 218.273 345.59C219.191 318.813 221.616 291.78 225.49 265.235C225.519 265.039 225.701 264.908 225.905 264.93C226.102 264.959 226.24 265.141 226.211 265.345C222.344 291.86 219.912 318.864 219.002 345.62C217.727 382.867 219.344 420.543 223.808 457.616C223.83 457.812 223.691 457.994 223.487 458.024C223.473 458.024 223.458 458.024 223.444 458.024L223.451 458.016Z" fill="#485861"/>
<path d="M171.986 457.055C171.782 457.055 171.622 456.895 171.622 456.691C171.6 446.149 171.76 435.468 172.103 424.94C172.627 408.799 173.603 392.447 174.987 376.35C175.001 376.146 175.176 375.993 175.38 376.015C175.576 376.03 175.729 376.212 175.715 376.408C174.324 392.498 173.355 408.829 172.831 424.962C172.489 435.483 172.328 446.156 172.35 456.691C172.35 456.895 172.19 457.055 171.986 457.055Z" fill="#485861"/>
<path d="M278.135 164.174C278.048 164.174 277.96 164.145 277.895 164.087L271.639 158.554C271.486 158.423 271.472 158.19 271.61 158.037C271.741 157.884 271.974 157.87 272.127 158.008L278.382 163.534C278.535 163.665 278.55 163.898 278.412 164.051C278.339 164.131 278.237 164.174 278.142 164.174H278.135Z" fill="#231F20"/>
</svg>
