<svg width="453" height="464" viewBox="0 0 453 464" fill="none" xmlns="http://www.w3.org/2000/svg">
<g clipPath="url(#clip0_3075_49881)">
<path fillRule="evenodd" clipRule="evenodd" d="M45.8322 450.005C-22.7962 421.986 -0.878483 364.516 29.4201 389.506C-1.49481 356.486 -6.54615 275.525 39.9643 296.575C-13.653 59.7364 358.116 123.874 339.013 253.944C393.644 227.565 387.055 322.13 344.446 378.234C356.842 368.752 412.865 357.401 371.603 412.965C395.658 389.754 393.355 428.11 362.259 448.429L45.829 450.005H45.8322Z" fill="#E6E7E8"/>
<path fillRule="evenodd" clipRule="evenodd" d="M344.771 29.8316C344.734 28.3817 345.853 27.5929 346.941 26.9659C349.648 25.4394 353.095 24.9117 355.896 25.0564C365.606 25.5699 375.324 30.033 375.195 40.7325C375.1 49.5537 369.908 55.0808 363.977 59.9922C358.519 64.4865 352.307 68.4219 346.739 72.6892C332.338 83.7292 321.027 98.6733 314.663 115.782C312.652 121.221 315.37 127.285 320.74 129.328C326.114 131.368 332.105 128.61 334.138 123.185C339.1 109.773 348.015 98.103 359.298 89.4549C366.686 83.7916 375.077 78.5993 381.713 72.2068C390.012 64.1687 395.829 54.4453 395.997 40.9879C396.272 17.8978 377.93 5.15546 356.985 4.04891C350.61 3.70843 342.88 5.14695 336.78 8.6028C329.059 12.9666 323.741 20.1734 323.991 30.3394C324.112 36.1361 328.888 40.7354 334.618 40.5935C340.37 40.4601 344.911 35.6339 344.768 29.8287L344.771 29.8316Z" fill="#4478BB"/>
<path fillRule="evenodd" clipRule="evenodd" d="M305.068 141.923L304.618 143.15C302.636 148.554 305.579 154.493 311.184 156.404C316.788 158.315 322.95 155.482 324.932 150.078L325.382 148.851C327.364 143.447 324.421 137.507 318.816 135.597C313.212 133.686 307.05 136.518 305.068 141.923Z" fill="#4478BB"/>
<path fillRule="evenodd" clipRule="evenodd" d="M273.077 53.8942C272.747 53.2809 273.169 52.7343 273.614 52.2608C274.723 51.0978 276.435 50.2239 277.951 49.7599C283.205 48.1488 289.308 48.225 291.532 52.8201C293.372 56.6049 291.802 59.9448 289.712 63.1607C287.783 66.1065 285.334 68.9602 283.297 71.8329C278.03 79.2626 275.238 87.7759 275.53 96.2829C275.628 98.984 278.367 101.062 281.652 100.922C284.937 100.783 287.52 98.4756 287.434 95.7744C287.189 89.1106 289.416 82.4467 293.543 76.6282C296.244 72.818 299.579 69.0205 301.727 65.0388C304.402 60.0401 305.403 54.7935 302.61 49.0131C297.813 39.0984 285.366 37.1123 274.033 40.5856C270.583 41.6406 266.796 43.7126 264.302 46.3374C261.148 49.655 259.871 53.7353 262.18 58.0317C263.486 60.485 267 61.5495 270.005 60.4087C273.023 59.2679 274.396 56.3507 273.077 53.9006V53.8942Z" fill="#4478BB"/>
<path fillRule="evenodd" clipRule="evenodd" d="M276.64 109.189L276.675 109.802C276.834 112.5 279.626 114.534 282.908 114.34C286.19 114.146 288.725 111.801 288.566 109.103L288.531 108.489C288.372 105.791 285.58 103.758 282.298 103.952C279.016 104.145 276.481 106.491 276.64 109.189Z" fill="#4478BB"/>
<path fillRule="evenodd" clipRule="evenodd" d="M406.716 91.8232C406.935 90.8794 407.821 90.5934 408.663 90.4091C410.751 89.9674 413.171 90.3233 415.046 90.9811C421.533 93.2723 427.363 98.1184 425.485 105.011C423.944 110.693 419.503 113.219 414.668 115.199C410.223 117.004 405.359 118.291 400.873 119.928C389.278 124.157 379.118 131.536 371.947 141.311C369.676 144.422 370.499 148.89 373.793 151.293C377.088 153.695 381.605 153.123 383.889 150.025C389.494 142.357 397.484 136.611 406.57 133.297C412.517 131.126 419.068 129.464 424.631 126.671C431.594 123.15 437.16 118.037 439.527 109.374C443.581 94.5021 433.297 82.5631 419.306 77.6216C415.049 76.1154 409.575 75.483 404.867 76.4872C398.91 77.7487 394.103 81.3333 392.572 87.959C391.683 91.7311 394.145 95.6684 398.049 96.7329C401.966 97.807 405.845 95.6048 406.722 91.8232H406.716Z" fill="#4478BB"/>
<path fillRule="evenodd" clipRule="evenodd" d="M361.707 156.672L361.205 157.387C358.994 160.539 359.912 165.001 363.248 167.343C366.587 169.685 371.092 169.034 373.303 165.881L373.805 165.166C376.016 162.014 375.101 157.552 371.762 155.21C368.423 152.868 363.918 153.52 361.707 156.672Z" fill="#4478BB"/>
<path fillRule="evenodd" clipRule="evenodd" d="M413.508 443.243C416.821 466.332 328.359 460.364 236.847 461.922C116.968 463.962 -12.1936 469.142 2.21386 448.117C10.3913 436.178 122.538 437.144 229.124 435.886C322.38 434.786 411.239 427.427 413.508 443.243Z" fill="#D1D3D4"/>
<path fillRule="evenodd" clipRule="evenodd" d="M230.751 88.5843C230.751 89.4455 231.18 93.4749 231.942 97.7776C232.282 99.6907 231.269 101.585 229.493 102.37L226.128 103.854L223.86 104.483L223.126 105.684L222.326 107.813C222.326 107.813 220.88 113.609 221.252 115.796C221.455 116.975 224.448 117.941 224.448 117.941L214.761 136.165L190.168 117.702C190.168 117.702 197.282 111.004 198.749 107.397C200.109 104.086 199 96.0648 199 96.0648L192.716 90.7992L189.422 78.3232L199.375 72.6349L203.207 81.3484L201.599 74.0935L202.308 62.9521L224.676 64.0262C224.676 64.0262 225.963 74.8181 226.541 77.624C226.78 78.7998 227.034 79.5403 228.127 80.8622C229.15 82.1047 229.49 82.2509 230.055 83.6428C230.274 84.183 230.751 86.9064 230.751 88.5875V88.5843Z" fill="#FABE9B"/>
<path fillRule="evenodd" clipRule="evenodd" d="M184.431 69.4031C184.025 69.8639 183.662 70.4073 183.383 71.0174C183.621 70.4104 183.967 69.8702 184.431 69.4031Z" fill="#231F20"/>
<path fillRule="evenodd" clipRule="evenodd" d="M280.293 199L278.667 200.627C276.017 203.306 274.651 204.545 273.469 205.114H273.466C272.735 205.467 272.071 205.562 271.217 205.578C271.093 205.553 270.969 205.524 270.848 205.492C270.181 205.33 269.52 205.143 268.869 204.936C267.922 204.638 266.991 204.297 266.092 203.932C266.089 203.932 266.086 203.929 266.086 203.929C263.398 202.842 260.978 201.536 259.122 200.427C259.1 200.414 259.09 200.405 259.09 200.405C257.038 199.175 255.691 198.193 255.472 198.031L255.44 198.009C255.44 198.009 256.654 205.505 258.036 209.013C264.316 226.498 264.316 227.305 264.316 227.305L264.901 241.7L188.762 244.389C188.762 244.389 181.49 241.284 180.804 237.75C179.915 233.155 183.787 222.465 183.317 217.612C182.968 214.145 178.485 210.551 177.379 207.246C175.432 201.434 170.625 184.462 170.625 184.462C170.625 184.462 168.373 161.505 164.713 142.972C163.976 139.229 165.472 135.396 168.538 133.121C177.036 126.804 190.421 115.681 190.421 115.681C208.177 125.316 222.794 130.757 223.057 117.048L232.398 120.175C234.911 125.488 235.041 131.564 241.125 134.993C241.681 135.276 242.227 135.517 242.764 135.717C246.71 137.198 250.081 136.439 252.914 133.591L266.559 157.307L274.689 169.958L278.489 178.821L281.262 188.062C282.514 192.921 283.661 195.593 280.293 199Z" fill="#ED9646"/>
<path fillRule="evenodd" clipRule="evenodd" d="M188.761 244.389C188.761 244.389 181.489 241.284 180.803 237.75C179.913 233.158 182.598 226.459 182.128 221.61C178.833 215.553 178.481 210.551 177.375 207.247C175.428 201.434 170.824 185.612 170.824 185.612C170.824 185.612 173.182 189.835 195.153 202.953C212.055 213.049 252.167 187.627 252.167 187.627C252.167 187.627 256.649 205.508 258.031 209.013C258.295 209.709 250.747 199.474 238.28 202.69C201.221 212.248 194.381 213.596 194.381 213.596C194.381 213.596 193.419 215.931 191.401 219.84C188.698 225.08 184.946 232.475 187.217 234.429C193.66 239.981 228.651 227.896 249.806 231.874C263.245 234.404 264.855 241.789 264.855 241.789L188.755 244.389H188.761Z" fill="#A2672D"/>
<path fillRule="evenodd" clipRule="evenodd" d="M226.445 431.427L227.503 419.171L237.202 415.793L239.223 429.499L226.445 431.431V431.427Z" fill="#FABE9B"/>
<path fillRule="evenodd" clipRule="evenodd" d="M165.25 431.564L166.464 417.677L181.055 414.531L177.57 432.108L165.25 431.564Z" fill="#FABE9B"/>
<path fillRule="evenodd" clipRule="evenodd" d="M241.65 424.011L221.511 423.613C219.23 386.144 220.469 354.849 221.162 343.148C220.974 337.031 223.312 319.051 223.757 305.892C223.868 302.603 224.018 299.234 224.199 295.796C224.259 294.652 224.323 293.498 224.389 292.339L182.8 423.613L162.496 424.43C164.583 383.85 170.194 363.327 173.155 338.321C175.871 306.251 183.404 273.211 186.12 242.962L264.864 241.643C266.91 304.907 249.814 364.843 241.653 424.014L241.65 424.011Z" fill="#253239"/>
<path fillRule="evenodd" clipRule="evenodd" d="M248.717 177.814L243.824 156.303L253.352 173.587L248.717 177.814Z" fill="#A2672D"/>
<path fillRule="evenodd" clipRule="evenodd" d="M280.294 199L278.667 200.627C276.017 203.306 274.651 204.545 273.469 205.114H273.466C272.736 205.467 272.072 205.562 271.217 205.578C270.922 205.588 270.601 205.585 270.248 205.581H270.235C270.099 205.543 268.704 205.181 266.093 203.932C266.089 203.932 266.086 203.929 266.086 203.929C265.578 203.687 265.022 203.411 264.422 203.096C260.549 201.066 256.74 197.831 256.393 197.529C256.374 197.519 256.365 197.51 256.365 197.51L253.296 195.282L253.267 195.263L251.752 189.454L248.718 177.814L253.353 173.587L253.356 173.584L241.125 136.178L242.764 135.717L252.556 132.965L252.915 133.591L266.56 157.307L274.689 169.958L278.489 178.821L281.263 188.062C282.514 192.921 283.661 195.594 280.294 199Z" fill="#FABE9B"/>
<path d="M217.183 81.5883C217.834 81.3139 217.928 80.0595 217.393 78.7864C216.857 77.5134 215.894 76.7039 215.243 76.9783C214.591 77.2528 214.497 78.5072 215.033 79.7802C215.568 81.0532 216.531 81.8628 217.183 81.5883Z" fill="#231F20"/>
<path d="M228.135 80.6883C228.803 80.4545 228.973 79.2081 228.517 77.9046C228.06 76.6011 227.149 75.734 226.482 75.9679C225.814 76.2018 225.644 77.4481 226.1 78.7516C226.557 80.0551 227.468 80.9222 228.135 80.6883Z" fill="#231F20"/>
<path d="M222.725 96.802C223.218 97.5742 223.92 98.2448 224.828 98.4736C225.839 98.7278 226.877 98.4481 227.846 98.159C228.342 98.0096 228.129 97.2342 227.634 97.3836C226.836 97.6219 225.95 97.9047 225.111 97.7173C224.374 97.552 223.818 97.0213 223.421 96.3985C223.141 95.9631 222.446 96.3667 222.725 96.8052V96.802Z" fill="#231F20"/>
<path d="M206.63 95.9663C207.456 98.4101 208.857 100.698 210.903 102.306C212.12 103.263 213.505 103.959 214.988 104.394C216.301 104.778 217.654 105.039 219.007 105.22C220.523 105.423 222.152 105.595 223.658 105.246C224.163 105.128 223.951 104.353 223.445 104.47C222.26 104.747 220.888 104.639 219.646 104.496C218.296 104.343 216.949 104.089 215.633 103.739C214.318 103.39 212.974 102.818 211.818 101.995C210.776 101.254 209.874 100.314 209.146 99.2617C208.419 98.2099 207.824 96.9896 207.408 95.7534C207.243 95.2641 206.465 95.4738 206.633 95.9663H206.63Z" fill="#231F20"/>
<path d="M210.606 76.4928C212.195 75.05 214.263 74.1571 216.404 74.0014C216.62 73.9855 216.808 73.8266 216.808 73.5978C216.808 73.3912 216.623 73.1783 216.404 73.1942C214.044 73.3658 211.791 74.3287 210.038 75.9207C209.653 76.2703 210.225 76.8391 210.606 76.4896V76.4928Z" fill="#231F20"/>
<path d="M223.644 73.3246C224.728 72.886 225.916 72.7557 227.063 72.9877C227.276 73.0322 227.498 72.9273 227.558 72.7081C227.612 72.5079 227.492 72.2568 227.279 72.2123C225.995 71.9518 224.648 72.0566 223.432 72.5492C223.231 72.6318 223.088 72.8161 223.152 73.0449C223.206 73.2356 223.444 73.4072 223.648 73.3246H223.644Z" fill="#231F20"/>
<path d="M220.584 76.1973C221.487 78.8794 223.126 81.304 225.29 83.1281C225.595 83.3823 225.906 83.627 226.23 83.8622C226.389 83.9766 226.551 84.091 226.716 84.199C226.802 84.2562 226.891 84.3134 226.976 84.3674C227.011 84.3897 227.046 84.4119 227.081 84.4342L227.135 84.4659C227.205 84.5136 227.205 84.5104 227.142 84.4532L227.088 84.2498C227.088 84.164 227.094 84.199 227.05 84.2657C227.021 84.3071 226.992 84.3515 226.964 84.3929C226.919 84.4564 226.872 84.52 226.824 84.5803C226.703 84.7329 226.573 84.8759 226.44 85.0157C226.176 85.2826 225.89 85.5241 225.579 85.7307C224.94 86.1534 224.232 86.4362 223.475 86.5696C223.263 86.6078 223.142 86.8684 223.196 87.0654C223.259 87.291 223.475 87.3832 223.692 87.345C224.74 87.1575 225.715 86.6872 226.538 86.0167C226.945 85.6862 227.301 85.2985 227.612 84.8759C227.79 84.6312 228.012 84.3388 227.834 84.0306C227.704 83.805 227.396 83.681 227.183 83.5412C225.458 82.4036 223.981 80.8846 222.878 79.1399C222.252 78.1517 221.744 77.0934 221.372 75.9844C221.207 75.495 220.432 75.7047 220.597 76.1973H220.584Z" fill="#231F20"/>
<path d="M179.738 201.212C183.677 204.291 188.147 206.595 192.719 208.572C197.291 210.548 202.266 212.22 207.327 212.887C209.833 213.218 212.372 213.3 214.891 213.065C217.41 212.83 220.069 212.258 222.582 211.521C227.24 210.151 231.767 208.279 236.065 206.026C240.364 203.773 244.313 201.186 248.055 198.215C248.528 197.84 248.995 197.459 249.459 197.074C249.856 196.744 249.284 196.175 248.891 196.506C245.272 199.518 241.368 202.187 237.25 204.472C233.133 206.757 228.793 208.664 224.314 210.138C221.861 210.945 219.358 211.626 216.803 212.023C214.249 212.42 211.793 212.487 209.287 212.29C204.296 211.896 199.435 210.447 194.809 208.581C190.184 206.716 185.784 204.574 181.781 201.739C181.282 201.387 180.79 201.021 180.31 200.646C179.906 200.332 179.334 200.897 179.741 201.215L179.738 201.212Z" fill="#231F20"/>
<path d="M220.143 234.811C216.159 236.11 212.074 237.092 207.937 237.744C203.81 238.395 199.63 238.713 195.452 238.7C193.107 238.694 190.766 238.583 188.431 238.367C188.215 238.348 188.027 238.567 188.027 238.77C188.027 239.005 188.212 239.152 188.431 239.174C192.628 239.558 196.853 239.609 201.059 239.323C205.265 239.037 209.418 238.424 213.513 237.486C215.822 236.956 218.107 236.323 220.359 235.589C220.848 235.43 220.639 234.652 220.146 234.814L220.143 234.811Z" fill="#231F20"/>
<path d="M104.983 347.817C115.975 334.956 125.557 319.842 126.513 302.488C126.97 294.182 125.109 286.088 121.334 278.696C117.674 271.527 112.56 265.197 107.159 259.277C94.8894 245.819 81.1301 233.797 69.0386 220.168C57.7509 207.444 47.715 192.39 46.5014 174.938C45.9454 166.927 47.3782 158.791 51.3939 151.781C54.8758 145.705 60.1209 140.532 66.5638 137.675C68.184 136.957 69.871 136.41 71.5993 136.007C72.3967 135.822 72.0599 134.596 71.2625 134.78C57.0234 138.104 47.3782 151.517 45.5102 165.535C43.2482 182.526 50.7585 198.924 60.8008 212.169C71.7613 226.625 85.4698 238.78 98.149 251.666C109.64 263.341 122.306 276.421 124.845 293.33C127.529 311.215 118.885 328.34 108.128 342.001C106.816 343.669 105.462 345.303 104.08 346.917C103.553 347.537 104.446 348.439 104.979 347.817H104.983Z" fill="#939598"/>
<path d="M141.064 360.226H69.3984V347.165H141.064V360.226Z" fill="#BCBEC0"/>
<path d="M74.5149 360.226H137.04V442.118C137.04 445.289 134.467 447.863 131.296 447.863H80.2556C77.085 447.863 74.5117 445.289 74.5117 442.118V360.226H74.5149Z" fill="#BCBEC0"/>
<path d="M137.037 360.226H74.5117V363.299H137.037V360.226Z" fill="#939598"/>
<path d="M54.4695 146.204C54.4695 146.204 46.6891 139.788 46.4604 128.866C46.2316 117.944 51.4958 122.104 51.4958 122.104C51.4958 122.104 56.9888 127.649 54.4695 146.204Z" fill="#BCBEC0"/>
<path d="M54.5664 146.115C54.5664 146.115 62.6517 152.14 73.3104 149.757C83.969 147.374 78.6763 143.252 78.6763 143.252C78.6763 143.252 71.9824 139.242 54.5696 146.115H54.5664Z" fill="#BCBEC0"/>
<path d="M45.7614 173.826C45.7614 173.826 35.8367 175.596 27.3701 168.694C18.9035 161.791 25.483 160.476 25.483 160.476C25.483 160.476 33.2633 159.885 45.7614 173.826Z" fill="#BCBEC0"/>
<path d="M45.7617 173.692C45.7617 173.692 55.588 171.439 60.6807 161.772C65.7701 152.105 59.2034 153.472 59.2034 153.472C59.2034 153.472 51.8106 155.973 45.7617 173.692Z" fill="#BCBEC0"/>
<path d="M69.3645 220.762C69.3645 220.762 61.7621 227.384 50.9509 225.818C40.1398 224.251 45.1085 219.739 45.1085 219.739C45.1085 219.739 51.4783 215.229 69.3645 220.762Z" fill="#BCBEC0"/>
<path d="M69.2961 220.651C69.2961 220.651 76.5681 213.663 75.9645 202.756C75.364 191.847 70.4302 196.394 70.4302 196.394C70.4302 196.394 65.3757 202.34 69.2929 220.651H69.2961Z" fill="#BCBEC0"/>
<path d="M84.8445 237.671C84.8445 237.671 79.6439 246.311 68.874 248.139C58.1074 249.969 61.4463 244.15 61.4463 244.15C61.4463 244.15 66.1228 237.903 84.8414 237.671H84.8445Z" fill="#BCBEC0"/>
<path d="M84.7441 237.585C84.7441 237.585 89.5159 228.7 85.5956 218.506C81.672 208.311 78.3744 214.152 78.3744 214.152C78.3744 214.152 75.3912 221.362 84.7441 237.585Z" fill="#BCBEC0"/>
<path d="M101.067 253.684C101.067 253.684 93.2992 260.112 82.5326 258.276C71.7659 256.436 76.8458 252.054 76.8458 252.054C76.8458 252.054 83.3268 247.706 101.067 253.687V253.684Z" fill="#BCBEC0"/>
<path d="M101 253.573C101 253.573 108.443 246.769 108.116 235.85C107.789 224.931 102.744 229.351 102.744 229.351C102.744 229.351 97.5398 235.17 101 253.573Z" fill="#BCBEC0"/>
<path d="M118.086 273.99C118.086 273.99 108.161 275.76 99.6943 268.858C91.2278 261.955 97.8072 260.64 97.8072 260.64C97.8072 260.64 105.588 260.049 118.086 273.99Z" fill="#BCBEC0"/>
<path d="M118.082 273.86C118.082 273.86 127.908 271.607 133.001 261.94C138.09 252.273 131.524 253.639 131.524 253.639C131.524 253.639 124.131 256.14 118.082 273.86Z" fill="#BCBEC0"/>
<path d="M125.746 296.641C125.746 296.641 115.821 298.411 107.354 291.509C98.8879 284.607 105.467 283.291 105.467 283.291C105.467 283.291 113.248 282.7 125.746 296.641Z" fill="#BCBEC0"/>
<path d="M125.742 296.511C125.742 296.511 135.568 294.258 140.661 284.591C145.751 274.924 139.184 276.291 139.184 276.291C139.184 276.291 131.791 278.792 125.742 296.511Z" fill="#BCBEC0"/>
<path d="M120.513 322.839C120.513 322.839 110.766 320.262 105.995 310.433C101.226 300.604 107.745 302.183 107.745 302.183C107.745 302.183 115.052 304.926 120.513 322.836V322.839Z" fill="#BCBEC0"/>
<path d="M120.566 322.718C120.566 322.718 130.428 324.816 139.117 318.193C147.806 311.574 141.274 310.042 141.274 310.042C141.274 310.042 133.516 309.194 120.566 322.718Z" fill="#BCBEC0"/>
<path d="M51.3513 195.282C51.3513 195.282 41.4265 197.052 32.9599 190.15C24.4934 183.248 31.0728 181.932 31.0728 181.932C31.0728 181.932 38.8532 181.341 51.3513 195.282Z" fill="#BCBEC0"/>
<path d="M51.3477 195.152C51.3477 195.152 61.1739 192.899 66.2666 183.232C71.3561 173.565 64.7893 174.932 64.7893 174.932C64.7893 174.932 57.3966 177.433 51.3477 195.152Z" fill="#BCBEC0"/>
<path fillRule="evenodd" clipRule="evenodd" d="M193.881 167.241C193.881 167.241 208.371 178.449 215.284 179.399C222.61 180.407 252.168 187.624 252.168 187.624L267.538 202.785C267.538 202.785 236.9 205.696 220.967 205.963C206.21 206.211 174.234 187.624 174.234 187.624L193.881 167.241Z" fill="#FABE9B"/>
<path fillRule="evenodd" clipRule="evenodd" d="M163.99 163.368L170.827 191.939L198.956 161.833L164.584 140.004L163.276 152.172C162.872 155.916 163.114 159.704 163.99 163.368Z" fill="#ED9646"/>
<path fillRule="evenodd" clipRule="evenodd" d="M191.293 158.985L193.879 167.241L202.501 173.295L212.083 178.491L191.293 158.985Z" fill="#A2672D"/>
<path fillRule="evenodd" clipRule="evenodd" d="M273.47 205.114H273.467L270.849 205.492L270.249 205.581H270.236L268.87 204.936L262.243 201.831L259.844 200.074C256.267 197.459 253.465 193.763 251.753 189.454C251.429 188.64 251.146 187.805 250.901 186.95L248.719 177.814L253.354 173.584L273.47 205.114Z" fill="#F4B492"/>
<path d="M241.047 146.357C241.911 150.396 242.791 154.432 243.706 158.458C244.392 161.48 245.098 164.499 245.832 167.511C246.403 169.85 246.991 172.186 247.595 174.515C248.119 176.536 248.656 178.551 249.193 180.569C249.73 182.587 250.276 184.646 250.8 186.686C250.867 186.95 250.937 187.217 251.004 187.481C251.131 187.983 251.909 187.77 251.779 187.268C251.248 185.199 250.705 183.133 250.155 181.068C249.606 179.002 249.088 177.064 248.564 175.062C247.97 172.79 247.392 170.511 246.829 168.23C246.114 165.319 245.425 162.401 244.755 159.478C243.865 155.591 243.007 151.699 242.169 147.803C242.051 147.25 241.93 146.697 241.813 146.144C241.705 145.639 240.93 145.851 241.038 146.357H241.047Z" fill="#231F20"/>
<path fillRule="evenodd" clipRule="evenodd" d="M253.869 135.06C253.869 135.06 250.203 123.216 249.301 118.487C248.999 116.883 243.22 109.987 238.194 110.807C230.814 112.014 230.296 114.579 230.296 114.579C230.296 114.579 227.278 113.241 226.824 113.746C223.784 117.15 229.877 117.979 230.706 120.168C231.386 121.973 232.307 124.881 233.149 127.668C234.836 133.245 239.328 137.608 245.006 138.902C248.478 139.693 251.636 139.169 253.869 135.063V135.06Z" fill="#FABE9B"/>
<path fillRule="evenodd" clipRule="evenodd" d="M232.043 124.09C235.29 124.513 238.953 126.095 241.825 128.192C241.825 128.192 241.622 122.975 242.067 121.157C242.645 118.789 246.419 117.954 246.419 117.954C246.419 117.954 244.773 117.388 243.331 118.233C241.094 119.552 238.594 122.501 237.717 122.568C236.31 122.673 236.84 119.209 236.84 119.209C236.84 119.209 236.192 121.367 235.675 121.751C235.157 122.132 233.861 121.821 233.546 121.249C233.209 120.652 233.689 118.167 233.689 118.167C233.279 119.759 232.415 121.084 231.211 121.567L232.043 124.087V124.09Z" fill="#F4B492"/>
<path d="M261.44 196.467C262.641 198.066 264.426 198.962 266.231 199.715C267.206 200.122 268.198 200.576 269.246 200.757C270.294 200.939 271.371 200.799 272.375 200.414C273.5 199.982 274.51 199.327 275.505 198.66C275.933 198.374 275.53 197.675 275.098 197.964C273.509 199.032 271.721 200.227 269.713 200.017C268.709 199.912 267.753 199.477 266.828 199.099C265.999 198.759 265.176 198.399 264.398 197.955C263.543 197.465 262.733 196.858 262.136 196.064C262.006 195.889 261.79 195.8 261.586 195.921C261.415 196.019 261.31 196.296 261.443 196.471L261.44 196.467Z" fill="#231F20"/>
<path d="M194.013 167.022C193.495 164.318 192.955 161.61 192.148 158.976C191.341 156.341 190.258 153.885 189.048 151.454C188.368 150.088 187.656 148.74 186.941 147.393C186.7 146.935 186.004 147.342 186.245 147.8C187.497 150.161 188.749 152.528 189.813 154.981C190.877 157.435 191.691 160.056 192.301 162.7C192.647 164.203 192.946 165.719 193.235 167.235C193.276 167.448 193.533 167.572 193.73 167.515C193.953 167.454 194.051 167.235 194.01 167.019L194.013 167.022Z" fill="#231F20"/>
<path d="M168.896 135.209C167.72 136.229 167.152 137.748 166.809 139.226C166.427 140.865 166.17 142.543 165.957 144.215C165.836 145.171 165.738 146.128 165.665 147.091C165.649 147.307 165.862 147.494 166.068 147.494C166.3 147.494 166.453 147.31 166.472 147.091C166.599 145.467 166.79 143.846 167.053 142.238C167.183 141.444 167.326 140.653 167.492 139.864C167.644 139.14 167.828 138.409 168.114 137.723C168.422 136.985 168.861 136.305 169.465 135.778C169.63 135.635 169.611 135.355 169.465 135.209C169.302 135.047 169.061 135.066 168.896 135.209Z" fill="#231F20"/>
<path d="M232.776 261.8C232.757 261.965 232.738 262.13 232.715 262.295C232.706 262.369 232.696 262.442 232.687 262.512C232.68 262.553 232.677 262.594 232.671 262.635C232.655 262.753 232.696 262.461 232.668 262.661C232.623 262.982 232.576 263.3 232.528 263.621C232.426 264.269 232.312 264.914 232.185 265.559C231.931 266.846 231.626 268.124 231.27 269.388C230.914 270.653 230.511 271.902 230.059 273.135C229.831 273.761 229.589 274.384 229.335 275C229.281 275.134 229.224 275.27 229.167 275.404C229.224 275.27 229.135 275.48 229.116 275.518C229.078 275.604 229.043 275.69 229.005 275.776C228.878 276.071 228.744 276.367 228.611 276.662C227.521 279.052 226.254 281.359 224.818 283.558C224.1 284.658 223.34 285.732 222.543 286.774C222.517 286.806 222.492 286.841 222.467 286.873C222.479 286.853 222.546 286.768 222.467 286.873C222.416 286.939 222.365 287.003 222.314 287.07C222.212 287.2 222.108 287.33 222.003 287.46C221.793 287.721 221.583 287.978 221.371 288.236C220.951 288.741 220.522 289.237 220.084 289.726C218.33 291.677 216.424 293.495 214.384 295.148C214.133 295.351 213.879 295.551 213.625 295.751C213.327 295.983 213.361 296.53 213.625 296.768C213.943 297.057 214.324 297.016 214.642 296.768C216.739 295.135 218.699 293.333 220.51 291.388C222.34 289.421 224.014 287.308 225.523 285.087C227.032 282.865 228.341 280.574 229.484 278.175C230.628 275.776 231.616 273.237 232.391 270.663C233.167 268.089 233.716 265.537 234.072 262.912C234.123 262.537 234.17 262.165 234.215 261.79C234.259 261.415 233.853 261.053 233.497 261.072C233.071 261.091 232.823 261.39 232.779 261.79L232.776 261.8Z" fill="#465B64"/>
<path d="M190.568 248.533C191.445 258.724 192.03 268.94 192.312 279.166C192.598 289.393 192.586 299.625 192.277 309.851C191.969 320.077 191.366 330.291 190.467 340.482C189.561 350.759 188.354 361.011 186.848 371.218C185.342 381.425 183.563 391.413 181.482 401.429C181.225 402.668 180.961 403.908 180.694 405.144C180.501 406.046 181.886 406.434 182.083 405.525C184.246 395.474 186.117 385.362 187.69 375.203C189.256 365.081 190.533 354.913 191.515 344.715C192.5 334.482 193.189 324.221 193.577 313.948C193.964 303.674 194.057 293.39 193.847 283.113C193.637 272.836 193.129 262.562 192.319 252.314C192.22 251.053 192.115 249.791 192.007 248.529C191.928 247.614 190.489 247.605 190.568 248.529V248.533Z" fill="#465B64"/>
<path d="M227.227 345.249C226.712 353.622 226.471 362.015 226.512 370.404C226.554 378.752 226.871 387.097 227.462 395.423C227.796 400.114 228.218 404.801 228.727 409.475C228.768 409.863 229.028 410.194 229.445 410.194C229.8 410.194 230.207 409.863 230.163 409.475C229.257 401.134 228.625 392.763 228.272 384.38C227.923 376.039 227.85 367.687 228.053 359.342C228.168 354.639 228.371 349.939 228.66 345.246C228.685 344.858 228.314 344.528 227.942 344.528C227.532 344.528 227.246 344.858 227.224 345.246L227.227 345.249Z" fill="#465B64"/>
<path d="M162.57 422.374L181.009 423.807L179.917 434.539C179.917 434.539 204.722 437.421 196.926 447.51C194.003 451.295 161.227 447.253 161.227 447.253L162.57 422.371V422.374Z" fill="#ED9646"/>
<path d="M161.379 444.955L194.651 448.235C194.651 448.235 193.746 448.832 191.36 449.004C188.974 449.175 184.25 449.223 184.25 449.223L174.741 448.753L161.242 447.444L161.376 444.959L161.379 444.955Z" fill="#A2672D"/>
<path d="M221.684 423.623L241.651 424.011L240.104 434.094C240.104 434.094 265.068 434.615 258.263 445.4C255.712 449.446 222.7 448.521 222.7 448.521L221.684 423.623Z" fill="#ED9646"/>
<path d="M222.632 446.217L256.066 446.331C256.066 446.331 255.221 447.011 252.861 447.409C250.5 447.806 245.805 448.298 245.805 448.298L236.293 448.731L222.731 448.705L222.629 446.217H222.632Z" fill="#A2672D"/>
<path d="M404.44 370.789H285.695V358.815H404.44V370.789Z" fill="#BCBEC0"/>
<path d="M294.179 370.789H397.779V445.375C397.779 448.546 395.206 451.12 392.035 451.12H299.92C296.749 451.12 294.176 448.546 294.176 445.375V370.789H294.179Z" fill="#BCBEC0"/>
<path d="M397.78 370.789H294.18V373.608H397.78V370.789Z" fill="#939598"/>
<path d="M338.448 358.818C338.448 358.818 316.876 315.219 330.359 299.45C343.842 283.679 351.483 308.488 351.483 308.488C351.483 308.488 344.741 266.462 357.776 259.299C370.808 252.139 378.509 258.679 382.073 268.419C385.641 278.159 382.073 313.643 382.073 313.643C382.073 313.643 385.19 281.299 400.023 296.276C414.853 311.253 394.629 358.818 394.629 358.818H338.451H338.448Z" fill="#808285"/>
<path d="M298.476 358.818C298.476 358.818 280.685 326.862 291.804 315.301C302.924 303.74 309.224 321.927 309.224 321.927C309.224 321.927 303.664 291.121 314.412 285.875C325.159 280.625 331.51 285.42 334.452 292.561C337.394 299.701 334.452 325.709 334.452 325.709C334.452 325.709 337.022 302.002 349.253 312.982C361.484 323.961 344.805 358.821 344.805 358.821H298.473L298.476 358.818Z" fill="#A7A9AC"/>
<path d="M318.032 293.813C318.582 297.753 318.973 301.716 319.217 305.685C319.462 309.654 319.554 313.642 319.494 317.621C319.433 321.622 319.224 325.62 318.861 329.601C318.499 333.583 317.988 337.511 317.324 341.432C316.66 345.354 315.846 349.256 314.884 353.12C314.763 353.61 314.636 354.099 314.509 354.588C314.29 355.437 315.602 355.799 315.821 354.951C316.831 351.061 317.689 347.13 318.398 343.174C319.109 339.195 319.665 335.188 320.072 331.168C320.478 327.148 320.729 323.115 320.828 319.076C320.923 315.057 320.866 311.037 320.656 307.023C320.444 303.01 320.078 299.002 319.557 295.017C319.49 294.496 319.417 293.972 319.344 293.451C319.293 293.085 318.83 292.888 318.509 292.974C318.118 293.082 317.981 293.444 318.032 293.81V293.813Z" fill="#6D6E71"/>
<path d="M296.21 323.932C296.525 326.427 297.024 328.893 297.707 331.311C298.39 333.729 299.257 336.094 300.264 338.394C301.271 340.695 302.38 342.84 303.641 344.95C304.737 346.79 306.002 348.573 307.561 350.051C309.121 351.528 310.935 352.663 313.023 353.019C313.315 353.07 313.61 353.108 313.903 353.13C314.258 353.158 314.598 352.796 314.583 352.45C314.563 352.056 314.284 351.802 313.903 351.77C313.785 351.76 313.668 351.748 313.55 351.735C313.674 351.748 313.55 351.735 313.499 351.725C313.423 351.713 313.347 351.7 313.27 351.687C313.032 351.643 312.797 351.589 312.565 351.522C312.333 351.455 312.089 351.376 311.857 351.287C311.803 351.268 311.749 351.245 311.698 351.223C311.672 351.214 311.644 351.201 311.618 351.191C311.628 351.195 311.72 351.236 311.65 351.204C311.536 351.153 311.425 351.102 311.31 351.048C310.869 350.835 310.443 350.588 310.036 350.311C309.941 350.244 309.846 350.178 309.75 350.111C309.703 350.076 309.655 350.041 309.607 350.006C309.576 349.984 309.544 349.958 309.515 349.936C309.433 349.876 309.595 350 309.515 349.936C309.321 349.784 309.131 349.628 308.947 349.466C308.175 348.789 307.479 348.03 306.837 347.229C306.799 347.181 306.761 347.133 306.723 347.086C306.701 347.057 306.612 346.94 306.678 347.032C306.592 346.917 306.507 346.803 306.421 346.688C306.268 346.485 306.122 346.275 305.976 346.066C305.681 345.643 305.401 345.211 305.128 344.772C303.876 342.758 302.771 340.641 301.789 338.483C301.281 337.371 300.877 336.399 300.436 335.229C299.994 334.06 299.619 332.954 299.27 331.797C298.571 329.484 298.034 327.123 297.681 324.733C297.659 324.581 297.637 324.428 297.614 324.275C297.608 324.241 297.605 324.206 297.599 324.171C297.599 324.186 297.611 324.256 297.599 324.174C297.586 324.091 297.576 324.009 297.567 323.926C297.522 323.573 297.287 323.227 296.887 323.246C296.557 323.262 296.159 323.548 296.207 323.926L296.21 323.932Z" fill="#6D6E71"/>
<path d="M345.428 322.115C345.05 324.428 344.561 326.726 343.966 328.991C343.366 331.27 342.661 333.52 341.847 335.731C341.447 336.828 341.018 337.911 340.567 338.989C340.535 339.062 340.564 338.998 340.567 338.985C340.554 339.017 340.542 339.049 340.526 339.081C340.494 339.154 340.462 339.227 340.431 339.303C340.373 339.44 340.313 339.577 340.253 339.713C340.135 339.986 340.014 340.257 339.89 340.53C339.652 341.061 339.404 341.591 339.153 342.116C338.14 344.229 337.031 346.298 335.824 348.309C334.617 350.321 333.317 352.272 331.926 354.159C331.748 354.398 331.57 354.636 331.392 354.874C331.176 355.16 331.338 355.647 331.637 355.806C331.996 355.996 332.339 355.866 332.568 355.561C333.988 353.683 335.319 351.735 336.555 349.73C337.791 347.724 338.931 345.659 339.97 343.546C341.009 341.432 341.981 339.202 342.832 336.968C343.671 334.765 344.405 332.525 345.034 330.253C345.663 327.981 346.181 325.68 346.587 323.36C346.638 323.068 346.689 322.775 346.737 322.48C346.794 322.13 346.645 321.73 346.26 321.644C345.933 321.571 345.485 321.743 345.425 322.121L345.428 322.115Z" fill="#6D6E71"/>
<path d="M365.556 274.228C364.546 278.147 364.161 282.201 364.145 286.24C364.126 290.305 364.463 294.36 364.847 298.405C365.235 302.488 365.578 306.575 365.931 310.662C366.28 314.72 366.731 318.791 367.697 322.756C368.58 326.382 369.899 329.948 371.875 333.122C372.123 333.52 372.377 333.907 372.644 334.292C372.91 334.676 373.39 334.842 373.806 334.597C374.178 334.378 374.375 333.812 374.111 333.434C372.018 330.421 370.626 327.085 369.664 323.564C368.628 319.785 368.116 315.892 367.754 311.996C367.392 308.1 367.078 303.877 366.687 299.822C366.296 295.767 365.928 291.833 365.861 287.823C365.794 283.892 366.023 279.951 366.862 276.11C366.966 275.633 367.081 275.156 367.202 274.686C367.316 274.241 367.055 273.761 366.607 273.64C366.159 273.52 365.677 273.787 365.562 274.235L365.556 274.228Z" fill="#6D6E71"/>
<path d="M394.248 306.032C393.305 309.298 392.593 312.622 391.923 315.956C391.252 319.289 390.62 322.629 389.829 325.937C389.121 328.905 388.279 331.845 387.17 334.689C387.043 335.016 386.913 335.341 386.779 335.665C386.744 335.75 386.706 335.836 386.671 335.922C386.735 335.77 386.659 335.954 386.633 336.008C386.56 336.179 386.484 336.351 386.411 336.523C386.122 337.171 385.82 337.816 385.502 338.452C384.867 339.713 384.171 340.943 383.399 342.125C383.008 342.723 382.602 343.307 382.173 343.876C382.125 343.94 382.077 344.003 382.027 344.067C382.011 344.086 381.922 344.203 381.988 344.118C382.052 344.038 381.979 344.127 381.969 344.14C381.855 344.283 381.744 344.429 381.626 344.572C381.404 344.849 381.175 345.122 380.94 345.389C380.012 346.453 379.008 347.448 377.925 348.35C377.801 348.455 377.677 348.557 377.55 348.656C377.477 348.713 377.404 348.77 377.334 348.827C377.322 348.837 377.233 348.907 377.312 348.846C377.414 348.767 377.233 348.907 377.233 348.907C377.048 349.046 376.905 349.183 376.842 349.415C376.785 349.618 376.81 349.888 376.928 350.07C377.153 350.419 377.712 350.664 378.09 350.375C380.444 348.576 382.459 346.425 384.168 344.006C385.855 341.623 387.199 339.024 388.326 336.335C389.454 333.647 390.376 330.726 391.113 327.835C391.964 324.501 392.625 321.12 393.295 317.745C393.966 314.37 394.645 311.024 395.541 307.716C395.653 307.3 395.77 306.886 395.888 306.473C396.005 306.06 395.738 305.53 395.294 305.428C394.849 305.326 394.379 305.565 394.248 306.022V306.032Z" fill="#6D6E71"/>
<path d="M353.716 338.715C354.295 340.212 355.219 341.493 356.242 342.716C357.154 343.806 358.135 344.842 359.206 345.777C361.474 347.756 364.153 349.329 367.126 349.933C368.864 350.286 370.637 350.314 372.375 349.955C372.81 349.863 373.105 349.326 372.969 348.91C372.819 348.449 372.39 348.217 371.923 348.316C371.752 348.351 371.583 348.382 371.412 348.411C371.332 348.424 371.253 348.436 371.17 348.446C371.386 348.42 371.062 348.455 371.018 348.462C370.662 348.5 370.303 348.519 369.944 348.519C369.585 348.519 369.252 348.509 368.905 348.481C368.731 348.468 368.559 348.449 368.387 348.43C368.352 348.427 368.318 348.424 368.283 348.417C368.461 348.455 368.343 348.427 368.302 348.417C368.2 348.401 368.095 348.386 367.993 348.37C367.295 348.252 366.602 348.074 365.928 347.852C365.604 347.744 365.249 347.645 364.947 347.483C365.122 347.575 364.867 347.448 364.829 347.432C364.756 347.4 364.68 347.365 364.607 347.33C364.438 347.251 364.27 347.172 364.105 347.089C363.492 346.778 362.898 346.428 362.326 346.047C362.037 345.853 361.751 345.653 361.474 345.443C361.411 345.395 361.347 345.351 361.287 345.3C361.446 345.427 361.223 345.249 361.195 345.224C361.055 345.112 360.915 344.998 360.775 344.884C359.721 344 358.749 343.018 357.846 341.979C357.592 341.687 357.344 341.388 357.1 341.086C357.033 341.003 356.969 340.921 356.903 340.841C356.842 340.765 356.922 340.867 356.928 340.876C356.893 340.829 356.858 340.784 356.823 340.737C356.703 340.578 356.588 340.419 356.474 340.257C356.242 339.923 356.023 339.58 355.823 339.227C355.727 339.055 355.635 338.881 355.549 338.703C355.508 338.62 355.47 338.534 355.432 338.452C355.365 338.306 355.422 338.436 355.435 338.464C355.403 338.401 355.384 338.334 355.359 338.271C355.2 337.857 354.781 337.524 354.314 337.676C353.91 337.807 353.548 338.277 353.719 338.722L353.716 338.715Z" fill="#6D6E71"/>
<path d="M224.679 64.0232C223.319 67.3726 212.978 66.2158 208.854 67.2995C206.405 67.9414 206.249 70.3915 206.526 72.2759C206.875 74.6656 206.942 77.0871 206.615 79.4768C206.214 82.3972 205.544 85.6354 204.496 86.1597C202.526 87.1448 202.539 85.467 202.539 85.467C202.539 85.467 202.227 83.6334 201.43 82.108L201.424 82.1017C196.185 75.638 188.42 91.1171 200.267 93.5354L199.632 101.251C192.973 90.5228 184.922 83.805 183.277 76.21C182.838 74.1762 182.829 72.4157 183.385 71.0175C183.664 70.4074 184.027 69.864 184.433 69.4032C184.44 69.3936 184.449 69.3809 184.465 69.3714C184.541 69.2792 184.627 69.1903 184.713 69.1045C186.279 67.5473 190.59 65.2498 191.994 63.5465L195.549 56.6094C202.116 48.6617 219.513 45.5443 222.318 49.1669C225.12 52.7865 226.039 60.6706 224.679 64.02V64.0232Z" fill="#231F20"/>
<path d="M183.277 76.2069C182.505 74.3002 182.708 72.4762 183.385 71.0176C182.829 72.4158 182.838 74.1763 183.277 76.2069Z" fill="#231F20"/>
</g>
<defs>
<clipPath id="clip0_3075_49881">
<rect width="452" height="464" fill="white" transform="translate(0.5)"/>
</clipPath>
</defs>
</svg>
