<svg width="89" height="89" viewBox="0 0 89 89" fill="none" xmlns="http://www.w3.org/2000/svg">
<path d="M66.5556 11.5557H22.5556C14.4554 11.5557 7.88892 18.1222 7.88892 26.2223V62.889C7.88892 70.9892 14.4554 77.5557 22.5556 77.5557H66.5556C74.6558 77.5557 81.2222 70.9892 81.2222 62.889V26.2223C81.2222 18.1222 74.6558 11.5557 66.5556 11.5557Z" fill="#272727"/>
<path fillRule="evenodd" clipRule="evenodd" d="M20.2677 28.364C21.1102 27.1003 22.8176 26.7588 24.0813 27.6013L37.9457 36.8442C41.9485 39.5128 47.1632 39.5128 51.166 36.8442L65.0304 27.6013C66.2941 26.7588 68.0015 27.1003 68.844 28.364C69.6864 29.6277 69.345 31.3351 68.0813 32.1776L54.2169 41.4205C48.3666 45.3207 40.7451 45.3207 34.8948 41.4205L21.0304 32.1776C19.7667 31.3351 19.4252 29.6277 20.2677 28.364Z" fill="#EDEDED"/>
<path fillRule="evenodd" clipRule="evenodd" d="M5.13892 55.5557C5.13892 54.0369 6.37013 52.8057 7.88892 52.8057H29.8889C31.4077 52.8057 32.6389 54.0369 32.6389 55.5557C32.6389 57.0744 31.4077 58.3057 29.8889 58.3057H7.88892C6.37013 58.3057 5.13892 57.0744 5.13892 55.5557Z" fill="#EDEDED"/>
<path fillRule="evenodd" clipRule="evenodd" d="M5.13892 66.5557C5.13892 65.0369 6.37013 63.8057 7.88892 63.8057H29.8889C31.4077 63.8057 32.6389 65.0369 32.6389 66.5557C32.6389 68.0744 31.4077 69.3057 29.8889 69.3057H7.88892C6.37013 69.3057 5.13892 68.0744 5.13892 66.5557Z" fill="#EDEDED"/>
</svg>
