<svg width="89" height="89" viewBox="0 0 89 89" fill="none" xmlns="http://www.w3.org/2000/svg">
<path d="M38.3769 10.5366L20.0516 18.6812C14.751 21.037 11.253 26.3127 11.5903 32.1035C12.9089 54.7423 19.5384 64.7088 36.7649 76.3713C41.3284 79.4609 47.3438 79.4684 51.904 76.3739C69.1834 64.6479 75.5757 54.5405 77.0102 32.1819C77.3842 26.3529 73.8806 21.0211 68.543 18.6489L50.2903 10.5366C46.498 8.85109 42.1692 8.8511 38.3769 10.5366Z" fill="#272727"/>
<path fillRule="evenodd" clipRule="evenodd" d="M57.1444 35.1526C58.2874 36.1527 58.4032 37.8901 57.4031 39.0331L46.8801 51.0594C44.6189 53.6436 40.724 53.9896 38.0426 51.8445L31.6156 46.7029C30.4296 45.7542 30.2373 44.0236 31.1861 42.8376C32.1349 41.6517 33.8654 41.4594 35.0514 42.4081L41.4784 47.5498C41.8615 47.8562 42.4179 47.8068 42.7409 47.4376L53.2639 35.4113C54.264 34.2683 56.0014 34.1525 57.1444 35.1526Z" fill="#EDEDED"/>
</svg>
