<svg width="41" height="40" viewBox="0 0 41 40" fill="none" xmlns="http://www.w3.org/2000/svg">
<circle cx="20.5" cy="20" r="19.5" stroke="white"/>
<path d="M15.4399 12C15.4397 12.5305 15.2287 13.0391 14.8534 13.4139C14.4782 13.7888 13.9694 13.9993 13.4389 13.999C12.9085 13.9988 12.3999 13.7878 12.025 13.4125C11.6501 13.0373 11.4397 12.5285 11.4399 11.998C11.4402 11.4676 11.6512 10.959 12.0264 10.5841C12.4017 10.2092 12.9105 9.99876 13.4409 9.99902C13.9714 9.99929 14.48 10.2103 14.8549 10.5855C15.2297 10.9608 15.4402 11.4696 15.4399 12ZM15.4999 15.48H11.4999V28H15.4999V15.48ZM21.8199 15.48H17.8399V28H21.7799V21.43C21.7799 17.77 26.5499 17.43 26.5499 21.43V28H30.4999V20.07C30.4999 13.9 23.4399 14.13 21.7799 17.16L21.8199 15.48Z" fill="white"/>
</svg>
