<svg width="960" height="673" viewBox="0 0 960 673" fill="none" xmlns="http://www.w3.org/2000/svg">
<path d="M283.283 422.5C256.655 417.547 179.994 419 149.982 439.388C78.9282 487.654 284.786 483.96 204.902 504.39C125.018 524.819 -88.9783 570.389 43.4946 604C76.996 612.5 394.626 587.964 339.706 625.108C284.786 662.252 400.496 696 466.496 648C520.346 608.837 604.439 645.238 650.92 636.251C750.496 617 734.132 582.392 677.548 563.82C620.964 545.248 639.27 504.39 744.118 504.39C848.965 504.39 1038.69 448.674 922.192 422.673C805.695 396.672 821.08 428.5 681.283 441.5" stroke="black" strokeLinecap="round" strokeLinejoin="round"/>
<path fillRule="evenodd" clipRule="evenodd" d="M549.29 172.337L675.007 223.363C682.586 226.44 682.463 237.215 674.815 240.117L594.153 270.726L594.128 270.736L594.103 270.744L478.657 307.704V386.326H476.657V307.668L281.076 234.765C281.026 236.173 281.015 238.52 281.041 241.738C281.078 246.264 281.187 252.417 281.348 259.862C281.623 272.562 282.05 289.009 282.531 307.533C282.614 310.729 282.698 313.986 282.784 317.296C283.949 362.294 285.316 417.126 285.62 460.207C285.641 463.076 287.404 465.619 290.084 466.663L480.558 540.882L478.658 422.501L480.658 422.469L482.558 540.863L682.829 457.256C683.339 457.043 683.924 457.284 684.137 457.793C684.35 458.303 684.109 458.888 683.6 459.101L481.967 543.277L481.594 543.433L481.218 543.286L289.358 468.527C285.921 467.188 283.647 463.917 283.62 460.221C283.317 417.162 281.949 362.35 280.785 317.347C280.699 314.038 280.615 310.781 280.532 307.586C280.051 289.062 279.624 272.61 279.349 259.905C279.187 252.458 279.078 246.294 279.041 241.754C279.005 237.261 279.037 234.261 279.176 233.226C279.275 232.485 279.695 231.738 280.231 231.029C280.784 230.297 281.543 229.5 282.465 228.651C284.312 226.95 286.903 224.957 290.049 222.757C296.349 218.351 304.975 213.042 314.575 207.461C333.782 196.296 356.962 183.999 373.4 175.588L374.311 177.369C357.89 185.771 334.744 198.05 315.581 209.191C305.996 214.762 297.426 220.038 291.196 224.395C288.077 226.576 285.57 228.509 283.82 230.122C282.944 230.929 282.28 231.635 281.827 232.235C281.674 232.436 281.554 232.615 281.459 232.774L477.682 305.916L593.468 268.847L674.105 238.247C680.054 235.99 680.15 227.609 674.255 225.216L548.537 174.19L549.29 172.337ZM680 233.008C680.414 233.009 680.749 233.346 680.748 233.76L680.427 339.979C680.426 340.394 680.089 340.728 679.675 340.727C679.261 340.726 678.926 340.389 678.927 339.975L679.248 233.756C679.249 233.342 679.586 233.007 680 233.008ZM681.337 402.231C681.752 402.231 682.087 402.566 682.087 402.981V458.939C682.087 459.353 681.752 459.689 681.337 459.689C680.923 459.689 680.587 459.353 680.587 458.939V402.981C680.587 402.566 680.923 402.231 681.337 402.231Z" fill="black"/>
<path d="M675.007 223.363L673.878 226.143L675.007 223.363ZM549.29 172.337L550.418 169.557C549.681 169.258 548.855 169.263 548.122 169.573C547.389 169.883 546.809 170.471 546.51 171.208L549.29 172.337ZM674.815 240.117L673.751 237.312L674.815 240.117ZM594.153 270.726L593.089 267.921L593.088 267.922L594.153 270.726ZM594.128 270.736L595.043 273.593C595.093 273.577 595.144 273.559 595.193 273.54L594.128 270.736ZM594.103 270.744L593.189 267.886L593.188 267.887L594.103 270.744ZM478.657 307.704L477.743 304.847C476.5 305.244 475.657 306.399 475.657 307.704H478.657ZM478.657 386.326V389.326C480.314 389.326 481.657 387.983 481.657 386.326H478.657ZM476.657 386.326H473.657C473.657 387.983 475.001 389.326 476.657 389.326V386.326ZM476.657 307.668H479.657C479.657 306.416 478.879 305.295 477.705 304.857L476.657 307.668ZM281.076 234.765L282.123 231.954C281.22 231.617 280.209 231.735 279.408 232.271C278.606 232.808 278.111 233.697 278.077 234.66L281.076 234.765ZM281.041 241.738L278.041 241.762L281.041 241.738ZM281.348 259.862L278.349 259.927L281.348 259.862ZM282.531 307.533L279.532 307.611L282.531 307.533ZM282.784 317.296L279.785 317.373H279.785L282.784 317.296ZM285.62 460.207L288.62 460.186L285.62 460.207ZM290.084 466.663L291.173 463.868H291.173L290.084 466.663ZM480.558 540.882L479.469 543.678C480.4 544.04 481.45 543.916 482.271 543.345C483.091 542.775 483.573 541.833 483.557 540.834L480.558 540.882ZM478.658 422.501L478.61 419.501C476.953 419.528 475.632 420.892 475.658 422.549L478.658 422.501ZM480.658 422.469L483.657 422.42C483.645 421.625 483.316 420.867 482.745 420.313C482.173 419.76 481.405 419.456 480.61 419.469L480.658 422.469ZM482.558 540.863L479.558 540.911C479.574 541.906 480.082 542.828 480.915 543.373C481.747 543.918 482.795 544.015 483.713 543.632L482.558 540.863ZM682.829 457.256L681.673 454.487H681.673L682.829 457.256ZM683.6 459.101L682.444 456.333H682.444L683.6 459.101ZM481.967 543.277L483.122 546.046L483.123 546.046L481.967 543.277ZM481.594 543.433L480.505 546.228C481.229 546.51 482.033 546.5 482.75 546.201L481.594 543.433ZM481.218 543.286L480.129 546.082L480.129 546.082L481.218 543.286ZM289.358 468.527L290.447 465.732H290.447L289.358 468.527ZM283.62 460.221L286.62 460.2L283.62 460.221ZM280.785 317.347L283.784 317.27L280.785 317.347ZM280.532 307.586L283.531 307.508L280.532 307.586ZM279.349 259.905L276.349 259.97L279.349 259.905ZM279.041 241.754L282.041 241.73L279.041 241.754ZM279.176 233.226L282.149 233.625L279.176 233.226ZM280.231 231.029L282.624 232.838H282.624L280.231 231.029ZM282.465 228.651L284.498 230.857H284.498L282.465 228.651ZM290.049 222.757L291.769 225.215H291.769L290.049 222.757ZM314.575 207.461L316.083 210.055L314.575 207.461ZM373.4 175.588L376.071 174.222C375.708 173.514 375.08 172.978 374.322 172.734C373.565 172.489 372.742 172.555 372.034 172.918L373.4 175.588ZM374.311 177.369L375.678 180.04C377.153 179.285 377.737 177.477 376.982 176.002L374.311 177.369ZM315.581 209.191L317.088 211.784L315.581 209.191ZM291.196 224.395L292.915 226.854H292.915L291.196 224.395ZM283.82 230.122L285.853 232.328L285.853 232.328L283.82 230.122ZM281.827 232.235L284.22 234.044L284.22 234.044L281.827 232.235ZM281.459 232.774L278.885 231.233C278.427 231.998 278.333 232.926 278.628 233.767C278.923 234.607 279.576 235.273 280.411 235.585L281.459 232.774ZM477.682 305.916L476.634 308.727C477.265 308.962 477.956 308.978 478.597 308.773L477.682 305.916ZM593.468 268.847L594.383 271.704C594.433 271.688 594.483 271.671 594.532 271.652L593.468 268.847ZM674.105 238.247L673.041 235.442L674.105 238.247ZM674.255 225.216L675.383 222.437L674.255 225.216ZM548.537 174.19L545.758 173.061C545.135 174.597 545.874 176.346 547.409 176.969L548.537 174.19ZM680.748 233.76L683.748 233.769L680.748 233.76ZM680.427 339.979L683.427 339.988L680.427 339.979ZM678.927 339.975L681.927 339.984L678.927 339.975ZM679.248 233.756L682.248 233.765L679.248 233.756ZM676.135 220.584L550.418 169.557L548.161 175.116L673.878 226.143L676.135 220.584ZM675.879 242.922C686.077 239.052 686.241 224.686 676.135 220.584L673.878 226.143C678.932 228.194 678.849 235.377 673.751 237.312L675.879 242.922ZM595.217 273.531L675.879 242.922L673.751 237.312L593.089 267.921L595.217 273.531ZM595.193 273.54L595.218 273.531L593.088 267.922L593.063 267.931L595.193 273.54ZM595.017 273.601L595.043 273.593L593.214 267.878L593.189 267.886L595.017 273.601ZM479.572 310.561L595.018 273.601L593.188 267.887L477.743 304.847L479.572 310.561ZM481.657 386.326V307.704H475.657V386.326H481.657ZM476.657 389.326H478.657V383.326H476.657V389.326ZM473.657 307.668V386.326H479.657V307.668H473.657ZM280.028 237.576L475.61 310.48L477.705 304.857L282.123 231.954L280.028 237.576ZM284.041 241.713C284.015 238.498 284.027 236.207 284.074 234.87L278.077 234.66C278.026 236.138 278.015 238.542 278.041 241.762L284.041 241.713ZM284.347 259.797C284.186 252.355 284.078 246.219 284.041 241.713L278.041 241.762C278.078 246.309 278.188 252.479 278.349 259.927L284.347 259.797ZM285.53 307.456C285.049 288.928 284.622 272.489 284.347 259.797L278.349 259.927C278.624 272.635 279.051 289.089 279.532 307.611L285.53 307.456ZM285.783 317.218C285.697 313.908 285.613 310.651 285.53 307.456L279.532 307.611C279.615 310.806 279.699 314.063 279.785 317.373L285.783 317.218ZM288.62 460.186C288.316 417.072 286.947 362.212 285.783 317.218L279.785 317.373C280.95 362.377 282.317 417.18 282.62 460.228L288.62 460.186ZM291.173 463.868C289.628 463.266 288.632 461.816 288.62 460.186L282.62 460.228C282.649 464.337 285.18 467.972 288.995 469.459L291.173 463.868ZM481.647 538.087L291.173 463.868L288.995 469.459L479.469 543.678L481.647 538.087ZM475.658 422.549L477.558 540.931L483.557 540.834L481.658 422.453L475.658 422.549ZM480.61 419.469L478.61 419.501L478.706 425.5L480.706 425.468L480.61 419.469ZM485.557 540.815L483.657 422.42L477.658 422.517L479.558 540.911L485.557 540.815ZM681.673 454.487L481.402 538.095L483.713 543.632L683.985 460.024L681.673 454.487ZM686.906 456.637C686.055 454.599 683.712 453.636 681.673 454.487L683.985 460.024C682.966 460.45 681.794 459.968 681.369 458.949L686.906 456.637ZM684.755 461.87C686.794 461.019 687.757 458.676 686.906 456.637L681.369 458.949C680.943 457.93 681.425 456.758 682.444 456.333L684.755 461.87ZM483.123 546.046L684.755 461.87L682.444 456.333L480.811 540.509L483.123 546.046ZM482.75 546.201L483.122 546.046L480.811 540.509L480.439 540.664L482.75 546.201ZM480.129 546.082L480.505 546.228L482.684 540.637L482.308 540.491L480.129 546.082ZM288.269 471.322L480.129 546.082L482.308 540.491L290.447 465.732L288.269 471.322ZM280.621 460.242C280.655 465.177 283.697 469.541 288.269 471.322L290.447 465.732C288.145 464.835 286.638 462.656 286.62 460.2L280.621 460.242ZM277.786 317.425C278.95 362.433 280.317 417.217 280.621 460.242L286.62 460.2C286.316 417.108 284.948 362.267 283.784 317.27L277.786 317.425ZM277.533 307.664C277.616 310.859 277.7 314.116 277.786 317.425L283.784 317.27C283.698 313.96 283.614 310.703 283.531 307.508L277.533 307.664ZM276.349 259.97C276.624 272.683 277.052 289.142 277.533 307.664L283.531 307.508C283.05 288.982 282.623 272.537 282.348 259.841L276.349 259.97ZM276.041 241.779C276.079 246.34 276.188 252.52 276.349 259.97L282.348 259.841C282.187 252.396 282.078 246.249 282.041 241.73L276.041 241.779ZM276.202 232.827C276.027 234.128 276.006 237.403 276.041 241.779L282.041 241.73C282.004 237.118 282.046 234.393 282.149 233.625L276.202 232.827ZM277.838 229.22C277.201 230.062 276.405 231.313 276.202 232.827L282.149 233.625C282.143 233.668 282.142 233.618 282.222 233.459C282.3 233.302 282.429 233.096 282.624 232.838L277.838 229.22ZM280.432 226.444C279.44 227.358 278.54 228.291 277.838 229.22L282.624 232.838C283.028 232.304 283.645 231.643 284.498 230.857L280.432 226.444ZM288.33 220.298C285.14 222.529 282.424 224.61 280.432 226.444L284.498 230.857C286.2 229.289 288.665 227.386 291.769 225.215L288.33 220.298ZM313.068 204.868C303.444 210.462 294.732 215.821 288.33 220.298L291.769 225.215C297.965 220.882 306.506 215.622 316.083 210.055L313.068 204.868ZM372.034 172.918C355.57 181.341 332.338 193.666 313.068 204.868L316.083 210.055C335.226 198.927 358.354 186.657 374.767 178.259L372.034 172.918ZM376.982 176.002L376.071 174.222L370.729 176.955L371.64 178.735L376.982 176.002ZM317.088 211.784C336.188 200.681 359.282 188.428 375.678 180.04L372.945 174.698C356.498 183.113 333.301 195.419 314.073 206.597L317.088 211.784ZM292.915 226.854C299.042 222.569 307.527 217.342 317.088 211.784L314.073 206.597C304.465 212.182 295.81 217.508 289.476 221.937L292.915 226.854ZM285.853 232.328C287.458 230.849 289.84 229.005 292.915 226.854L289.476 221.937C286.315 224.148 283.682 226.17 281.787 227.915L285.853 232.328ZM284.22 234.044C284.524 233.642 285.046 233.071 285.853 232.328L281.787 227.915C280.842 228.786 280.036 229.628 279.433 230.426L284.22 234.044ZM284.033 234.314C284.065 234.261 284.123 234.171 284.22 234.044L279.433 230.426C279.225 230.701 279.042 230.97 278.885 231.233L284.033 234.314ZM478.73 303.105L282.507 229.962L280.411 235.585L476.634 308.727L478.73 303.105ZM592.553 265.99L476.768 303.059L478.597 308.773L594.383 271.704L592.553 265.99ZM673.041 235.442L592.404 266.042L594.532 271.652L675.17 241.052L673.041 235.442ZM673.126 227.996C676.495 229.364 676.44 234.152 673.041 235.442L675.17 241.052C683.668 237.827 683.805 225.855 675.383 222.437L673.126 227.996ZM547.409 176.969L673.126 227.996L675.383 222.437L549.666 171.41L547.409 176.969ZM546.51 171.208L545.758 173.061L551.317 175.318L552.069 173.465L546.51 171.208ZM683.748 233.769C683.754 231.698 682.08 230.014 680.009 230.008L679.991 236.008C678.748 236.004 677.744 234.994 677.748 233.751L683.748 233.769ZM683.427 339.988L683.748 233.769L677.748 233.751L677.427 339.97L683.427 339.988ZM679.666 343.727C681.737 343.733 683.421 342.059 683.427 339.988L677.427 339.97C677.431 338.728 678.441 337.723 679.684 337.727L679.666 343.727ZM675.927 339.966C675.921 342.037 677.595 343.721 679.666 343.727L679.684 337.727C680.927 337.731 681.931 338.741 681.927 339.984L675.927 339.966ZM676.248 233.747L675.927 339.966L681.927 339.984L682.248 233.765L676.248 233.747ZM680.009 230.008C677.938 230.002 676.254 231.676 676.248 233.747L682.248 233.765C682.244 235.007 681.233 236.012 679.991 236.008L680.009 230.008ZM685.087 402.981C685.087 400.91 683.408 399.231 681.337 399.231V405.231C680.095 405.231 679.087 404.223 679.087 402.981H685.087ZM685.087 458.939V402.981H679.087V458.939H685.087ZM681.337 462.689C683.408 462.689 685.087 461.01 685.087 458.939H679.087C679.087 457.697 680.095 456.689 681.337 456.689V462.689ZM677.587 458.939C677.587 461.01 679.266 462.689 681.337 462.689V456.689C682.58 456.689 683.587 457.697 683.587 458.939H677.587ZM677.587 402.981V458.939H683.587V402.981H677.587ZM681.337 399.231C679.266 399.231 677.587 400.91 677.587 402.981H683.587C683.587 404.223 682.58 405.231 681.337 405.231V399.231Z" fill="black"/>
<path d="M413.625 523.994V576.207C413.625 581.725 419.11 585.646 424.501 584.466C439.195 581.249 459.421 580.142 469.637 591" stroke="black" strokeWidth="22" strokeLinecap="round"/>
<path d="M573.656 512.993V543.678C573.656 549.38 579.545 553.349 585.189 552.539C592.641 551.47 600.987 552.155 605.663 557.997" stroke="black" strokeWidth="22" strokeLinecap="round"/>
<path d="M665.283 397.312C665.96 396.438 665.8 395.182 664.927 394.506C664.054 393.829 662.798 393.988 662.121 394.862L665.283 397.312ZM658.236 421.7L656.98 423.257H656.98L658.236 421.7ZM662.121 394.862C659.757 397.913 656.333 402.97 654.485 408.147C652.68 413.207 652.096 419.316 656.98 423.257L659.492 420.143C656.733 417.918 656.57 414.206 658.252 409.492C659.892 404.896 663.022 400.229 665.283 397.312L662.121 394.862ZM656.98 423.257C659.815 425.543 663 426.195 665.892 425.238C668.723 424.301 670.919 421.939 672.125 418.895C674.555 412.761 673.164 403.649 665.184 394.751L662.206 397.422C669.473 405.524 670.129 413.072 668.406 417.422C667.536 419.619 666.106 420.954 664.635 421.441C663.225 421.908 661.434 421.71 659.492 420.143L656.98 423.257Z" fill="black"/>
<path d="M456.258 481.202C457.361 481.152 458.215 480.216 458.164 479.113C458.114 478.01 457.178 477.156 456.075 477.207L456.258 481.202ZM441.795 486.938L439.795 486.984L441.795 486.938ZM456.075 477.207C453.643 477.318 449.772 477.74 446.46 478.992C443.267 480.2 439.695 482.569 439.795 486.984L443.795 486.893C443.756 485.203 445.022 483.813 447.876 482.733C450.61 481.699 453.995 481.306 456.258 481.202L456.075 477.207ZM439.795 486.984C439.852 489.465 440.927 491.496 442.798 492.635C444.614 493.74 446.861 493.812 448.954 493.101C453.184 491.665 457.093 487.041 458.145 479.477L454.182 478.926C453.277 485.433 450.088 488.492 447.667 489.314C446.434 489.733 445.467 489.577 444.878 489.219C444.345 488.894 443.825 488.227 443.795 486.893L439.795 486.984Z" fill="black"/>
<path d="M498.968 434.929C498.863 439.627 497.679 449.471 491.572 449.475C483.938 449.48 484.946 437.218 498.971 434.932" stroke="black" strokeWidth="4" strokeLinecap="round"/>
<path d="M655.534 327.835C660.092 326.685 669.897 325.204 671.528 331.088C673.566 338.443 661.476 340.737 655.536 327.831" stroke="black" strokeWidth="4" strokeLinecap="round"/>
<path d="M711.697 365.424C716.064 367.161 724.878 371.705 722.751 377.428C720.092 384.583 708.95 379.36 711.7 365.422" stroke="black" strokeWidth="4" strokeLinecap="round"/>
<path d="M523.922 356.645C515.329 371.395 517.251 397.818 523.923 398.331C536.189 399.274 526.875 365.623 532.969 371.395C539.063 377.167 529.762 403.141 540.667 401.217C551.572 399.293 540.346 370.433 547.402 366.906C553.047 364.084 563.118 356.645 555.353 344.78" stroke="black" strokeWidth="4"/>
<path d="M646.097 316.562C652.514 327.468 655.677 362.557 644.856 363.979C635.749 365.176 650.961 332.916 637.528 331.633C631.317 331.04 638.67 359.237 630.526 357.815C622.382 356.392 625.017 342.404 626.933 337.189C628.544 332.804 619.218 332.21 625.017 323.438" stroke="black" strokeWidth="4"/>
<path d="M522.387 351.881C530.074 357.866 547.755 363.938 556.98 340.337" stroke="black" strokeWidth="10" strokeLinecap="round"/>
<path d="M615.273 317.891C622.961 323.876 640.642 329.947 649.867 306.347" stroke="black" strokeWidth="10" strokeLinecap="round"/>
<path d="M580.259 402.247C598.773 377.919 623.601 385.393 634.795 407.685C643.16 424.342 618.881 404.881 615.272 402.247C602.289 392.768 582.56 416.18 572.994 432.202C569.981 437.249 564.738 437.301 565.706 431.503C566.875 424.5 570.814 414.659 580.259 402.247Z" stroke="black" strokeWidth="4"/>
<path fillRule="evenodd" clipRule="evenodd" d="M347.845 356.429C337.748 370.752 325.685 391.6 320.248 410.66C317.527 420.199 316.495 429.192 318.118 436.661C319.727 444.071 323.953 450.019 331.898 453.58C342.391 458.284 355.441 458.989 369.486 457.217C383.518 455.447 398.447 451.216 412.632 446.147C426.812 441.079 440.217 435.185 451.2 430.104C455.477 428.126 459.399 426.264 462.859 424.622C468.251 422.062 472.52 420.036 475.252 418.934C480.971 416.626 486.565 417.727 491.736 420.261C496.884 422.784 501.727 426.783 506.023 430.443C506.4 430.764 506.772 431.082 507.14 431.397C508.885 432.889 510.532 434.296 512.087 435.518C513.975 437.001 515.667 438.158 517.163 438.836C518.665 439.517 519.821 439.646 520.734 439.312C521.637 438.982 522.565 438.101 523.391 436.146C525.487 431.187 524 423.859 519.421 416.791C514.876 409.774 507.419 403.249 498.037 399.962C497.572 399.799 497.304 399.328 497.381 398.858C497.322 398.499 497.463 398.121 497.776 397.891C500.465 395.917 503.502 395.67 506.353 396.172C509.183 396.67 511.912 397.92 514.103 399.043C514.654 399.326 515.175 399.603 515.657 399.86L515.796 399.934C516.226 400.163 516.62 400.373 516.981 400.559C517.333 400.74 517.629 400.885 517.875 400.996C517.748 400.671 517.569 400.27 517.329 399.779C513.276 391.513 503.184 388.633 492.26 388.394C481.423 388.156 470.242 390.537 464.715 392.276C453.413 395.832 440.911 400.788 428.549 405.688C420.8 408.76 413.106 411.81 405.797 414.48C396.354 417.929 387.566 420.736 380.234 422.072C376.567 422.74 373.227 423.048 370.33 422.87C367.437 422.692 364.917 422.026 362.955 420.687C360.122 418.753 359.264 415.685 359.648 412.202C360.028 408.757 361.625 404.751 363.887 400.588C368.421 392.244 375.816 382.927 382.405 375.57C382.919 374.996 383.341 374.345 383.611 373.659C386.19 367.116 386.15 361.592 384.506 357.297C382.861 353 379.573 349.83 375.459 348.05C367.23 344.489 355.692 346.514 347.845 356.429ZM518.68 401.276C518.68 401.277 518.674 401.277 518.662 401.275C518.674 401.275 518.681 401.276 518.68 401.276ZM500.34 398.688C502.105 397.876 504.033 397.794 506.006 398.141C508.527 398.586 511.036 399.718 513.19 400.823C513.726 401.098 514.235 401.368 514.716 401.625L514.857 401.7C515.284 401.927 515.691 402.144 516.065 402.337C516.852 402.742 517.64 403.12 518.256 403.235C518.548 403.289 519.068 403.34 519.524 403.017C520.042 402.651 520.119 402.077 520.103 401.705C520.087 401.326 519.972 400.907 519.817 400.478C519.655 400.033 519.424 399.509 519.125 398.898C514.53 389.528 503.32 386.636 492.304 386.394C481.2 386.151 469.799 388.58 464.115 390.368C452.766 393.939 440.113 398.953 427.683 403.879C419.95 406.943 412.303 409.974 405.11 412.601C395.69 416.042 387.033 418.8 379.876 420.104C376.298 420.756 373.131 421.038 370.452 420.873C367.769 420.709 365.644 420.101 364.083 419.035C362.061 417.655 361.303 415.447 361.636 412.422C361.974 409.359 363.427 405.624 365.644 401.543C370.068 393.401 377.343 384.22 383.895 376.905C384.543 376.18 385.102 375.33 385.471 374.393C388.196 367.479 388.23 361.431 386.374 356.582C384.518 351.734 380.812 348.187 376.254 346.214C367.145 342.273 354.64 344.602 346.259 355.211L346.242 355.232L346.227 355.254C336.067 369.663 323.852 390.733 318.325 410.111C315.562 419.796 314.441 429.156 316.163 437.085C317.898 445.072 322.516 451.566 331.08 455.405C342.048 460.322 355.517 460.996 369.736 459.202C383.968 457.406 399.049 453.125 413.305 448.03C427.566 442.934 441.033 437.012 452.04 431.919C456.395 429.905 460.351 428.026 463.818 426.381C469.146 423.851 473.318 421.871 476 420.788C481.011 418.767 485.987 419.671 490.856 422.057C495.747 424.454 500.413 428.291 504.726 431.966C505.096 432.281 505.464 432.596 505.829 432.908C507.575 434.4 509.261 435.841 510.852 437.091C512.771 438.598 514.616 439.878 516.338 440.658C518.053 441.435 519.798 441.784 521.421 441.19C523.055 440.593 524.298 439.139 525.234 436.925C527.707 431.071 525.831 423.007 521.1 415.703C516.604 408.762 509.404 402.291 500.34 398.688Z" fill="black"/>
<path d="M320.248 410.66L321.21 410.934L320.248 410.66ZM347.845 356.429L347.061 355.809L347.044 355.831L347.028 355.853L347.845 356.429ZM318.118 436.661L319.095 436.448V436.448L318.118 436.661ZM331.898 453.58L332.307 452.668L331.898 453.58ZM369.486 457.217L369.361 456.225H369.361L369.486 457.217ZM412.632 446.147L412.968 447.089L412.632 446.147ZM451.2 430.104L450.781 429.197V429.197L451.2 430.104ZM462.859 424.622L462.43 423.718L462.859 424.622ZM475.252 418.934L475.626 419.861L475.252 418.934ZM491.736 420.261L492.176 419.363L491.736 420.261ZM506.023 430.443L505.374 431.205L505.374 431.205L506.023 430.443ZM507.14 431.397L507.79 430.637L507.14 431.397ZM512.087 435.518L512.705 434.731L512.087 435.518ZM517.163 438.836L516.75 439.747L517.163 438.836ZM520.734 439.312L520.39 438.373L520.734 439.312ZM523.391 436.146L522.47 435.757V435.757L523.391 436.146ZM519.421 416.791L518.582 417.334L519.421 416.791ZM498.037 399.962L498.368 399.018L498.368 399.018L498.037 399.962ZM497.381 398.858L498.367 399.019L498.394 398.859L498.368 398.698L497.381 398.858ZM497.776 397.891L498.368 398.697V398.697L497.776 397.891ZM506.353 396.172L506.179 397.157L506.353 396.172ZM514.103 399.043L513.647 399.933V399.933L514.103 399.043ZM515.657 399.86L516.128 398.977L516.127 398.977L515.657 399.86ZM515.796 399.934L516.267 399.052L516.267 399.052L515.796 399.934ZM516.981 400.559L517.439 399.67L517.439 399.67L516.981 400.559ZM517.875 400.996L517.464 401.908L519.694 402.914L518.807 400.633L517.875 400.996ZM517.329 399.779L516.431 400.219L516.431 400.219L517.329 399.779ZM492.26 388.394L492.238 389.394L492.26 388.394ZM464.715 392.276L464.415 391.322L464.715 392.276ZM428.549 405.688L428.917 406.618L428.549 405.688ZM405.797 414.48L406.14 415.419L405.797 414.48ZM380.234 422.072L380.413 423.056L380.234 422.072ZM370.33 422.87L370.269 423.868H370.269L370.33 422.87ZM362.955 420.687L363.519 419.861L362.955 420.687ZM359.648 412.202L360.642 412.312L359.648 412.202ZM363.887 400.588L363.008 400.111V400.111L363.887 400.588ZM382.405 375.57L381.66 374.903V374.903L382.405 375.57ZM383.611 373.659L384.541 374.026L384.541 374.026L383.611 373.659ZM384.506 357.297L385.44 356.94L384.506 357.297ZM375.459 348.05L375.062 348.967L375.459 348.05ZM518.68 401.276L519.458 401.905L519.461 401.901L518.68 401.276ZM518.662 401.275L518.646 400.275L518.548 402.269L518.662 401.275ZM500.34 398.688L499.922 397.78L497.802 398.755L499.971 399.617L500.34 398.688ZM506.006 398.141L505.832 399.126V399.126L506.006 398.141ZM513.19 400.823L513.647 399.933L513.19 400.823ZM514.716 401.625L515.187 400.742L515.187 400.742L514.716 401.625ZM514.857 401.7L515.327 400.817L515.327 400.817L514.857 401.7ZM516.065 402.337L515.607 403.226L515.607 403.226L516.065 402.337ZM518.256 403.235L518.439 402.252H518.439L518.256 403.235ZM519.524 403.017L520.102 403.833L520.102 403.833L519.524 403.017ZM520.103 401.705L521.102 401.663V401.663L520.103 401.705ZM519.817 400.478L518.877 400.819V400.819L519.817 400.478ZM519.125 398.898L520.022 398.458L519.125 398.898ZM492.304 386.394L492.326 385.394L492.304 386.394ZM464.115 390.368L463.815 389.414L464.115 390.368ZM427.683 403.879L428.052 404.809L427.683 403.879ZM405.11 412.601L404.767 411.662L405.11 412.601ZM379.876 420.104L379.696 419.121L379.876 420.104ZM370.452 420.873L370.391 421.872H370.391L370.452 420.873ZM364.083 419.035L363.519 419.861L364.083 419.035ZM361.636 412.422L360.642 412.312V412.312L361.636 412.422ZM365.644 401.543L366.523 402.021L365.644 401.543ZM383.895 376.905L383.15 376.237L383.895 376.905ZM385.471 374.393L384.541 374.026V374.026L385.471 374.393ZM386.374 356.582L387.308 356.225V356.225L386.374 356.582ZM376.254 346.214L376.651 345.296V345.296L376.254 346.214ZM346.259 355.211L345.475 354.591L345.475 354.591L346.259 355.211ZM346.242 355.232L345.458 354.612L345.441 354.634L345.425 354.656L346.242 355.232ZM346.227 355.254L345.41 354.678L345.41 354.678L346.227 355.254ZM318.325 410.111L317.363 409.837L318.325 410.111ZM316.163 437.085L317.14 436.873L316.163 437.085ZM331.08 455.405L331.489 454.493L331.08 455.405ZM369.736 459.202L369.611 458.21H369.611L369.736 459.202ZM413.305 448.03L412.968 447.089L413.305 448.03ZM452.04 431.919L451.62 431.012L452.04 431.919ZM463.818 426.381L464.247 427.284L463.818 426.381ZM476 420.788L475.626 419.861L476 420.788ZM490.856 422.057L491.296 421.159L490.856 422.057ZM504.726 431.966L504.077 432.727V432.727L504.726 431.966ZM505.829 432.908L505.179 433.668L505.829 432.908ZM510.852 437.091L511.47 436.304L510.852 437.091ZM516.338 440.658L515.925 441.569L516.338 440.658ZM521.421 441.19L521.078 440.251L521.421 441.19ZM525.234 436.925L524.313 436.536L525.234 436.925ZM521.1 415.703L521.939 415.16L521.1 415.703ZM321.21 410.934C326.603 392.028 338.595 371.286 348.663 357.006L347.028 355.853C336.901 370.218 324.767 391.172 319.287 410.386L321.21 410.934ZM319.095 436.448C317.522 429.21 318.51 420.401 321.21 410.934L319.287 410.386C316.545 419.997 315.468 429.174 317.14 436.873L319.095 436.448ZM332.307 452.668C324.671 449.245 320.642 443.57 319.095 436.448L317.14 436.873C318.813 444.572 323.234 450.792 331.489 454.493L332.307 452.668ZM369.361 456.225C355.402 457.986 342.563 457.265 332.307 452.668L331.489 454.493C342.219 459.303 355.479 459.993 369.611 458.21L369.361 456.225ZM412.295 445.205C398.147 450.261 383.294 454.467 369.361 456.225L369.611 458.21C383.743 456.426 398.748 452.17 412.968 447.089L412.295 445.205ZM450.781 429.197C439.81 434.272 426.435 440.152 412.295 445.205L412.968 447.089C427.189 442.007 440.625 436.099 451.62 431.012L450.781 429.197ZM462.43 423.718C458.97 425.361 455.052 427.221 450.781 429.197L451.62 431.012C455.902 429.031 459.828 427.167 463.287 425.525L462.43 423.718ZM474.878 418.006C472.11 419.123 467.808 421.166 462.43 423.718L463.287 425.525C468.695 422.958 472.929 420.949 475.626 419.861L474.878 418.006ZM492.176 419.363C486.854 416.755 480.951 415.556 474.878 418.006L475.626 419.861C480.991 417.697 486.276 418.699 491.296 421.159L492.176 419.363ZM506.672 429.682C502.384 426.029 497.452 421.949 492.176 419.363L491.296 421.159C496.316 423.619 501.07 427.537 505.374 431.205L506.672 429.682ZM507.79 430.637C507.422 430.322 507.049 430.004 506.672 429.682L505.374 431.205C505.75 431.525 506.122 431.843 506.49 432.157L507.79 430.637ZM512.705 434.731C511.169 433.525 509.539 432.132 507.79 430.637L506.49 432.157C508.231 433.646 509.895 435.068 511.47 436.304L512.705 434.731ZM517.576 437.925C516.192 437.299 514.578 436.202 512.705 434.731L511.47 436.304C513.373 437.799 515.141 439.018 516.75 439.747L517.576 437.925ZM520.39 438.373C519.832 438.578 518.971 438.557 517.576 437.925L516.75 439.747C518.36 440.477 519.81 440.715 521.078 440.251L520.39 438.373ZM522.47 435.757C521.7 437.581 520.928 438.176 520.39 438.373L521.078 440.251C522.345 439.788 523.431 438.621 524.313 436.536L522.47 435.757ZM518.582 417.334C523.084 424.285 524.377 431.244 522.47 435.757L524.313 436.536C526.597 431.129 524.916 423.434 520.261 416.247L518.582 417.334ZM497.706 400.905C506.86 404.113 514.146 410.486 518.582 417.334L520.261 416.247C515.606 409.061 507.977 402.385 498.368 399.018L497.706 400.905ZM496.394 398.697C496.24 399.637 496.776 400.579 497.706 400.906L498.368 399.018C498.366 399.017 498.367 399.017 498.368 399.018C498.368 399.019 498.368 399.019 498.368 399.018C498.367 399.017 498.368 399.017 498.367 399.019L496.394 398.697ZM497.184 397.085C496.557 397.546 496.278 398.303 496.393 399.018L498.368 398.698L498.368 398.697L497.184 397.085ZM506.526 395.187C503.501 394.654 500.16 394.901 497.184 397.085L498.368 398.697C500.77 396.934 503.503 396.685 506.179 397.157L506.526 395.187ZM514.559 398.154C512.35 397.02 509.511 395.713 506.526 395.187L506.179 397.157C508.855 397.628 511.474 398.819 513.647 399.933L514.559 398.154ZM516.127 398.977C515.645 398.72 515.118 398.44 514.559 398.154L513.647 399.933C514.19 400.212 514.705 400.486 515.187 400.742L516.127 398.977ZM516.267 399.052L516.128 398.977L515.186 400.742L515.326 400.817L516.267 399.052ZM517.439 399.67C517.085 399.488 516.699 399.282 516.267 399.052L515.326 400.817C515.754 401.045 516.154 401.258 516.523 401.448L517.439 399.67ZM518.286 400.084C518.061 399.983 517.782 399.847 517.439 399.67L516.523 401.448C516.884 401.634 517.197 401.787 517.464 401.908L518.286 400.084ZM516.431 400.219C516.664 400.694 516.83 401.069 516.943 401.359L518.807 400.633C518.667 400.274 518.475 399.845 518.227 399.339L516.431 400.219ZM492.238 389.394C503.116 389.632 512.648 392.505 516.431 400.219L518.227 399.339C513.903 390.521 503.253 387.635 492.282 387.394L492.238 389.394ZM465.016 393.23C470.464 391.516 481.534 389.159 492.238 389.394L492.282 387.394C481.311 387.154 470.021 389.558 464.415 391.322L465.016 393.23ZM428.917 406.618C441.288 401.714 453.755 396.773 465.016 393.23L464.415 391.322C453.072 394.891 440.534 399.862 428.18 404.759L428.917 406.618ZM406.14 415.419C413.464 412.744 421.171 409.689 428.917 406.618L428.18 404.759C420.429 407.831 412.748 410.876 405.453 413.54L406.14 415.419ZM380.413 423.056C387.833 421.704 396.686 418.872 406.14 415.419L405.453 413.54C396.022 416.986 387.3 419.768 380.055 421.088L380.413 423.056ZM370.269 423.868C373.275 424.052 376.701 423.732 380.413 423.056L380.055 421.088C376.432 421.748 373.179 422.043 370.391 421.872L370.269 423.868ZM362.391 421.513C364.554 422.989 367.271 423.684 370.269 423.868L370.391 421.872C367.603 421.7 365.28 421.064 363.519 419.861L362.391 421.513ZM358.654 412.093C358.245 415.802 359.152 419.302 362.391 421.513L363.519 419.861C361.093 418.205 360.283 415.568 360.642 412.312L358.654 412.093ZM363.008 400.111C360.725 404.314 359.055 408.455 358.654 412.093L360.642 412.312C361.001 409.058 362.526 405.187 364.766 401.066L363.008 400.111ZM381.66 374.903C375.052 382.281 367.597 391.665 363.008 400.111L364.766 401.066C369.245 392.822 376.58 383.573 383.15 376.237L381.66 374.903ZM382.68 373.293C382.46 373.852 382.107 374.403 381.66 374.903L383.15 376.237C383.731 375.588 384.221 374.837 384.541 374.026L382.68 373.293ZM383.572 357.655C385.11 361.673 385.187 366.934 382.68 373.293L384.541 374.026C387.193 367.297 387.19 361.512 385.44 356.94L383.572 357.655ZM375.062 348.967C378.953 350.651 382.033 353.633 383.572 357.655L385.44 356.94C383.69 352.367 380.192 349.008 375.856 347.132L375.062 348.967ZM348.63 357.05C356.21 347.472 367.269 345.595 375.062 348.967L375.856 347.132C367.191 343.382 355.175 345.556 347.061 355.809L348.63 357.05ZM517.903 400.647C518.022 400.501 518.152 400.424 518.213 400.392C518.283 400.355 518.343 400.334 518.378 400.323C518.449 400.301 518.506 400.291 518.53 400.288C518.584 400.279 518.626 400.278 518.641 400.277C518.678 400.276 518.706 400.277 518.718 400.277C518.746 400.278 518.766 400.281 518.776 400.282L518.548 402.269C518.57 402.271 518.6 402.274 518.634 402.275C518.648 402.276 518.679 402.277 518.717 402.276C518.733 402.275 518.776 402.273 518.83 402.265C518.855 402.261 518.912 402.252 518.982 402.23C519.018 402.218 519.078 402.197 519.148 402.16C519.209 402.128 519.339 402.052 519.458 401.905L517.903 400.647ZM518.679 402.275C518.661 402.275 518.635 402.275 518.601 402.273C518.589 402.272 518.554 402.269 518.509 402.261C518.497 402.259 518.428 402.248 518.346 402.218C518.327 402.212 518.179 402.163 518.032 402.037C517.957 401.974 517.78 401.805 517.709 401.513C517.623 401.159 517.742 400.848 517.9 400.651L519.461 401.901C519.619 401.704 519.738 401.393 519.652 401.039C519.581 400.747 519.403 400.578 519.329 400.515C519.181 400.389 519.033 400.34 519.015 400.334C518.932 400.304 518.863 400.293 518.85 400.291C518.804 400.282 518.766 400.279 518.75 400.278C518.711 400.275 518.675 400.275 518.646 400.275L518.679 402.275ZM500.758 399.596C502.284 398.894 503.992 398.802 505.832 399.126L506.179 397.157C504.074 396.786 501.926 396.857 499.922 397.78L500.758 399.596ZM505.832 399.126C508.199 399.543 510.597 400.617 512.734 401.713L513.647 399.933C511.474 398.819 508.855 397.628 506.179 397.157L505.832 399.126ZM512.734 401.713C513.262 401.983 513.765 402.251 514.246 402.507L515.187 400.742C514.705 400.486 514.19 400.212 513.647 399.933L512.734 401.713ZM514.246 402.507L514.386 402.582L515.327 400.817L515.187 400.742L514.246 402.507ZM514.386 402.582C514.811 402.809 515.225 403.029 515.607 403.226L516.523 401.448C516.156 401.259 515.756 401.046 515.327 400.817L514.386 402.582ZM515.607 403.226C516.368 403.618 517.287 404.072 518.073 404.218L518.439 402.252C517.992 402.169 517.336 401.867 516.523 401.448L515.607 403.226ZM518.073 404.218C518.432 404.285 519.302 404.399 520.102 403.833L518.946 402.201C518.891 402.24 518.825 402.263 518.735 402.272C518.64 402.281 518.538 402.27 518.439 402.252L518.073 404.218ZM520.102 403.833C521.03 403.177 521.124 402.171 521.102 401.663L519.104 401.748C519.109 401.851 519.098 401.953 519.069 402.034C519.045 402.103 519.011 402.155 518.946 402.201L520.102 403.833ZM521.102 401.663C521.08 401.131 520.924 400.598 520.757 400.136L518.877 400.819C519.021 401.215 519.095 401.521 519.104 401.748L521.102 401.663ZM520.757 400.136C520.578 399.645 520.33 399.085 520.022 398.458L518.227 399.339C518.518 399.932 518.732 400.421 518.877 400.819L520.757 400.136ZM520.022 398.458C515.156 388.535 503.388 385.637 492.326 385.394L492.282 387.394C503.253 387.635 513.903 390.521 518.227 399.339L520.022 398.458ZM492.326 385.394C481.089 385.148 469.577 387.601 463.815 389.414L464.415 391.322C470.021 389.558 481.311 387.154 492.282 387.394L492.326 385.394ZM463.815 389.414C452.425 392.998 439.736 398.027 427.315 402.949L428.052 404.809C440.491 399.879 453.108 394.88 464.415 391.322L463.815 389.414ZM427.315 402.949C419.579 406.015 411.945 409.04 404.767 411.662L405.453 413.54C412.662 410.908 420.321 407.872 428.052 404.809L427.315 402.949ZM404.767 411.662C395.358 415.099 386.767 417.832 379.696 419.121L380.055 421.088C387.3 419.768 396.022 416.986 405.453 413.54L404.767 411.662ZM379.696 419.121C376.163 419.764 373.083 420.033 370.514 419.875L370.391 421.872C373.179 422.043 376.432 421.748 380.055 421.088L379.696 419.121ZM370.514 419.875C367.936 419.717 366.007 419.138 364.646 418.209L363.519 419.861C365.28 421.064 367.603 421.7 370.391 421.872L370.514 419.875ZM364.646 418.209C363.028 417.105 362.322 415.326 362.63 412.531L360.642 412.312C360.283 415.569 361.093 418.205 363.519 419.861L364.646 418.209ZM362.63 412.531C362.947 409.66 364.328 406.061 366.523 402.021L364.766 401.066C362.526 405.187 361.001 409.058 360.642 412.312L362.63 412.531ZM366.523 402.021C370.892 393.98 378.107 384.866 384.64 377.572L383.15 376.237C376.58 383.573 369.245 392.822 364.766 401.066L366.523 402.021ZM384.64 377.572C385.355 376.773 385.983 375.823 386.402 374.76L384.541 374.026C384.221 374.837 383.731 375.588 383.15 376.237L384.64 377.572ZM386.402 374.76C389.2 367.661 389.27 361.351 387.308 356.225L385.44 356.94C387.19 361.512 387.193 367.297 384.541 374.026L386.402 374.76ZM387.308 356.225C385.347 351.101 381.431 347.365 376.651 345.296L375.856 347.132C380.192 349.008 383.69 352.367 385.44 356.94L387.308 356.225ZM376.651 345.296C367.106 341.166 354.122 343.644 345.475 354.591L347.044 355.831C355.158 345.559 367.185 343.38 375.856 347.132L376.651 345.296ZM345.475 354.591L345.458 354.612L347.027 355.852L347.044 355.831L345.475 354.591ZM345.425 354.656L345.41 354.678L347.044 355.831L347.06 355.809L345.425 354.656ZM345.41 354.678C335.219 369.129 322.935 390.305 317.363 409.837L319.287 410.386C324.77 391.162 336.914 370.197 347.044 355.831L345.41 354.678ZM317.363 409.837C314.58 419.594 313.414 429.139 315.186 437.297L317.14 436.873C315.468 429.174 316.545 419.997 319.287 410.386L317.363 409.837ZM315.186 437.297C316.984 445.573 321.797 452.34 330.671 456.318L331.489 454.493C323.234 450.792 318.813 444.572 317.14 436.873L315.186 437.297ZM330.671 456.318C341.876 461.34 355.556 461.999 369.862 460.194L369.611 458.21C355.479 459.993 342.219 459.303 331.489 454.493L330.671 456.318ZM369.862 460.194C384.193 458.386 399.349 454.08 413.642 448.972L412.968 447.089C398.748 452.171 383.743 456.426 369.611 458.21L369.862 460.194ZM413.642 448.972C427.943 443.861 441.441 437.925 452.46 432.827L451.62 431.012C440.625 436.099 427.189 442.007 412.968 447.089L413.642 448.972ZM452.46 432.827C456.82 430.81 460.78 428.93 464.247 427.284L463.389 425.477C459.922 427.123 455.97 428.999 451.62 431.012L452.46 432.827ZM464.247 427.284C469.59 424.747 473.727 422.784 476.374 421.716L475.626 419.861C472.909 420.957 468.703 422.955 463.389 425.477L464.247 427.284ZM476.374 421.716C481.031 419.837 485.699 420.643 490.416 422.955L491.296 421.159C486.276 418.699 480.991 417.697 475.626 419.861L476.374 421.716ZM490.416 422.955C495.179 425.289 499.756 429.045 504.077 432.727L505.374 431.205C501.07 427.537 496.316 423.619 491.296 421.159L490.416 422.955ZM504.077 432.727C504.447 433.042 504.814 433.356 505.179 433.668L506.479 432.148C506.114 431.836 505.745 431.521 505.374 431.205L504.077 432.727ZM505.179 433.668C506.922 435.157 508.624 436.612 510.234 437.877L511.47 436.304C509.898 435.07 508.229 433.644 506.479 432.148L505.179 433.668ZM510.234 437.877C512.169 439.397 514.09 440.738 515.925 441.569L516.75 439.747C515.141 439.018 513.373 437.799 511.47 436.304L510.234 437.877ZM515.925 441.569C517.747 442.394 519.786 442.854 521.765 442.13L521.078 440.251C519.81 440.715 518.36 440.476 516.75 439.747L515.925 441.569ZM521.765 442.13C523.765 441.398 525.165 439.657 526.155 437.314L524.313 436.536C523.431 438.621 522.345 439.787 521.078 440.251L521.765 442.13ZM526.155 437.314C528.818 431.013 526.747 422.581 521.939 415.16L520.261 416.247C524.916 423.434 526.597 431.129 524.313 436.536L526.155 437.314ZM521.939 415.16C517.339 408.058 509.981 401.445 500.71 397.759L499.971 399.617C508.827 403.138 515.868 409.467 520.261 416.247L521.939 415.16Z" fill="black"/>
<path d="M683.619 270.221C682.522 270.351 681.528 269.566 681.398 268.469C681.269 267.373 682.053 266.378 683.15 266.249L683.619 270.221ZM753.916 290.213L755.907 290.409L753.916 290.213ZM686.594 364.116L685.324 362.571L686.594 364.116ZM680.12 398.182L679.92 400.172L679.92 400.172L680.12 398.182ZM673.924 348.348L672.539 346.905L673.924 348.348ZM723.513 297.994L725.507 297.841L723.513 297.994ZM679.908 304.107C678.835 304.371 677.752 303.715 677.489 302.642C677.225 301.57 677.881 300.486 678.954 300.223L679.908 304.107ZM665.187 370.483C665.386 369.397 666.428 368.677 667.514 368.876C668.601 369.074 669.321 370.116 669.122 371.203L665.187 370.483ZM660.798 382.659L659.141 383.778L659.141 383.778L660.798 382.659ZM666.117 368.932C667.116 368.46 668.308 368.887 668.779 369.886C669.251 370.885 668.824 372.077 667.825 372.548L666.117 368.932ZM683.15 266.249C694.839 264.869 713.287 264.292 728.592 267.149C736.226 268.575 743.289 270.891 748.334 274.557C753.48 278.296 756.587 283.51 755.907 290.409L751.926 290.017C752.44 284.804 750.22 280.873 745.982 277.793C741.643 274.64 735.263 272.464 727.858 271.081C713.086 268.323 695.074 268.869 683.619 270.221L683.15 266.249ZM755.907 290.409C755.081 298.786 750.884 307.171 745.107 315.071C739.315 322.992 731.82 330.583 724.168 337.39C716.508 344.203 708.643 350.272 702.084 355.141C695.454 360.063 690.314 363.649 687.863 365.662L685.324 362.571C687.87 360.481 693.256 356.713 699.7 351.929C706.216 347.092 713.975 341.102 721.509 334.401C729.05 327.694 736.317 320.315 741.878 312.71C747.454 305.084 751.2 297.384 751.926 290.017L755.907 290.409ZM687.863 365.662C685.429 367.66 684.394 370.484 684.173 373.904C683.949 377.373 684.578 381.203 685.267 384.939C685.604 386.766 685.959 388.595 686.197 390.249C686.432 391.891 686.578 393.515 686.443 394.941C686.309 396.353 685.87 397.887 684.634 398.97C683.372 400.076 681.7 400.351 679.92 400.172L680.32 396.192C681.51 396.312 681.891 396.055 681.997 395.962C682.128 395.848 682.37 395.518 682.46 394.564C682.549 393.624 682.461 392.38 682.237 390.818C682.014 389.266 681.682 387.553 681.333 385.665C680.652 381.97 679.92 377.677 680.181 373.646C680.445 369.567 681.742 365.513 685.324 362.571L687.863 365.662ZM672.539 346.905C681.934 337.894 694.767 327.964 704.76 319.196C709.824 314.754 714.188 310.592 717.222 306.876C718.737 305.02 719.874 303.331 720.601 301.823C721.333 300.307 721.592 299.096 721.519 298.147L725.507 297.841C725.653 299.742 725.112 301.679 724.204 303.561C723.292 305.452 721.948 307.412 720.32 309.405C717.068 313.389 712.497 317.73 707.398 322.203C697.067 331.267 684.669 340.814 675.308 349.791L672.539 346.905ZM721.519 298.147C721.502 297.932 721.443 297.737 720.992 297.486C720.442 297.18 719.482 296.919 718.015 296.812C715.111 296.601 711.021 297.04 706.377 297.862C697.115 299.501 686.392 302.514 679.908 304.107L678.954 300.223C685.236 298.68 696.246 295.593 705.68 293.923C710.383 293.091 714.881 292.573 718.306 292.823C720.004 292.946 721.643 293.27 722.939 293.992C724.335 294.77 725.37 296.048 725.507 297.841L721.519 298.147ZM679.92 400.172C675.073 399.685 670.756 395.495 668.042 390.195C665.27 384.781 663.868 377.695 665.187 370.483L669.122 371.203C667.973 377.487 669.202 383.683 671.603 388.372C674.062 393.174 677.463 395.905 680.32 396.192L679.92 400.172ZM675.308 349.791C672.567 352.42 667.615 358.143 664.261 364.462C660.82 370.946 659.511 377.177 662.456 381.54L659.141 383.778C654.823 377.382 657.219 369.197 660.728 362.587C664.324 355.81 669.566 349.757 672.539 346.905L675.308 349.791ZM662.456 381.54C662.679 381.871 662.843 382.088 662.958 382.223C663.094 382.384 663.084 382.336 662.943 382.249C662.804 382.163 662.129 381.808 661.317 382.208C660.973 382.378 660.768 382.615 660.663 382.768C660.561 382.917 660.518 383.036 660.507 383.071C660.496 383.101 660.54 382.917 660.571 382.241C660.584 381.951 660.593 381.627 660.605 381.254C660.617 380.887 660.63 380.482 660.65 380.055C660.728 378.375 660.916 376.205 661.629 374.187C662.354 372.135 663.682 370.081 666.117 368.932L667.825 372.548C666.655 373.101 665.898 374.112 665.401 375.519C664.892 376.96 664.72 378.643 664.645 380.242C664.627 380.634 664.615 381.013 664.603 381.378C664.592 381.738 664.582 382.096 664.567 382.421C664.542 382.976 664.5 383.757 664.291 384.367C664.198 384.637 663.909 385.39 663.087 385.795C662.109 386.278 661.23 385.892 660.838 385.65C660.444 385.407 660.132 385.076 659.908 384.811C659.662 384.521 659.406 384.172 659.141 383.778L662.456 381.54Z" fill="black"/>
<path d="M441.676 253.758C439.113 247.345 371.209 144.733 389.146 106.253" stroke="black" strokeWidth="4"/>
<path d="M461.56 261.729C460.493 257.339 422.31 181.984 442.048 161.98" stroke="black" strokeWidth="4"/>
<path d="M539.055 249.91C511.137 225.679 507.024 104.971 582.621 104.971" stroke="black" strokeWidth="4"/>
<path d="M527.151 255.969C487.953 268.029 484.678 269.971 432.167 248.969C412.163 240.968 400.437 220.508 390.528 203.893C363.4 158.406 337.342 99.1569 352.732 65.711C378.997 8.6331 433.449 -6.11738 432.167 7.99177C430.886 22.1009 403.982 38.134 440.496 43.2646C477.01 48.3952 506.478 -6.75869 532.103 7.99177C557.727 22.7422 507.76 34.2861 544.915 65.711C582.071 97.1359 648.694 56.0911 642.288 86.8747C635.882 117.658 544.915 140.746 544.915 188.204C544.915 197.429 545.974 205.624 547.577 212.825C549.331 220.705 550.973 226.644 552.604 231.554C555.039 238.887 545.857 251.233 538.317 252.923C534.659 253.743 530.905 254.814 527.151 255.969Z" stroke="black" strokeWidth="6"/>
</svg>
