<svg width="80" height="80" viewBox="0 0 80 80" fill="none" xmlns="http://www.w3.org/2000/svg">
<path d="M46.6668 42.4998C46.6668 39.2782 43.6821 36.6665 40.0002 36.6665C36.3183 36.6665 33.3335 39.2782 33.3335 42.4998C33.3335 45.7215 36.3183 48.3332 40.0002 48.3332C43.6821 48.3332 46.6668 50.9448 46.6668 54.1665C46.6668 57.3882 43.6821 59.9998 40.0002 59.9998C36.3183 59.9998 33.3335 57.3882 33.3335 54.1665" stroke="black" strokeWidth="1.5" strokeLinecap="round"/>
<path d="M40 31.6665V36.6665" stroke="black" strokeWidth="1.5" strokeLinecap="round" strokeLinejoin="round"/>
<path d="M40 60V65" stroke="black" strokeWidth="1.5" strokeLinecap="round" strokeLinejoin="round"/>
<path d="M18.7747 37.009C21.497 28.8421 29.1397 23.3335 37.7484 23.3335H42.2513C50.8599 23.3335 58.5027 28.8421 61.225 37.0089L64.5583 47.0089C68.8752 59.9596 59.2358 73.3335 45.5847 73.3335H34.415C20.7639 73.3335 11.1245 59.9596 15.4414 47.0089L18.7747 37.009Z" stroke="black" strokeWidth="1.5" strokeLinejoin="round"/>
<path d="M46.9528 23.3332L33.0469 23.3332L28.3766 17.9764C23.7985 12.7253 29.1393 4.87642 35.8234 7.03266L38.916 8.03031C39.6201 8.25745 40.3796 8.25745 41.0837 8.03031L44.1763 7.03266C50.8603 4.87643 56.2012 12.7253 51.6231 17.9764L46.9528 23.3332Z" stroke="black" strokeWidth="1.5" strokeLinejoin="round"/>
</svg>
