<svg width="80" height="80" viewBox="0 0 80 80" fill="none" xmlns="http://www.w3.org/2000/svg">
<path d="M18.7752 37.0085C21.4975 28.8416 29.1402 23.333 37.7488 23.333H42.2518C50.8604 23.333 58.5032 28.8416 61.2255 37.0085L64.5588 47.0084C68.8757 59.9591 59.2363 73.333 45.5851 73.333H34.4155C20.7644 73.333 11.125 59.9591 15.4418 47.0085L18.7752 37.0085Z" stroke="black" strokeWidth="1.5" strokeLinejoin="round"/>
<path d="M46.9533 23.3337L33.0474 23.3337L28.3771 17.9769C23.799 12.7257 29.1398 4.87691 35.8239 7.03315L38.9165 8.0308C39.6206 8.25794 40.3801 8.25794 41.0842 8.0308L44.1768 7.03315C50.8608 4.87691 56.2017 12.7258 51.6236 17.9769L46.9533 23.3337Z" stroke="black" strokeWidth="1.5" strokeLinejoin="round"/>
<path d="M38.1487 59.112C36.7861 59.112 35.5541 58.804 34.4527 58.188C33.3701 57.5533 32.5114 56.676 31.8767 55.556C31.2421 54.436 30.9247 53.148 30.9247 51.692C30.9247 50.2173 31.2421 48.9293 31.8767 47.828C32.5114 46.708 33.3701 45.84 34.4527 45.224C35.5541 44.5893 36.7861 44.272 38.1487 44.272C39.4367 44.272 40.5941 44.5707 41.6207 45.168C42.6661 45.7653 43.4874 46.6147 44.0847 47.716C44.7007 48.8173 45.0087 50.1427 45.0087 51.692C45.0087 53.204 44.7101 54.52 44.1127 55.64C43.5154 56.76 42.6941 57.6187 41.6487 58.216C40.6221 58.8133 39.4554 59.112 38.1487 59.112ZM38.2327 57.852C39.3527 57.852 40.3514 57.6 41.2287 57.096C42.1247 56.5733 42.8247 55.8453 43.3287 54.912C43.8514 53.9787 44.1127 52.9053 44.1127 51.692C44.1127 50.46 43.8514 49.3867 43.3287 48.472C42.8247 47.5387 42.1247 46.82 41.2287 46.316C40.3514 45.7933 39.3527 45.532 38.2327 45.532C37.1127 45.532 36.1047 45.7933 35.2087 46.316C34.3314 46.82 33.6314 47.5387 33.1087 48.472C32.6047 49.3867 32.3527 50.46 32.3527 51.692C32.3527 52.9053 32.6047 53.9787 33.1087 54.912C33.6314 55.8453 34.3314 56.5733 35.2087 57.096C36.1047 57.6 37.1127 57.852 38.2327 57.852ZM44.1407 59V54.212L44.3927 51.664L44.1127 49.116V38.224H45.5127V59H44.1407ZM37.6727 41.836V40.772H48.4807V41.836H37.6727Z" fill="black"/>
</svg>
