<svg width="440" height="435" viewBox="0 0 440 435" fill="none" xmlns="http://www.w3.org/2000/svg">
<g clipPath="url(#clip0_4961_72741)">
<path d="M224.214 270.395C224.214 270.395 98.5122 294.137 101.53 324.76C104.548 355.382 28.5456 362.443 28.5456 362.443C28.5456 362.443 -1.77235 365.336 0.0688742 393.051C1.9101 420.78 110.307 433.711 132.346 434.943C153.901 436.147 208.127 407.85 248.634 418.593C288.588 429.197 370.266 438.21 383.127 416.42C395.988 394.629 351.826 359.245 364.715 348.059C377.617 336.873 452.097 348.723 438.281 312.287C424.465 275.836 224.2 270.381 224.2 270.381L224.214 270.395Z" fill="#E6E7E8"/>
<path d="M423.177 241.328H314.545V230.378H423.177V241.328Z" fill="#4478BC"/>
<path d="M322.311 241.326H417.085V289.766C417.085 303.582 405.872 314.795 392.056 314.795H347.326C333.51 314.795 322.297 303.582 322.297 289.766V241.326H322.311Z" fill="#4478BC"/>
<path d="M417.085 241.326H322.311V243.901H417.085V241.326Z" fill="#4071B1"/>
<path d="M415.743 156.688C418.678 160.578 418.249 166.005 414.678 169.341C414.027 169.95 415.01 170.933 415.66 170.324C419.647 166.6 420.229 160.37 416.934 155.995C416.408 155.289 415.204 155.995 415.743 156.688Z" fill="#4071B1"/>
<path d="M357.932 209.389C338.689 208.019 326.534 132.335 330.77 128.002C335.74 122.921 345.348 131.85 349.445 143.091C355.108 158.652 349.75 177.383 350.857 177.839C352.242 178.407 363.026 150.359 359.634 118.851C358.181 105.409 355.177 100.826 355.384 86.3872C355.398 85.1136 355.952 57.1076 363.303 53.0098C371.208 48.5936 388.263 71.1175 391.6 97.8222C397.663 146.289 356.312 190.59 363.012 204.35C366.127 210.746 377.811 206.884 384.802 197.041C391.434 187.696 385.813 174.212 392.721 159.095C393.995 156.312 398.397 146.677 406.025 144.919C411.756 143.59 419.44 146.691 422.153 154.983C426.389 167.941 416.422 187.267 410.261 195.67C398.3 212.02 381.383 201.014 379.417 210.303C378.794 213.266 381.148 223.579 385.412 230.377H358.25" fill="#4478BC"/>
<path d="M365.49 58.9343C362.14 65.6762 364.48 73.2765 366.155 80.143C368.024 87.8401 369.173 95.7034 369.671 103.608C370.668 119.459 369.103 135.38 365.85 150.899C364.023 159.62 361.642 168.217 358.859 176.676C358.582 177.52 359.911 177.894 360.188 177.05C365.103 162.112 368.73 146.718 370.391 131.074C372.038 115.555 371.665 99.7735 368.536 84.4622C367.691 80.3091 366.459 76.239 365.712 72.0582C364.964 67.8774 364.77 63.5027 366.695 59.6265C367.096 58.8374 365.892 58.1313 365.504 58.9343H365.49Z" fill="#4071B1"/>
<path d="M375.485 115.294C381.854 109.189 384.041 99.2494 380.76 91.0539C380.428 90.2371 379.099 90.597 379.431 91.4277C382.532 99.194 380.566 108.525 374.516 114.325C373.866 114.948 374.849 115.917 375.499 115.308L375.485 115.294Z" fill="#4071B1"/>
<path d="M404.502 153.157C407.146 163.194 404.779 174.2 398.632 182.52C396.888 184.873 394.811 186.992 392.513 188.805C391.807 189.359 392.804 190.328 393.496 189.788C401.955 183.129 406.897 172.456 406.966 161.74C406.98 158.723 406.606 155.718 405.831 152.811C405.61 151.953 404.267 152.313 404.502 153.185V153.157Z" fill="#4071B1"/>
<path d="M334.619 139.437C338.62 146.94 341.638 154.928 343.59 163.207C344.531 167.18 345.168 171.195 345.667 175.251C346.123 178.92 346.553 182.616 347.452 186.215C348.421 190.078 349.986 193.76 352.561 196.833C353.128 197.512 354.111 196.529 353.544 195.851C348.74 190.092 347.937 182.27 347.037 175.113C346.026 167.055 344.338 159.178 341.541 151.537C339.935 147.148 338.025 142.87 335.824 138.731C335.408 137.942 334.204 138.648 334.633 139.423L334.619 139.437Z" fill="#4071B1"/>
<path d="M374.78 211.675C375.417 217.739 376.22 224.148 380.304 228.98C380.885 229.658 381.854 228.675 381.287 227.997C377.48 223.498 376.76 217.323 376.165 211.675C376.068 210.803 374.683 210.789 374.78 211.675Z" fill="#4071B1"/>
<path d="M357.557 81.7097C358.665 86.818 356.367 92.1341 358.097 97.1871C359.454 101.16 362.735 104.317 366.764 105.493C367.622 105.743 367.982 104.414 367.137 104.164C363.247 103.029 360.118 99.8035 359.149 95.8719C357.987 91.0958 359.939 86.1674 358.9 81.3636C358.706 80.4914 357.377 80.8652 357.571 81.7374L357.557 81.7097Z" fill="#4071B1"/>
<path d="M342.579 153.059C343.534 151.093 344.503 149.141 345.527 147.217C345.707 146.885 345.61 146.47 345.278 146.276C344.96 146.096 344.503 146.193 344.337 146.525C343.326 148.463 342.343 150.401 341.388 152.367C341.222 152.699 341.291 153.115 341.637 153.308C341.942 153.488 342.426 153.391 342.579 153.059Z" fill="#4071B1"/>
<path d="M404.446 176.096C406.717 174.947 409.209 174.324 411.756 174.269C412.642 174.241 412.642 172.857 411.756 172.885C408.973 172.954 406.246 173.646 403.754 174.906C402.965 175.307 403.657 176.498 404.446 176.096Z" fill="#4071B1"/>
<path d="M292.92 188.068L270.798 155.051L320.345 117.008L342.467 150.025L308.231 154.289L292.92 188.068Z" fill="#ED9646"/>
<path d="M342.467 150.025L309.325 153.694L320.345 117.008L270.798 155.051L308.231 154.289L292.92 188.068" fill="#A2672D"/>
<path d="M313.686 163.08L320.345 117.008L270.798 155.051L313.686 163.08Z" fill="#ED9646"/>
<path d="M313.686 163.08L320.884 117.811L320.344 117.008L313.686 163.08Z" fill="#A2672D"/>
<path d="M270.798 155.049L313.686 163.078L271.573 156.198L270.798 155.049Z" fill="#A2672D"/>
<path d="M111.373 264.942L142.162 278.523L86.7036 371.235C86.7036 371.235 87.7419 379.929 79.6709 383.238C71.6 386.546 63.7367 390.063 63.7367 390.063L61.6878 390.492C59.4728 390.949 57.3132 389.011 57.8669 386.809C58.0054 386.269 58.2822 385.743 58.7668 385.3C61.0372 383.238 46.1412 385.3 46.1412 385.3C46.1412 385.3 40.9636 389.232 36.6167 389.44C32.2697 389.647 31.4391 387.169 31.4391 387.169C31.4391 387.169 27.2998 387.792 27.2998 385.3C27.2998 382.809 35.1631 379.098 35.1631 379.098C35.1631 379.098 50.682 370.197 62.0616 369.366C73.4412 368.536 111.359 264.942 111.359 264.942H111.373Z" fill="#FABE9D"/>
<path d="M105.337 262.271L142.175 278.51H146.619L159.342 360.354C159.342 360.354 160.892 373.395 166.485 378.351C172.078 383.321 175.802 386.117 175.802 386.117L250.614 313.797L240.992 300.134L240.688 262.271L248.454 274.37L267.074 231.538C267.074 231.538 241.006 194.602 233.863 191.501C226.719 188.4 211.519 185.908 211.519 185.908C211.519 185.908 184.205 185.604 176.439 189.328C168.672 193.052 149.125 202.673 149.125 202.673C149.125 202.673 140.431 207.02 133.301 218.497C126.158 229.987 105.365 262.257 105.365 262.257L105.337 262.271Z" fill="#ED9646"/>
<path d="M166.167 146.801C166.167 146.801 160.574 148.974 162.138 156.422C163.689 163.87 170.514 162.015 170.514 162.015L173.546 190.713L176.619 203.048C177.865 208.018 181.271 212.157 185.908 214.345L188.802 215.701C195.17 218.692 202.742 217.46 207.823 212.6C211.699 208.89 213.61 203.574 212.959 198.244L211.478 185.91V182.49C211.478 182.49 215.825 182.49 220.476 178.143C222.221 176.51 223.314 173.879 223.993 171.221C225.128 166.805 225.1 162.181 224.228 157.71L220.13 136.847C218.773 129.925 214.606 123.875 208.64 120.124L204.044 117.244C192.678 110.115 177.727 112.994 169.822 123.834C164.99 130.451 163.634 138.993 166.167 146.787V146.801Z" fill="#FABE9D"/>
<path d="M203.144 146.218C205.248 149.292 207.103 152.531 208.64 155.923C209.277 157.321 210.301 159.107 210.024 160.685C209.775 162.056 207.864 162.665 206.978 161.474C206.439 160.754 205.22 161.46 205.76 162.18C206.729 163.468 208.515 163.883 209.955 163.08C211.713 162.083 211.658 159.868 211.104 158.179C210.37 155.964 209.263 153.818 208.169 151.77C207.02 149.61 205.746 147.506 204.362 145.484C203.85 144.737 202.631 145.443 203.144 146.191V146.218Z" fill="#231F20"/>
<path d="M184.98 137.191C189.009 133.467 194.09 134.921 194.09 134.921" stroke="#231F20" strokeWidth="1.02" stroke-miterlimit="10" strokeLinecap="round"/>
<path d="M205.221 134.813C209.775 132.072 214.067 134.578 214.067 134.578" stroke="#231F20" strokeWidth="1.02" stroke-miterlimit="10" strokeLinecap="round"/>
<path d="M194.052 151.034C195.283 150.89 196.051 148.827 195.769 146.428C195.486 144.028 194.26 142.2 193.03 142.345C191.8 142.49 191.032 144.552 191.314 146.952C191.596 149.351 192.822 151.179 194.052 151.034Z" fill="#231F20"/>
<path d="M213.482 149.384C214.712 149.24 215.481 147.177 215.198 144.778C214.916 142.378 213.69 140.55 212.46 140.695C211.23 140.84 210.461 142.902 210.744 145.302C211.026 147.701 212.252 149.529 213.482 149.384Z" fill="#231F20"/>
<path d="M198.852 166.155C199.392 167.734 200.361 169.243 201.926 169.976C203.49 170.71 205.276 170.682 206.993 170.599C207.892 170.558 207.906 169.146 206.993 169.187C205.581 169.256 204.044 169.367 202.715 168.786C201.386 168.204 200.652 167.041 200.209 165.768C199.918 164.909 198.548 165.283 198.852 166.142V166.155Z" fill="#231F20"/>
<path d="M166.166 146.815C166.166 146.815 170.195 145.721 171.759 148.13C173.324 150.539 173.157 155.093 173.157 155.093C173.157 155.093 172.687 157.391 175.483 156.602C178.28 155.813 177.961 136.57 177.961 136.57C177.961 136.57 176.563 127.42 182.156 127.101C187.749 126.797 214.44 129.898 217.07 125.703C219.7 121.508 223.743 113.285 221.099 107.54C218.454 101.795 191.141 95.122 180.592 104.12C170.043 113.119 161.653 113.437 160.255 116.386C158.857 119.335 157.002 118.089 157.929 123.529C158.857 128.97 166.153 146.815 166.153 146.815H166.166Z" fill="#231F20"/>
<path d="M211.173 182.765C211.173 182.765 197.98 186.489 191.155 178.418" stroke="#231F20" strokeWidth="1.02" stroke-miterlimit="10" strokeLinecap="round"/>
<path d="M265.441 235.247C265.441 235.247 267.047 239.622 269.843 239.303C272.64 238.985 275.436 183.748 275.436 178.155C275.436 172.562 271.671 162.429 274.703 160.851C275.561 160.408 280.102 165.959 280.102 165.959C280.102 165.959 283.521 161.709 285.695 158.608C287.868 155.507 291.287 149.803 293.461 155.05C295.122 159.065 286.525 167.703 286.844 171.441C287.162 175.179 299.054 183.375 299.054 183.375C299.054 183.375 302.307 249.562 299.054 261.052C298.625 262.547 287.563 282.773 272.986 278.44C258.395 274.093 251.943 266.41 251.943 266.41L265.483 235.275L265.441 235.247Z" fill="#FABE9D"/>
<path d="M175.788 386.12C175.788 386.12 191.307 402.262 203.254 402.566C215.201 402.871 246.253 406.29 258.976 397.596C271.698 388.902 280.087 375.875 280.087 375.875C280.087 375.875 285.113 390.882 300.576 381.468C307.692 377.135 308.952 375.875 308.952 375.875L318.268 369.673L346.205 374.325L377.243 300.136C377.243 300.136 382.836 272.822 372.896 267.548C370.418 266.233 367.566 265.277 364.687 264.599C355.55 262.425 345.956 263.118 337.068 266.177C327.558 269.444 313.935 274.594 308.342 279.024C299.344 286.168 250.614 313.8 250.614 313.8L175.802 386.12H175.788Z" fill="#253239"/>
<path d="M318.269 369.673L346.206 374.324L343.105 390.549C343.105 390.549 380.552 398.26 367.317 412.616C362.347 418.002 312.897 407.439 312.897 407.439L318.283 369.673H318.269Z" fill="#ED9646"/>
<path d="M313.451 403.493L366.044 413.377C366.044 413.377 364.521 414.208 360.686 414.139C356.852 414.069 349.321 413.488 349.321 413.488L334.231 411.411L312.884 407.438L313.451 403.493Z" fill="#A2672D"/>
<path d="M146.619 278.525C146.619 278.525 158.262 264.529 160.74 260.501C163.218 256.472 152.918 319.004 152.918 319.004L146.619 278.525Z" fill="#A2672D"/>
<path d="M163.855 255.323C155.784 269.444 146.938 278.235 146.938 278.235" stroke="#231F20" strokeWidth="1.02" stroke-miterlimit="10" strokeLinecap="round"/>
<path d="M240.66 262.272C240.66 262.272 233.628 243.237 232.7 236.204L238.861 247.113L250.157 270.398L248.427 274.371L240.66 262.272Z" fill="#A2672D"/>
<path d="M273.346 272.654C279.244 275.533 286.401 273.47 289.793 267.836C290.263 267.061 289.045 266.355 288.574 267.13C285.584 272.072 279.257 273.983 274.052 271.435C273.235 271.034 272.529 272.252 273.346 272.654Z" fill="#231F20"/>
<path d="M112.938 273.155C110.114 277.598 107.885 282.402 106.293 287.428C106.016 288.3 107.373 288.66 107.65 287.801C109.2 282.887 111.387 278.208 114.156 273.861C114.641 273.099 113.422 272.379 112.938 273.155Z" fill="#231F20"/>
<path d="M169.06 335.008L185.797 330.149C196.637 327.006 206.134 320.444 213.042 311.529C220.933 301.354 230.388 290.929 235.829 295.664L240.965 300.135C243.512 302.35 219.521 331.63 216.655 333.402L168.077 349.724C155.396 335.008 167.164 337.265 169.06 335.008Z" fill="#A2672D"/>
<path d="M166.306 360.576C179.637 357.918 192.401 352.561 203.712 345.002C214.33 337.9 224.976 328.556 228.99 316.013C231.469 308.274 231.358 300.037 231.164 292.008C231.15 291.205 229.904 291.205 229.918 292.008C230.084 299.054 230.223 306.212 228.52 313.092C226.928 319.502 223.619 325.178 219.286 330.12C214.953 335.062 209.872 339.229 204.515 342.953C199.226 346.622 193.592 349.792 187.708 352.436C180.759 355.551 173.463 357.877 165.987 359.372C165.198 359.524 165.53 360.729 166.32 360.576H166.306Z" fill="#231F20"/>
<path d="M235.566 339.23C245.658 337.735 255.376 334.481 264.818 330.674C274.259 326.867 283.632 322.451 293.184 318.672C297.918 316.789 302.722 315.045 307.623 313.619C310.046 312.913 312.482 312.276 314.946 311.736C317.411 311.196 319.819 310.67 322.284 310.518C324.471 310.393 326.852 310.573 328.666 311.916C330.604 313.342 331.296 315.778 331.462 318.063C331.628 320.347 331.42 322.839 331.157 325.178C330.881 327.712 330.438 330.245 329.842 332.723C327.544 342.525 323.003 351.814 316.58 359.566C315.791 360.522 314.974 361.449 314.13 362.363C313.52 363.027 314.503 364.024 315.126 363.36C322.145 355.787 327.337 346.595 330.244 336.683C331.697 331.74 332.583 326.618 332.86 321.468C333.096 317.024 332.528 311.819 327.863 309.853C325.786 308.981 323.433 308.94 321.218 309.175C318.74 309.438 316.275 309.964 313.839 310.504C308.689 311.681 303.622 313.259 298.666 315.059C288.657 318.686 279.022 323.199 269.22 327.324C259.474 331.436 249.493 335.201 239.055 337.209C237.767 337.458 236.48 337.679 235.178 337.859C234.279 337.998 234.666 339.354 235.552 339.216L235.566 339.23Z" fill="#465B64"/>
<path d="M324.734 310.353C329.427 304.981 330.12 297.63 330.604 290.805C330.673 289.905 329.261 289.905 329.192 290.805C328.735 297.201 328.154 304.303 323.738 309.356C323.142 310.034 324.139 311.031 324.734 310.353Z" fill="#465B64"/>
<path d="M286.871 380.345C286.359 374.904 288.02 369.519 291.121 365.061C294.222 360.604 298.887 357.17 303.954 355.066C306.834 353.862 309.865 353.059 312.952 352.574C313.852 352.436 313.465 351.079 312.579 351.217C301.296 353.017 290.442 359.634 286.622 370.862C285.583 373.907 285.168 377.147 285.459 380.345C285.542 381.245 286.954 381.245 286.871 380.345Z" fill="#465B64"/>
<path d="M324 358.972C332.652 356.079 341.9 357.145 350.774 358.211C351.674 358.322 351.66 356.91 350.774 356.799C341.775 355.719 332.403 354.681 323.626 357.616C322.768 357.906 323.142 359.263 324 358.972Z" fill="#465B64"/>
<path d="M205.857 358.876C207.366 362.06 208.862 365.258 209.969 368.608C211.077 371.958 211.727 375.392 212.018 378.88C212.585 385.871 211.81 392.89 210.827 399.812C210.703 400.698 212.059 401.086 212.184 400.186C213.776 389.083 214.773 377.593 210.855 366.85C209.775 363.887 208.432 361.022 207.076 358.17C206.688 357.353 205.47 358.059 205.857 358.876Z" fill="#465B64"/>
<path d="M250.919 317.537C259.073 318.091 267.296 314.727 272.723 308.622C273.318 307.943 272.335 306.947 271.726 307.625C266.521 313.481 258.727 316.665 250.919 316.125C250.019 316.07 250.019 317.468 250.919 317.537Z" fill="#465B64"/>
<path d="M222.747 60.9266L210.357 56.6488L203.186 57.4656C203.186 57.4656 191.391 56.6765 190.809 56.8427C190.228 57.0088 170.957 55.0014 170.957 55.0014L164.672 54.06C164.672 54.06 162.803 54.06 163.108 55.4998C163.399 56.9534 163.62 91.0368 163.62 91.0368L153.542 88.0051L134.797 48.481L114.89 42.0852L104.978 38.8319L93.2383 30.6225L98.1113 25.5003L112.44 24.0328L116.565 23.6175L134.424 28.9197L146.925 0L154.816 3.75167L161.377 36.9353L200.029 48.4118L201.898 39.8286L213.79 44.1617L230.5 39.704L220.657 50.7791L222.733 60.9404L222.747 60.9266Z" fill="#C27B39"/>
<path d="M134.784 48.4679L150.58 39.6909L145.97 51.0705L156.782 88.9749L153.529 87.9919L134.784 48.4679Z" fill="#ED9646"/>
<path d="M153.126 40.3408L148.793 51.9973L159.647 89.8324L163.592 91.023L163.08 55.4998L157.999 52.6895L153.126 40.3408Z" fill="#ED9646"/>
<path d="M134.396 28.9197C134.396 28.9197 148.129 33.1559 147.949 32.9344C147.769 32.7129 150.025 1.48129 150.025 1.48129L146.91 0L134.382 28.9197H134.396Z" fill="#ED9646"/>
<path d="M151.59 2.21502C151.59 2.21502 150.704 33.9589 151.022 33.8896C151.341 33.8204 161.377 36.9214 161.377 36.9214L154.815 3.73783L151.59 2.20117V2.21502Z" fill="#ED9646"/>
<path d="M108.771 25.9985L125.259 26.9814L199.919 49.0762L197.247 50.3359L113.021 31.1761L97.627 26.5661L108.771 25.9985Z" fill="#ED9646"/>
<path d="M209.997 45.1582L201.94 39.8145L200.029 48.3976L209.997 45.1582Z" fill="#ED9646"/>
<path d="M209.997 45.1592L215.493 50.4337L230.514 39.6909L209.997 45.1592Z" fill="#ED9646"/>
<path d="M203.075 49.6313L210.343 56.6502L222.747 60.9279L215.493 50.4343L203.075 49.6313Z" fill="#ED9646"/>
<path opacity="0.87" d="M150.58 39.6909L134.784 48.4679L163.081 55.5005L165.324 50.1568L153.127 40.3416L150.58 39.6909Z" fill="#A2672D"/>
<path d="M153.127 40.3408L203.172 57.4795L197.247 50.336L153.127 40.3408Z" fill="#A2672D"/>
<path d="M91.5904 297.573H234.528C237.67 297.573 240.231 300.134 240.231 303.277V398.052H85.8867V303.277C85.8867 300.134 88.4478 297.573 91.5904 297.573Z" fill="#D1D3D4"/>
<path d="M74.2168 398.053H252.996V400.407C252.996 404.491 249.673 407.813 245.589 407.813H81.6232C77.5393 407.813 74.2168 404.491 74.2168 400.407V398.053Z" fill="#D1D3D4"/>
<path d="M235.691 302.35H90.4277V394.578H235.691V302.35Z" fill="white"/>
<path d="M235.691 302.35H90.4277V308.746H235.691V302.35Z" fill="#E6E7E8"/>
<path d="M100.535 306.514C101.123 306.514 101.601 306.037 101.601 305.448C101.601 304.86 101.123 304.382 100.535 304.382C99.946 304.382 99.4688 304.86 99.4688 305.448C99.4688 306.037 99.946 306.514 100.535 306.514Z" fill="#E6E7E8" stroke="#6D6E71" strokeWidth="0.16" stroke-miterlimit="10"/>
<path d="M96.6714 306.514C97.2602 306.514 97.7374 306.037 97.7374 305.448C97.7374 304.86 97.2602 304.382 96.6714 304.382C96.0827 304.382 95.6055 304.86 95.6055 305.448C95.6055 306.037 96.0827 306.514 96.6714 306.514Z" fill="#E6E7E8" stroke="#6D6E71" strokeWidth="0.16" stroke-miterlimit="10"/>
<path d="M92.7252 306.514C93.3139 306.514 93.7911 306.037 93.7911 305.448C93.7911 304.86 93.3139 304.382 92.7252 304.382C92.1364 304.382 91.6592 304.86 91.6592 305.448C91.6592 306.037 92.1364 306.514 92.7252 306.514Z" fill="#E6E7E8" stroke="#6D6E71" strokeWidth="0.16" stroke-miterlimit="10"/>
<path d="M152.808 398.053H178.031C178.031 399.645 176.73 400.947 175.138 400.947H155.715C154.123 400.947 152.821 399.645 152.821 398.053H152.808Z" fill="#E6E7E8"/>
<path d="M238.625 111.693L249.174 94.3047L277.097 111.25L266.562 128.637L257.383 112.606L238.625 111.693Z" fill="#ED9646"/>
<path d="M266.562 128.637L257.896 113.022L277.097 111.25L249.174 94.3047L257.383 112.606L238.625 111.693" fill="#A2672D"/>
<path d="M254.49 117.022L277.097 111.25L249.174 94.3047L254.49 117.022Z" fill="#ED9646"/>
<path d="M254.49 117.02L276.848 111.663L277.097 111.248L254.49 117.02Z" fill="#A2672D"/>
<path d="M249.174 94.3047L254.49 117.022L248.8 94.9138L249.174 94.3047Z" fill="#A2672D"/>
<path d="M241.034 63.1414L235.787 47.844L252.746 37.8765L257.993 53.1739L247.291 51.3742L241.034 63.1414Z" fill="#ED9646"/>
<path d="M257.993 53.1739L247.665 51.2496L252.746 37.8765L235.787 47.844L247.291 51.3742L241.034 63.1414" fill="#A2672D"/>
<path d="M248.565 55.3889L252.746 37.8765L235.787 47.844L248.565 55.3889Z" fill="#ED9646"/>
<path d="M248.564 55.3889L252.87 38.2502L252.745 37.8765L248.564 55.3889Z" fill="#A2672D"/>
<path d="M235.787 47.8457L248.565 55.3906L235.967 48.3856L235.787 47.8457Z" fill="#A2672D"/>
<path d="M241.034 63.1414L235.787 47.844L252.746 37.8765L257.993 53.1739L247.291 51.3742L241.034 63.1414Z" fill="#ED9646"/>
<path d="M257.993 53.1739L247.665 51.2496L252.746 37.8765L235.787 47.844L247.291 51.3742L241.034 63.1414" fill="#A2672D"/>
<path d="M248.565 55.3889L252.746 37.8765L235.787 47.844L248.565 55.3889Z" fill="#ED9646"/>
<path d="M248.564 55.3889L252.87 38.2502L252.745 37.8765L248.564 55.3889Z" fill="#A2672D"/>
<path d="M235.787 47.8457L248.565 55.3906L235.967 48.3856L235.787 47.8457Z" fill="#A2672D"/>
<path d="M196.762 339.698V378.779H137.386V339.698L167.067 316.828L196.762 339.698Z" fill="#4478BC"/>
<path d="M137.386 339.7L165.558 356.714L137.386 378.781H196.762L166.735 356.908L196.762 339.7" fill="#4071B1"/>
<path d="M146.689 345.333V339.007C146.689 338.619 147.007 338.301 147.395 338.301H183.845C184.233 338.301 184.551 338.619 184.551 339.007L184.593 346.69L165.765 357.544L146.675 345.333H146.689Z" fill="white"/>
<path d="M166.568 354.301L140.597 378.777H192.525L166.568 354.301Z" fill="#4478BC"/>
<path d="M165.71 352.09C168.241 352.09 170.293 350.038 170.293 347.508C170.293 344.977 168.241 342.925 165.71 342.925C163.179 342.925 161.128 344.977 161.128 347.508C161.128 350.038 163.179 352.09 165.71 352.09Z" fill="#ED9646"/>
<path d="M168.382 346.539L165.738 349.238L165.032 349.958L163.08 347.549L163.786 346.83L165.032 348.352L167.662 345.653L168.382 346.539Z" fill="white"/>
<path d="M188.221 336.085L180.523 338.95V335.559L188.221 332.693V336.085Z" fill="#ED9646"/>
<path d="M202.632 324.429L210.315 327.295V323.889L202.632 321.037V324.429Z" fill="#4478BC"/>
<path d="M105.448 349.222L113.145 352.087V348.682L105.448 345.83V349.222Z" fill="#ED9646"/>
<path d="M122.351 331.145L114.654 333.997V330.605L122.351 327.739V331.145Z" fill="#4478BC"/>
<path d="M138.715 350L131.031 352.865V349.46L138.715 346.608V350Z" fill="#ED9646"/>
<path d="M124.595 318.171L132.278 321.037V317.631L124.595 314.779V318.171Z" fill="#4478BC"/>
<path d="M190.034 368.522L182.337 371.388V367.996L190.034 365.13V368.522Z" fill="#ED9646"/>
<path d="M215.507 369.933L223.19 372.799V369.407L215.507 366.542V369.933Z" fill="#4478BC"/>
<path d="M144.309 383.737L151.992 386.603V383.211L144.309 380.345V383.737Z" fill="#ED9646"/>
<path d="M127.031 368.756L119.334 371.622V368.23L127.031 365.365V368.756Z" fill="#4478BC"/>
<path d="M164.174 372.122L156.49 374.988V371.596L164.174 368.73V372.122Z" fill="#ED9646"/>
<path d="M101.6 378.38L109.297 381.246V377.854L101.6 374.988V378.38Z" fill="#4478BC"/>
<path d="M223.84 315.9L216.156 318.766V315.374L223.84 312.508V315.9Z" fill="#ED9646"/>
<path d="M186.186 386.396L193.883 389.248V385.856L186.186 382.991V386.396Z" fill="#4478BC"/>
<path d="M209.692 347.77L217.39 350.635V347.23L209.692 344.378V347.77Z" fill="#4478BC"/>
</g>
<defs>
<clipPath id="clip0_4961_72741">
<rect width="439.998" height="435" fill="white"/>
</clipPath>
</defs>
</svg>
