<svg width="531" height="353" viewBox="0 0 531 353" fill="none" xmlns="http://www.w3.org/2000/svg">
<g clipPath="url(#clip0_2612_71958)">
<path d="M122.86 227.785C122.86 227.785 51.4824 245.845 53.2063 269.143C54.9302 292.44 11.7737 297.812 11.7737 297.812C11.7737 297.812 -5.43537 300.009 -4.3951 321.11C-3.35483 342.197 58.1996 352.154 70.7126 352.985C83.2256 353.816 114.092 332.255 136.74 340.55C159.388 348.845 205.8 355.478 213.096 338.888C220.393 322.297 195.323 295.394 202.649 286.876C209.975 278.358 252.27 287.38 244.423 259.66C236.577 231.94 122.875 227.785 122.875 227.785H122.86Z" fill="#E6E7E8"/>
<path d="M138.435 24.5889H475.082C486.272 24.5889 495.367 33.6706 495.367 44.8447V268.846H118.149V44.8447C118.149 33.6706 127.244 24.5889 138.435 24.5889Z" fill="#4478BC"/>
<path d="M89.6309 268.846H526.546V284.635C526.546 289.012 522.979 292.574 518.595 292.574H97.5815C93.1975 292.574 89.6309 289.012 89.6309 284.635V268.846Z" fill="#4478BC"/>
<path d="M484.281 36.1934H129.251V260.402H484.281V36.1934Z" fill="white"/>
<path d="M484.281 36.1934H129.251V51.7451H484.281V36.1934Z" fill="#E6E7E8"/>
<path d="M153.95 46.3436C155.394 46.3436 156.565 45.1743 156.565 43.7319C156.565 42.2894 155.394 41.1201 153.95 41.1201C152.505 41.1201 151.334 42.2894 151.334 43.7319C151.334 45.1743 152.505 46.3436 153.95 46.3436Z" fill="#E6E7E8" stroke="#ED9646" strokeWidth="0.37" stroke-miterlimit="10"/>
<path d="M278.693 268.846H334.823V269.721C334.823 272.778 332.341 275.271 329.265 275.271H284.236C281.174 275.271 278.678 272.793 278.678 269.721V268.846H278.693Z" fill="#4071B1"/>
<path d="M456.728 61.5093H274.428C265.613 61.5093 258.467 68.6448 258.467 77.4468V146.049C258.467 154.851 265.613 161.987 274.428 161.987H456.728C465.543 161.987 472.689 154.851 472.689 146.049V77.4468C472.689 68.6448 465.543 61.5093 456.728 61.5093Z" fill="#E6E7E8"/>
<path d="M236.978 61.4648H157.843C149.028 61.4648 141.882 68.6003 141.882 77.4024V233.617C141.882 242.419 149.028 249.554 157.843 249.554H236.978C245.793 249.554 252.938 242.419 252.938 233.617V77.4024C252.938 68.6003 245.793 61.4648 236.978 61.4648Z" fill="#E6E7E8"/>
<path d="M456.729 167.344H274.429C265.614 167.344 258.468 174.479 258.468 183.281V233.617C258.468 242.419 265.614 249.554 274.429 249.554H456.729C465.544 249.554 472.69 242.419 472.69 233.617V183.281C472.69 174.479 465.544 167.344 456.729 167.344Z" fill="#E6E7E8"/>
<path d="M433.723 142.295L415.905 233.632L276.939 206.594L294.758 115.258L374.681 75.3247L433.723 142.295Z" fill="#4478BC"/>
<path d="M294.758 115.258L352.939 167.849L276.939 206.594L415.905 233.632L355.614 168.828L433.723 142.295" fill="#4071B1"/>
<path d="M313.987 132.65L316.87 117.87C317.049 116.949 317.94 116.356 318.862 116.534L404.164 133.139C405.085 133.317 405.68 134.193 405.502 135.113L402.098 153.083L353.102 169.897L314.002 132.664L313.987 132.65Z" fill="white"/>
<path d="M328.878 180.032L284.474 208.063L405.992 231.703L375.364 189.069C364.708 174.244 344.319 170.267 328.878 180.017V180.032Z" fill="#4478BC"/>
<path d="M311.253 130.498L290.255 121.327L278.113 123.093C278.113 123.093 258.155 121.416 257.159 121.743C256.163 122.084 223.529 117.78 223.529 117.78L212.873 115.762C212.873 115.762 209.723 115.747 210.213 118.849C210.718 121.965 211.09 194.945 211.09 194.945L194.029 188.446L162.286 103.817L128.581 90.1346L111.788 83.1749L91.9043 65.6051L100.167 54.6387L124.42 51.5076L131.405 50.6024L161.647 61.9546L182.869 0L196.244 8.02812L207.36 79.0941L272.823 103.653L275.988 85.2673L296.125 94.5419L324.435 85.0002L307.776 108.728L311.283 130.498H311.253Z" fill="#C27B39"/>
<path d="M162.286 103.802L189.051 85.0005L181.234 109.367L199.558 190.538L194.029 188.431L162.286 103.802Z" fill="#ED9646"/>
<path d="M193.376 86.395L186.034 111.34L204.402 192.378L211.105 194.93L210.228 118.849L201.609 112.824L193.376 86.395Z" fill="#ED9646"/>
<path d="M161.647 61.9544C161.647 61.9544 184.905 71.0212 184.608 70.5464C184.311 70.0715 188.13 3.17544 188.13 3.17544L182.854 0.0146484L161.647 61.9692V61.9544Z" fill="#ED9646"/>
<path d="M190.775 4.74873C190.775 4.74873 189.274 72.7281 189.809 72.5797C190.344 72.4313 207.345 79.0794 207.345 79.0794L196.229 8.0134L190.775 4.73389V4.74873Z" fill="#ED9646"/>
<path d="M118.268 55.6777L123.796 63.7949L118.268 55.6777L146.177 57.7849L272.6 105.093L268.082 107.794L125.446 66.7479L99.3945 56.8797L118.268 55.6777Z" fill="#ED9646"/>
<path d="M289.66 96.7234L276.033 85.2822L272.793 103.653L289.66 96.7234Z" fill="#ED9646"/>
<path d="M289.66 96.7236L298.963 108.002L324.405 85.0005L289.66 96.7236Z" fill="#ED9646"/>
<path d="M277.95 106.295L290.255 121.327L311.254 130.498L298.964 108.001L277.95 106.295Z" fill="#ED9646"/>
<path opacity="0.87" d="M189.051 85.0005L162.286 103.802L210.228 118.849L214.017 107.408L193.375 86.3954L189.051 85.0005Z" fill="#A2672D"/>
<path d="M193.376 86.395L278.114 123.078L268.082 107.793L193.376 86.395Z" fill="#A2672D"/>
<path d="M358.557 164.717C365.828 164.717 371.723 158.831 371.723 151.57C371.723 144.308 365.828 138.422 358.557 138.422C351.285 138.422 345.39 144.308 345.39 151.57C345.39 158.831 351.285 164.717 358.557 164.717Z" fill="#ED9646"/>
<path d="M366.73 151.05L357.278 156.392L354.752 157.817L351.289 149.611L353.801 148.186L356 153.395L365.452 148.053L366.73 151.05Z" fill="white"/>
<path d="M144.497 46.3436C145.942 46.3436 147.113 45.1743 147.113 43.7319C147.113 42.2894 145.942 41.1201 144.497 41.1201C143.053 41.1201 141.882 42.2894 141.882 43.7319C141.882 45.1743 143.053 46.3436 144.497 46.3436Z" fill="#E6E7E8" stroke="#ED9646" strokeWidth="0.37" stroke-miterlimit="10"/>
<path d="M134.868 46.3436C136.312 46.3436 137.483 45.1743 137.483 43.7319C137.483 42.2894 136.312 41.1201 134.868 41.1201C133.423 41.1201 132.252 42.2894 132.252 43.7319C132.252 45.1743 133.423 46.3436 134.868 46.3436Z" fill="#E6E7E8" stroke="#ED9646" strokeWidth="0.37" stroke-miterlimit="10"/>
<path d="M347.455 243.337L334.719 225.619L363.222 205.214L375.943 222.933L356.252 225.218L347.455 243.337Z" fill="#ED9646"/>
<path d="M375.943 222.933L356.877 224.906L363.222 205.214L334.719 225.619L356.252 225.218L347.455 243.337" fill="#A2672D"/>
<path d="M359.388 229.937L363.222 205.214L334.719 225.619L359.388 229.937Z" fill="#ED9646"/>
<path d="M359.389 229.937L363.52 205.645L363.223 205.214L359.389 229.937Z" fill="#A2672D"/>
<path d="M334.719 225.619L359.388 229.937L335.165 226.242L334.719 225.619Z" fill="#A2672D"/>
<path d="M441.392 214.622L435.819 197.364L453.846 186.101L459.434 203.374L448.065 201.326L441.392 214.622Z" fill="#ED9646"/>
<path d="M459.434 203.374L448.451 201.193L453.846 186.101L435.819 197.364L448.065 201.326L441.392 214.622" fill="#A2672D"/>
<path d="M449.402 205.882L453.846 186.101L435.819 197.364L449.402 205.882Z" fill="#ED9646"/>
<path d="M449.402 205.882L453.994 186.517L453.846 186.101L449.402 205.882Z" fill="#A2672D"/>
<path d="M435.819 197.364L449.402 205.882L436.013 197.958L435.819 197.364Z" fill="#A2672D"/>
<path d="M244.676 210.081L250.947 180.417L284.251 198.24L277.979 227.904L264.278 206.03L244.676 210.081Z" fill="#ED9646"/>
<path d="M277.979 227.904L264.902 206.535L284.251 198.24L250.947 180.417L264.278 206.03L244.676 210.081" fill="#A2672D"/>
<path d="M262.45 213.628L284.251 198.24L250.947 180.417L262.45 213.628Z" fill="#ED9646"/>
<path d="M262.449 213.628L284.102 198.967L284.25 198.24L262.449 213.628Z" fill="#A2672D"/>
<path d="M250.948 180.417L262.45 213.628L250.725 181.456L250.948 180.417Z" fill="#A2672D"/>
<path d="M270.445 270.923H93.6582V273.758H270.445V270.923Z" fill="#4071B1"/>
<path d="M145.212 216.047L134.438 199.991L158.572 181.486L169.346 197.543L152.672 199.62L145.212 216.047Z" fill="#ED9646"/>
<path d="M169.346 197.543L153.207 199.338L158.572 181.486L134.438 199.991L152.672 199.62L145.212 216.047" fill="#A2672D"/>
<path d="M155.332 203.894L158.572 181.486L134.438 199.991L155.332 203.894Z" fill="#ED9646"/>
<path d="M155.332 203.894L158.839 181.872L158.572 181.486L155.332 203.894Z" fill="#A2672D"/>
<path d="M134.438 199.991L155.332 203.894L134.809 200.555L134.438 199.991Z" fill="#A2672D"/>
<path d="M56.7735 253.443L71.7682 260.046L44.7509 305.143C44.7509 305.143 45.2561 309.372 41.318 310.975C37.3798 312.578 33.5605 314.299 33.5605 314.299L32.5648 314.507C31.4799 314.729 30.4248 313.78 30.7072 312.711C30.7666 312.444 30.9152 312.192 31.153 311.984C32.2676 310.975 25.0005 311.984 25.0005 311.984C25.0005 311.984 22.4742 313.898 20.3639 314.002C18.2536 314.106 17.8375 312.889 17.8375 312.889C17.8375 312.889 15.8164 313.186 15.8164 311.984C15.8164 310.782 19.6506 308.957 19.6506 308.957C19.6506 308.957 27.2148 304.624 32.758 304.223C38.3012 303.822 56.7735 253.428 56.7735 253.428V253.443Z" fill="#FABE9D"/>
<path d="M53.8156 252.151L71.7529 260.061H73.9226L80.1197 299.875C80.1197 299.875 80.8776 306.211 83.5972 308.63C86.3167 311.049 88.1298 312.399 88.1298 312.399L124.569 277.215L119.888 270.567L119.739 252.151L123.514 258.043L132.594 237.208C132.594 237.208 119.888 219.238 116.41 217.724C112.933 216.21 105.517 215.008 105.517 215.008C105.517 215.008 92.2166 214.86 88.427 216.67C84.6374 218.481 75.1264 223.17 75.1264 223.17C75.1264 223.17 70.891 225.277 67.4135 230.872C63.936 236.466 53.8008 252.166 53.8008 252.166L53.8156 252.151Z" fill="#ED9646"/>
<path d="M83.4642 195.984C83.4642 195.984 80.7446 197.038 81.5025 200.674C82.2604 204.309 85.5893 203.389 85.5893 203.389L87.0605 217.353L88.5615 223.348C89.1708 225.767 90.8204 227.785 93.0793 228.839L94.4911 229.507C97.597 230.961 101.283 230.367 103.764 227.993C105.652 226.183 106.588 223.601 106.276 221.004L105.548 215.009V213.347C105.548 213.347 107.658 213.347 109.932 211.239C112.205 209.132 112.205 203.538 112.205 203.538L109.768 191.147C109.099 187.778 107.078 184.84 104.166 183.015L101.922 181.62C96.3784 178.147 89.0965 179.557 85.2475 184.825C82.8995 188.045 82.2307 192.2 83.4642 195.984Z" fill="#FABE9D"/>
<path d="M101.476 195.703C102.501 197.201 103.407 198.774 104.151 200.422C104.463 201.104 104.968 201.965 104.819 202.736C104.7 203.404 103.764 203.701 103.333 203.122C103.066 202.781 102.471 203.122 102.739 203.464C103.214 204.087 104.091 204.295 104.775 203.909C105.637 203.434 105.607 202.351 105.339 201.52C104.983 200.436 104.448 199.398 103.913 198.403C103.348 197.35 102.739 196.326 102.055 195.346C101.802 194.99 101.208 195.332 101.461 195.688L101.476 195.703Z" fill="#231F20"/>
<path d="M92.6182 191.31C94.5798 189.499 97.0468 190.197 97.0468 190.197" stroke="#231F20" strokeWidth="0.46" stroke-miterlimit="10" strokeLinecap="round"/>
<path d="M102.486 190.153C104.701 188.817 106.796 190.034 106.796 190.034" stroke="#231F20" strokeWidth="0.46" stroke-miterlimit="10" strokeLinecap="round"/>
<path d="M97.0443 198.04C97.6394 197.97 98.0098 196.963 97.8717 195.791C97.7336 194.619 97.1393 193.725 96.5442 193.795C95.9492 193.865 95.5787 194.872 95.7168 196.044C95.8549 197.216 96.4493 198.11 97.0443 198.04Z" fill="#231F20"/>
<path d="M106.516 197.238C107.111 197.168 107.481 196.161 107.343 194.989C107.205 193.817 106.611 192.923 106.016 192.993C105.421 193.063 105.05 194.07 105.189 195.242C105.327 196.414 105.921 197.307 106.516 197.238Z" fill="#231F20"/>
<path d="M99.3802 205.393C99.6477 206.165 100.123 206.892 100.881 207.248C101.639 207.605 102.516 207.59 103.348 207.545C103.794 207.516 103.794 206.833 103.348 206.862C102.665 206.892 101.907 206.951 101.268 206.669C100.629 206.387 100.257 205.823 100.049 205.2C99.9004 204.784 99.2465 204.962 99.3802 205.378V205.393Z" fill="#231F20"/>
<path d="M83.4638 195.984C83.4638 195.984 85.4254 195.45 86.1834 196.622C86.9413 197.795 86.867 200.006 86.867 200.006C86.867 200.006 86.644 201.119 87.9964 200.733C89.3488 200.347 89.2001 190.983 89.2001 190.983C89.2001 190.983 88.5165 186.532 91.2361 186.383C93.9557 186.235 106.959 187.748 108.252 185.701C109.545 183.653 111.507 179.661 110.214 176.871C108.921 174.081 95.6201 170.832 90.4782 175.209C85.3363 179.587 81.2495 179.735 80.5807 181.175C79.912 182.614 78.9906 182.006 79.4513 184.647C79.912 187.288 83.4638 195.969 83.4638 195.969V195.984Z" fill="#231F20"/>
<path d="M105.384 213.48C105.384 213.48 98.9636 215.291 95.6348 211.373" stroke="#231F20" strokeWidth="0.46" stroke-miterlimit="10" strokeLinecap="round"/>
<path d="M131.822 239.004C131.822 239.004 132.61 241.126 133.962 240.978C135.314 240.829 136.682 213.955 136.682 211.224C136.682 208.494 134.839 203.582 136.325 202.811C136.741 202.588 138.955 205.289 138.955 205.289C138.955 205.289 140.62 203.226 141.675 201.712C142.73 200.199 144.409 197.424 145.45 199.976C146.252 201.935 142.076 206.135 142.225 207.945C142.373 209.755 148.169 213.747 148.169 213.747C148.169 213.747 149.759 245.949 148.169 251.528C147.961 252.255 142.582 262.094 135.463 259.987C128.345 257.88 125.209 254.125 125.209 254.125L131.807 238.974L131.822 239.004Z" fill="#FABE9D"/>
<path d="M88.1455 312.399C88.1455 312.399 95.7098 320.249 101.52 320.398C107.331 320.546 122.46 322.208 128.672 317.979C134.883 313.75 138.955 307.413 138.955 307.413C138.955 307.413 141.407 314.714 148.942 310.129C152.405 308.022 153.029 307.413 153.029 307.413L157.561 304.386L171.174 306.657L186.303 270.567C186.303 270.567 189.022 257.286 184.192 254.719C182.989 254.08 181.592 253.62 180.195 253.279C175.737 252.226 171.07 252.567 166.746 254.051C162.109 255.639 155.466 258.146 152.746 260.298C148.362 263.771 124.615 277.215 124.615 277.215L88.1752 312.399H88.1455Z" fill="#253239"/>
<path d="M157.561 304.401L171.174 306.671L169.658 314.566C169.658 314.566 187.907 318.32 181.457 325.295C179.035 327.907 154.945 322.772 154.945 322.772L157.561 304.401Z" fill="#ED9646"/>
<path d="M155.213 320.843L180.834 325.651C180.834 325.651 180.091 326.052 178.218 326.022C176.346 325.993 172.675 325.711 172.675 325.711L165.319 324.701L154.916 322.772L155.184 320.858L155.213 320.843Z" fill="#A2672D"/>
<path d="M73.9375 260.061C73.9375 260.061 79.6144 253.25 80.8182 251.291C82.0219 249.332 76.9989 279.753 76.9989 279.753L73.9375 260.061Z" fill="#A2672D"/>
<path d="M82.3348 248.768C78.3966 255.639 74.0869 259.912 74.0869 259.912" stroke="#231F20" strokeWidth="0.46" stroke-miterlimit="10" strokeLinecap="round"/>
<path d="M119.755 252.152C119.755 252.152 116.322 242.892 115.876 239.464L118.878 244.776L124.376 256.099L123.529 258.028L119.755 252.137V252.152Z" fill="#A2672D"/>
<path d="M135.671 257.197C138.554 258.592 142.031 257.597 143.681 254.852C143.904 254.466 143.309 254.125 143.086 254.511C141.63 256.915 138.554 257.835 136.012 256.603C135.611 256.41 135.269 257.004 135.671 257.197Z" fill="#231F20"/>
<path d="M57.5307 257.449C56.1487 259.616 55.0638 261.945 54.291 264.394C54.1573 264.809 54.826 265.002 54.9598 264.572C55.7177 262.183 56.7877 259.912 58.1252 257.79C58.363 257.419 57.7685 257.078 57.5307 257.449Z" fill="#231F20"/>
<path d="M84.8761 287.543L93.0348 285.184C98.3104 283.655 102.947 280.465 106.306 276.132C110.155 271.175 114.762 266.115 117.407 268.415L119.904 270.582C121.152 271.665 109.456 285.896 108.059 286.772L84.4005 294.711C78.2183 287.558 83.9547 288.656 84.8761 287.543Z" fill="#A2672D"/>
<path d="M83.523 299.979C90.0767 298.658 96.3332 296.046 101.862 292.322C107.003 288.864 112.131 284.338 114.062 278.254C115.251 274.499 115.207 270.523 115.103 266.635C115.103 266.249 114.493 266.249 114.493 266.635C114.583 270.033 114.642 273.49 113.825 276.814C113.007 280.138 111.417 282.795 109.262 285.243C105.131 289.918 99.6175 293.494 93.9555 296.031C90.5523 297.56 87.0005 298.688 83.3447 299.415C82.9583 299.489 83.1218 300.068 83.5082 299.994L83.523 299.979Z" fill="#231F20"/>
<path d="M117.273 289.591C126.962 288.137 135.671 283.478 144.661 279.857C149.179 278.032 153.964 276.251 158.824 275.687C159.909 275.553 161.113 275.524 162.123 276.013C163.416 276.637 163.877 278.002 163.981 279.337C164.159 281.667 163.728 284.131 163.208 286.386C161.945 291.773 159.3 296.789 155.54 300.855C155.243 301.181 155.718 301.671 156.03 301.344C159.418 297.679 161.93 293.257 163.372 288.478C164.07 286.119 164.516 283.671 164.664 281.207C164.783 279.174 164.694 276.696 162.718 275.538C160.741 274.381 158.378 275.004 156.387 275.42C153.786 275.954 151.245 276.711 148.733 277.586C143.814 279.323 139.074 281.519 134.259 283.552C128.73 285.896 123.068 288.033 117.094 288.924C116.663 288.983 116.842 289.651 117.273 289.591Z" fill="#465B64"/>
<path d="M160.712 275.538C163 272.927 163.327 269.35 163.565 266.026C163.595 265.581 162.911 265.581 162.881 266.026C162.658 269.143 162.376 272.585 160.221 275.049C159.939 275.375 160.414 275.865 160.712 275.538Z" fill="#465B64"/>
<path d="M142.27 309.595C141.958 306.167 143.399 302.798 145.822 300.409C148.244 298.02 151.603 296.625 154.976 296.091C155.407 296.017 155.229 295.364 154.798 295.423C151.231 296.002 147.739 297.486 145.183 300.083C142.627 302.68 141.274 306.078 141.586 309.595C141.631 310.025 142.314 310.04 142.27 309.595Z" fill="#465B64"/>
<path d="M160.355 299.193C164.575 297.798 169.063 298.302 173.388 298.822C173.819 298.881 173.819 298.184 173.388 298.139C168.989 297.62 164.442 297.115 160.162 298.54C159.746 298.674 159.924 299.342 160.34 299.208L160.355 299.193Z" fill="#465B64"/>
<path d="M102.799 299.148C104.285 302.294 105.518 305.396 105.801 308.898C106.083 312.4 105.697 315.709 105.221 319.063C105.162 319.493 105.815 319.686 105.89 319.241C106.395 315.709 106.811 312.118 106.469 308.556C106.128 304.995 104.894 301.938 103.408 298.807C103.215 298.406 102.62 298.762 102.814 299.148H102.799Z" fill="#465B64"/>
<path d="M124.747 279.04C128.73 279.307 132.713 277.675 135.373 274.707C135.67 274.381 135.18 273.891 134.883 274.218C132.341 277.067 128.552 278.61 124.747 278.358C124.302 278.328 124.302 279.011 124.747 279.04Z" fill="#465B64"/>
<path d="M523.513 270.923H343.323V273.758H523.513V270.923Z" fill="#4071B1"/>
<path d="M355.819 196.111C354.113 196.111 352.407 196.081 350.701 196.036C350.233 196.036 349.855 195.63 349.87 195.163C349.87 194.697 350.248 194.321 350.746 194.336C352.437 194.381 354.143 194.411 355.835 194.411C356.303 194.411 356.68 194.787 356.68 195.269C356.68 195.735 356.303 196.111 355.835 196.111H355.819ZM360.923 196.081C360.455 196.081 360.078 195.705 360.078 195.254C360.078 194.787 360.44 194.396 360.908 194.396C362.599 194.366 364.29 194.321 365.982 194.246C366.45 194.186 366.842 194.592 366.872 195.058C366.888 195.524 366.525 195.915 366.057 195.945C364.351 196.021 362.645 196.066 360.938 196.096H360.923V196.081ZM345.627 195.84C345.627 195.84 345.597 195.84 345.582 195.84C343.876 195.765 342.169 195.66 340.463 195.539C339.995 195.509 339.648 195.103 339.678 194.637C339.708 194.171 340.116 193.81 340.584 193.855C342.275 193.975 343.966 194.066 345.657 194.156C346.125 194.171 346.488 194.577 346.473 195.043C346.458 195.494 346.08 195.855 345.627 195.855V195.84ZM371.116 195.66C370.678 195.66 370.3 195.314 370.27 194.863C370.24 194.396 370.587 193.99 371.055 193.96C372.746 193.855 374.437 193.72 376.129 193.569C376.582 193.509 377.004 193.87 377.05 194.336C377.095 194.802 376.748 195.209 376.28 195.254C374.588 195.404 372.882 195.539 371.176 195.66C371.161 195.66 371.131 195.66 371.116 195.66ZM335.45 195.148C335.45 195.148 335.405 195.148 335.374 195.148C333.668 194.998 331.977 194.833 330.271 194.637C329.803 194.577 329.47 194.171 329.516 193.705C329.561 193.238 329.999 192.892 330.452 192.953C332.128 193.133 333.819 193.314 335.51 193.464C335.978 193.509 336.326 193.915 336.28 194.381C336.235 194.818 335.873 195.148 335.435 195.148H335.45ZM381.278 194.742C380.855 194.742 380.492 194.426 380.432 193.99C380.372 193.524 380.704 193.103 381.172 193.043C382.863 192.847 384.539 192.622 386.215 192.381C386.698 192.321 387.106 192.637 387.182 193.103C387.257 193.569 386.925 193.99 386.457 194.066C384.781 194.306 383.075 194.532 381.368 194.727C381.338 194.727 381.308 194.727 381.263 194.727L381.278 194.742ZM325.303 194.02C325.303 194.02 325.227 194.02 325.197 194.02C323.506 193.795 321.815 193.554 320.124 193.298C319.656 193.223 319.338 192.802 319.414 192.336C319.489 191.87 319.927 191.554 320.38 191.629C322.056 191.885 323.732 192.125 325.409 192.351C325.877 192.411 326.194 192.832 326.133 193.298C326.073 193.72 325.711 194.035 325.288 194.035L325.303 194.02ZM391.379 193.268C390.972 193.268 390.609 192.983 390.549 192.562C390.473 192.095 390.775 191.659 391.244 191.584C392.92 191.283 394.581 190.967 396.226 190.636C396.679 190.546 397.132 190.832 397.238 191.298C397.344 191.764 397.042 192.201 396.574 192.306C394.913 192.652 393.237 192.968 391.53 193.268C391.485 193.268 391.425 193.268 391.379 193.268ZM315.216 192.471C315.216 192.471 315.126 192.471 315.065 192.471C313.374 192.171 311.698 191.87 310.022 191.539C309.554 191.449 309.267 190.997 309.358 190.546C309.448 190.095 309.886 189.794 310.354 189.884C312.015 190.215 313.676 190.516 315.352 190.817C315.82 190.892 316.122 191.343 316.047 191.794C315.971 192.201 315.609 192.501 315.216 192.501V192.471ZM401.36 191.178C400.983 191.178 400.636 190.922 400.53 190.531C400.424 190.08 400.696 189.614 401.149 189.508C402.81 189.102 404.441 188.681 406.056 188.23C406.509 188.11 406.977 188.365 407.098 188.817C407.219 189.268 406.962 189.734 406.509 189.869C404.879 190.336 403.218 190.757 401.542 191.163C401.481 191.178 401.406 191.193 401.345 191.193L401.36 191.178ZM305.19 190.486C305.19 190.486 305.069 190.486 305.009 190.471C303.333 190.095 301.672 189.719 300.026 189.313C299.573 189.208 299.286 188.741 299.407 188.29C299.512 187.839 299.981 187.568 300.434 187.674C302.064 188.08 303.725 188.456 305.386 188.817C305.839 188.922 306.141 189.373 306.036 189.824C305.945 190.215 305.598 190.486 305.205 190.486H305.19ZM411.175 188.411C410.813 188.411 410.481 188.185 410.36 187.824C410.209 187.373 410.465 186.907 410.903 186.756C412.519 186.23 414.135 185.688 415.69 185.102C416.128 184.936 416.626 185.162 416.777 185.598C416.928 186.034 416.717 186.531 416.279 186.681C414.693 187.268 413.063 187.824 411.417 188.35C411.326 188.38 411.236 188.395 411.16 188.395L411.175 188.411ZM295.269 188.065C295.269 188.065 295.118 188.065 295.043 188.035C293.382 187.583 291.736 187.132 290.105 186.651C289.652 186.516 289.396 186.049 289.532 185.598C289.667 185.147 290.136 184.891 290.589 185.027C292.204 185.508 293.835 185.959 295.481 186.395C295.934 186.516 296.206 186.982 296.085 187.433C295.979 187.809 295.632 188.065 295.269 188.065ZM285.485 185.177C285.394 185.177 285.304 185.177 285.228 185.132C284.594 184.921 283.96 184.726 283.326 184.5C282.329 184.169 281.347 183.823 280.381 183.493C279.943 183.342 279.702 182.846 279.868 182.41C280.019 181.973 280.517 181.733 280.955 181.898C281.921 182.244 282.888 182.575 283.884 182.906C284.503 183.117 285.138 183.327 285.772 183.523C286.225 183.673 286.466 184.139 286.315 184.59C286.195 184.951 285.862 185.177 285.5 185.177H285.485ZM420.733 184.876C420.401 184.876 420.084 184.681 419.948 184.365C419.767 183.929 419.963 183.432 420.401 183.252C421.956 182.605 423.512 181.898 425.022 181.191C425.444 180.981 425.958 181.161 426.154 181.582C426.35 182.004 426.184 182.515 425.762 182.71C424.236 183.432 422.651 184.139 421.066 184.816C420.96 184.861 420.839 184.876 420.733 184.876ZM275.851 181.793C275.745 181.793 275.64 181.778 275.549 181.733C273.934 181.116 272.348 180.485 270.793 179.838C270.355 179.657 270.159 179.161 270.34 178.725C270.521 178.289 271.019 178.093 271.457 178.274C272.997 178.905 274.583 179.537 276.168 180.154C276.606 180.319 276.833 180.815 276.651 181.252C276.516 181.582 276.198 181.793 275.851 181.793ZM429.929 180.485C429.627 180.485 429.34 180.319 429.174 180.048C428.948 179.642 429.099 179.116 429.521 178.905C431.001 178.093 432.466 177.251 433.885 176.364C434.278 176.108 434.806 176.243 435.063 176.634C435.305 177.025 435.184 177.552 434.791 177.807C433.342 178.695 431.847 179.567 430.337 180.394C430.201 180.47 430.065 180.5 429.929 180.5V180.485ZM266.429 177.898C266.308 177.898 266.202 177.868 266.082 177.823C264.496 177.116 262.956 176.409 261.431 175.687C261.008 175.491 260.827 174.98 261.023 174.559C261.22 174.138 261.733 173.957 262.156 174.168C263.666 174.89 265.206 175.597 266.761 176.288C267.184 176.484 267.38 176.98 267.184 177.401C267.048 177.717 266.731 177.898 266.414 177.898H266.429ZM438.581 175.1C438.309 175.1 438.053 174.98 437.887 174.739C437.615 174.363 437.705 173.837 438.083 173.551C439.457 172.574 440.816 171.551 442.1 170.513C442.462 170.212 443.005 170.273 443.292 170.633C443.594 170.994 443.534 171.536 443.172 171.822C441.858 172.889 440.484 173.942 439.064 174.935C438.913 175.04 438.747 175.085 438.566 175.085L438.581 175.1ZM257.233 173.506C257.097 173.506 256.976 173.476 256.841 173.416C255.3 172.634 253.79 171.837 252.311 171.04C251.903 170.814 251.752 170.303 251.963 169.897C252.19 169.49 252.703 169.34 253.111 169.551C254.576 170.348 256.07 171.13 257.611 171.912C258.033 172.122 258.2 172.634 257.988 173.055C257.837 173.341 257.535 173.521 257.233 173.521V173.506ZM446.478 168.663C446.252 168.663 446.025 168.573 445.859 168.393C445.542 168.047 445.557 167.52 445.89 167.189C447.113 166.031 448.29 164.828 449.408 163.61C449.725 163.264 450.268 163.234 450.616 163.55C450.963 163.866 450.993 164.392 450.676 164.738C449.544 165.986 448.321 167.219 447.067 168.408C446.901 168.558 446.69 168.633 446.478 168.633V168.663ZM248.279 168.648C248.128 168.648 247.992 168.618 247.856 168.528C246.346 167.656 244.882 166.783 243.447 165.911C243.039 165.67 242.919 165.144 243.16 164.753C243.402 164.347 243.93 164.227 244.323 164.467C245.742 165.339 247.192 166.197 248.687 167.054C249.094 167.295 249.23 167.806 249.004 168.212C248.853 168.483 248.566 168.633 248.264 168.633L248.279 168.648ZM239.582 163.339C239.431 163.339 239.264 163.294 239.113 163.204C237.649 162.256 236.229 161.309 234.855 160.376C234.463 160.106 234.372 159.579 234.629 159.203C234.901 158.812 235.429 158.722 235.807 158.978C237.166 159.91 238.585 160.843 240.035 161.79C240.427 162.046 240.533 162.572 240.291 162.963C240.125 163.219 239.853 163.354 239.582 163.354V163.339ZM453.319 161.143C453.137 161.143 452.956 161.083 452.805 160.963C452.428 160.677 452.367 160.151 452.654 159.775C453.681 158.451 454.647 157.083 455.553 155.684C455.81 155.293 456.339 155.173 456.731 155.428C457.124 155.684 457.245 156.21 456.988 156.601C456.067 158.03 455.055 159.459 454.013 160.812C453.847 161.023 453.59 161.143 453.334 161.143H453.319ZM231.171 157.594C231.005 157.594 230.824 157.534 230.673 157.429C229.253 156.406 227.879 155.383 226.55 154.39C226.173 154.105 226.097 153.578 226.384 153.202C226.671 152.826 227.2 152.766 227.577 153.037C228.891 154.03 230.25 155.037 231.654 156.06C232.032 156.331 232.122 156.857 231.85 157.248C231.684 157.474 231.428 157.594 231.156 157.594H231.171ZM458.83 152.616C458.694 152.616 458.558 152.586 458.437 152.51C458.03 152.285 457.864 151.774 458.09 151.367C458.86 149.924 459.585 148.405 460.265 146.84C460.446 146.404 460.944 146.209 461.382 146.404C461.82 146.585 462.016 147.096 461.82 147.517C461.125 149.111 460.385 150.676 459.585 152.165C459.434 152.45 459.132 152.616 458.83 152.616ZM223.047 151.443C222.866 151.443 222.67 151.383 222.519 151.262C221.296 150.285 220.133 149.337 219.031 148.42C218.668 148.119 218.623 147.592 218.925 147.232C219.227 146.871 219.756 146.825 220.118 147.126C221.22 148.044 222.368 148.991 223.576 149.954C223.938 150.239 223.999 150.781 223.712 151.142C223.546 151.352 223.304 151.458 223.047 151.458V151.443ZM462.877 143.291C462.786 143.291 462.696 143.291 462.605 143.246C462.167 143.096 461.925 142.614 462.076 142.163C462.62 140.599 463.118 138.99 463.571 137.365C463.692 136.914 464.16 136.643 464.613 136.779C465.066 136.899 465.338 137.365 465.217 137.817C464.764 139.471 464.251 141.125 463.692 142.72C463.571 143.065 463.239 143.291 462.892 143.291H462.877ZM465.58 133.5C465.58 133.5 465.459 133.5 465.414 133.485C464.961 133.395 464.659 132.944 464.749 132.477C465.081 130.838 465.383 129.184 465.625 127.529C465.685 127.063 466.123 126.747 466.591 126.807C467.059 126.868 467.376 127.304 467.316 127.77C467.074 129.454 466.773 131.154 466.425 132.823C466.335 133.229 465.987 133.5 465.595 133.5H465.58ZM392.723 125.544C392.633 125.544 392.527 125.529 392.421 125.484C391.983 125.319 391.757 124.837 391.923 124.401C392.497 122.852 393.206 121.243 394.007 119.648C394.218 119.227 394.732 119.062 395.154 119.272C395.577 119.483 395.743 119.994 395.532 120.416C394.747 121.965 394.082 123.499 393.524 124.988C393.403 125.334 393.071 125.544 392.723 125.544ZM426.668 124.281C426.124 124.281 425.565 124.251 425.007 124.206C424.538 124.16 424.191 123.754 424.236 123.288C424.282 122.822 424.689 122.476 425.158 122.521C426.834 122.687 428.48 122.566 429.914 122.19C430.367 122.07 430.835 122.341 430.956 122.792C431.077 123.243 430.805 123.709 430.352 123.83C429.189 124.145 427.951 124.296 426.637 124.296L426.668 124.281ZM467.044 123.454C467.044 123.454 466.999 123.454 466.969 123.454C466.501 123.408 466.153 123.002 466.199 122.536C466.335 120.867 466.44 119.182 466.486 117.513C466.486 117.047 466.908 116.701 467.361 116.686C467.829 116.686 468.207 117.092 468.192 117.558C468.147 119.257 468.056 120.987 467.905 122.687C467.875 123.123 467.497 123.469 467.059 123.469L467.044 123.454ZM420.129 123.108C420.039 123.108 419.948 123.108 419.858 123.063C418.287 122.536 416.672 121.829 415.056 120.987C414.648 120.761 414.482 120.25 414.709 119.844C414.935 119.423 415.448 119.272 415.856 119.483C417.396 120.295 418.921 120.957 420.401 121.453C420.839 121.604 421.081 122.085 420.93 122.521C420.809 122.867 420.477 123.093 420.129 123.093V123.108ZM434.625 121.483C434.384 121.483 434.142 121.378 433.976 121.183C433.674 120.822 433.719 120.295 434.066 119.994C435.214 119.017 436.256 117.738 437.086 116.295C437.313 115.889 437.841 115.738 438.249 115.979C438.657 116.204 438.808 116.731 438.566 117.137C437.645 118.746 436.482 120.175 435.184 121.288C435.018 121.423 434.821 121.498 434.625 121.498V121.483ZM411.1 118.415C410.934 118.415 410.752 118.37 410.617 118.265C409.182 117.257 407.823 116.174 406.555 115.016C406.207 114.7 406.177 114.159 406.494 113.828C406.811 113.482 407.355 113.452 407.702 113.768C408.91 114.866 410.224 115.919 411.598 116.881C411.975 117.152 412.081 117.678 411.809 118.054C411.643 118.295 411.387 118.415 411.115 118.415H411.1ZM397.283 116.46C397.132 116.46 396.966 116.415 396.83 116.325C396.438 116.069 396.317 115.543 396.574 115.152C397.525 113.663 398.552 112.249 399.624 110.955C399.926 110.595 400.454 110.534 400.817 110.835C401.179 111.136 401.24 111.662 400.938 112.023C399.911 113.272 398.929 114.625 398.008 116.054C397.842 116.31 397.57 116.445 397.299 116.445L397.283 116.46ZM467.301 113.302C466.848 113.302 466.471 112.941 466.455 112.474C466.395 110.79 466.289 109.106 466.138 107.451C466.093 106.985 466.44 106.579 466.908 106.534C467.392 106.489 467.784 106.835 467.829 107.301C467.98 108.985 468.086 110.7 468.147 112.414C468.147 112.881 467.799 113.272 467.331 113.287C467.331 113.287 467.316 113.287 467.301 113.287V113.302ZM439.593 112.82C439.593 112.82 439.487 112.82 439.427 112.805C438.959 112.715 438.657 112.279 438.747 111.813C438.898 111.046 438.974 110.294 438.974 109.557C438.974 108.715 438.868 107.902 438.672 107.15C438.551 106.699 438.823 106.233 439.276 106.113C439.729 105.992 440.197 106.263 440.318 106.714C440.559 107.602 440.68 108.564 440.68 109.557C440.68 110.399 440.59 111.256 440.423 112.129C440.348 112.535 439.986 112.82 439.593 112.82ZM403.61 111.557C403.369 111.557 403.112 111.452 402.946 111.241C401.874 109.918 400.862 108.489 399.971 106.97C399.73 106.564 399.865 106.052 400.273 105.812C400.681 105.571 401.194 105.707 401.436 106.113C402.297 107.556 403.248 108.925 404.275 110.188C404.577 110.549 404.516 111.091 404.154 111.377C404.003 111.497 403.807 111.572 403.625 111.572L403.61 111.557ZM403.761 108.639C403.535 108.639 403.308 108.549 403.142 108.369C402.825 108.023 402.84 107.496 403.187 107.165C404.501 105.962 405.875 104.864 407.279 103.917C407.672 103.661 408.201 103.766 408.457 104.142C408.714 104.533 408.608 105.06 408.216 105.316C406.872 106.203 405.573 107.241 404.335 108.384C404.169 108.534 403.958 108.609 403.761 108.609V108.639ZM436.769 103.601C436.573 103.601 436.392 103.541 436.226 103.405C435.139 102.518 433.704 101.826 431.983 101.33C431.53 101.21 431.273 100.728 431.394 100.277C431.515 99.826 431.998 99.5703 432.451 99.6907C434.399 100.247 436.029 101.044 437.298 102.082C437.66 102.383 437.721 102.909 437.419 103.27C437.252 103.481 437.011 103.586 436.754 103.586L436.769 103.601ZM466.35 103.195C465.942 103.195 465.58 102.894 465.504 102.473C465.247 100.804 464.915 99.1492 464.553 97.54C464.447 97.0888 464.734 96.6225 465.187 96.5323C465.64 96.427 466.093 96.7128 466.214 97.164C466.591 98.8033 466.924 100.503 467.195 102.217C467.271 102.684 466.954 103.12 466.486 103.18C466.44 103.18 466.395 103.18 466.35 103.18V103.195ZM412.217 103.045C411.885 103.045 411.583 102.849 411.432 102.533C411.251 102.097 411.432 101.601 411.87 101.42C413.229 100.819 414.648 100.337 416.083 99.9764C416.339 99.9162 416.581 99.8561 416.853 99.7959C417.321 99.6907 417.774 99.9764 417.88 100.428C417.985 100.879 417.698 101.345 417.245 101.45L416.505 101.631C415.162 101.977 413.833 102.428 412.549 102.984C412.444 103.029 412.323 103.06 412.202 103.06L412.217 103.045ZM398.401 102.864C398.069 102.864 397.752 102.669 397.616 102.353C396.936 100.728 396.362 99.074 395.94 97.4196C395.819 96.9684 396.091 96.5022 396.559 96.3819C397.012 96.2616 397.48 96.5323 397.601 96.9985C398.008 98.5627 398.537 100.142 399.186 101.691C399.367 102.127 399.171 102.623 398.733 102.804C398.627 102.849 398.507 102.864 398.401 102.864ZM422.092 100.668C421.654 100.668 421.292 100.337 421.247 99.9012C421.201 99.435 421.549 99.0289 422.017 98.9838C423.783 98.8334 425.52 98.7883 427.241 98.8935C427.709 98.9236 428.072 99.3147 428.042 99.7809C428.011 100.247 427.634 100.578 427.151 100.578C425.52 100.488 423.859 100.518 422.168 100.668C422.138 100.668 422.123 100.668 422.092 100.668ZM464.055 93.2987C463.692 93.2987 463.36 93.0581 463.239 92.6971C462.741 91.0879 462.167 89.4937 461.548 87.9897C461.367 87.5535 461.578 87.0572 462.016 86.8767C462.454 86.6962 462.952 86.9068 463.118 87.343C463.753 88.9071 464.341 90.5314 464.87 92.2008C465.006 92.652 464.764 93.1183 464.311 93.2687C464.221 93.2987 464.145 93.3138 464.055 93.3138V93.2987ZM395.924 93.0431C395.487 93.0431 395.109 92.7122 395.079 92.261C395.018 91.5391 394.988 90.8021 394.988 90.0802C394.988 89.0425 395.049 88.0047 395.169 87.0121C395.23 86.5459 395.653 86.215 396.121 86.2751C396.589 86.3353 396.921 86.7564 396.861 87.2226C396.74 88.1551 396.679 89.1026 396.679 90.0802C396.679 90.757 396.71 91.4338 396.77 92.1256C396.8 92.5919 396.453 92.9979 395.985 93.0431C395.955 93.0431 395.94 93.0431 395.909 93.0431H395.924ZM460.174 83.9139C459.872 83.9139 459.57 83.7484 459.419 83.4627C458.619 81.9587 457.743 80.5299 456.822 79.2064C456.55 78.8154 456.656 78.289 457.033 78.0333C457.426 77.7626 457.954 77.8528 458.211 78.2439C459.162 79.6125 460.083 81.1014 460.914 82.6656C461.14 83.0717 460.974 83.598 460.566 83.8086C460.446 83.8688 460.295 83.9139 460.174 83.9139ZM397.223 83.0416C397.117 83.0416 397.027 83.0265 396.921 82.9814C396.483 82.816 396.257 82.3347 396.423 81.8835C396.559 81.5376 396.695 81.1917 396.846 80.8458C397.404 79.5975 398.084 78.3642 398.899 77.2212C399.171 76.8452 399.699 76.7399 400.077 77.0106C400.469 77.2813 400.56 77.8077 400.288 78.1837C399.548 79.2515 398.914 80.3795 398.401 81.5226C398.265 81.8384 398.129 82.1542 398.008 82.4701C397.887 82.816 397.555 83.0265 397.208 83.0265L397.223 83.0416ZM454.33 75.6119C454.104 75.6119 453.877 75.5217 453.711 75.3412C452.564 74.1079 451.325 72.995 450.057 72.0174C449.68 71.7316 449.619 71.2052 449.906 70.8292C450.193 70.4532 450.721 70.3931 451.099 70.6788C452.458 71.7166 453.757 72.8897 454.965 74.1982C455.282 74.5441 455.266 75.0705 454.919 75.4013C454.753 75.5517 454.542 75.6269 454.345 75.6269L454.33 75.6119ZM402.961 74.7546C402.734 74.7546 402.508 74.6644 402.327 74.4839C402.01 74.138 402.04 73.5966 402.372 73.2807C403.61 72.1377 405.03 71.0849 406.555 70.1224C406.947 69.8667 407.476 69.987 407.732 70.3931C407.989 70.7841 407.868 71.3105 407.461 71.5662C406.011 72.4686 404.682 73.4762 403.52 74.5441C403.354 74.6945 403.157 74.7697 402.946 74.7697L402.961 74.7546ZM446.252 69.4907C446.131 69.4907 445.995 69.4606 445.874 69.4005C444.455 68.6936 442.9 68.077 441.269 67.5656C440.816 67.4302 440.574 66.949 440.71 66.4978C440.846 66.0466 441.329 65.8059 441.782 65.9413C443.504 66.4677 445.135 67.1294 446.645 67.8814C447.067 68.092 447.233 68.6033 447.022 69.0245C446.871 69.3253 446.569 69.4907 446.267 69.4907H446.252ZM411.553 69.3253C411.22 69.3253 410.918 69.1297 410.768 68.8139C410.586 68.3777 410.768 67.8814 411.205 67.701C412.746 67.0242 414.407 66.4376 416.113 65.9413C416.566 65.821 417.034 66.0616 417.17 66.5128C417.306 66.964 417.034 67.4302 416.596 67.5656C414.965 68.0318 413.38 68.6033 411.9 69.2501C411.794 69.2952 411.673 69.3253 411.568 69.3253H411.553ZM421.322 66.4827C420.915 66.4827 420.552 66.197 420.492 65.7759C420.416 65.3096 420.718 64.8735 421.186 64.7983C422.878 64.5125 424.614 64.317 426.35 64.2117C426.803 64.2117 427.226 64.5426 427.256 65.0088C427.287 65.4751 426.924 65.8811 426.456 65.9112C424.78 66.0165 423.104 66.197 421.473 66.4827C421.428 66.4827 421.383 66.4827 421.337 66.4827H421.322ZM436.558 66.4376C436.558 66.4376 436.467 66.4376 436.422 66.4376C434.806 66.1669 433.145 65.9864 431.454 65.8962C430.986 65.8661 430.624 65.4751 430.654 65.0088C430.684 64.5426 431.062 64.1816 431.53 64.1816C433.281 64.2719 435.018 64.4524 436.694 64.7381C437.162 64.8133 437.464 65.2495 437.388 65.7157C437.313 66.1218 436.966 66.4226 436.558 66.4226V66.4376Z" fill="#ED9646"/>
</g>
<defs>
<clipPath id="clip0_2612_71958">
<rect width="531" height="353" fill="white"/>
</clipPath>
</defs>
</svg>
