<svg width="33" height="32" viewBox="0 0 33 32" fill="none" xmlns="http://www.w3.org/2000/svg">
<path d="M29.8334 15.9998V6.6665C29.8334 4.45736 28.0426 2.6665 25.8334 2.6665H7.16675C4.95761 2.6665 3.16675 4.45736 3.16675 6.6665V25.3332C3.16675 27.5423 4.95761 29.3332 7.16675 29.3332H12.5001" stroke="#FFFCF7" strokeWidth="2" strokeLinecap="round"/>
<path d="M16.5 9.3335V16.0002L12.5 17.3335" stroke="#FFFCF7" strokeWidth="2" strokeLinecap="round" strokeLinejoin="round"/>
<path d="M16.5 24.6668V23.3335C16.5 22.2289 17.3954 21.3335 18.5 21.3335H19.8333C20.9379 21.3335 21.8333 22.2289 21.8333 23.3335V24.3335C21.8333 24.963 21.5369 25.5558 21.0333 25.9335L16.5 29.3335H21.8333" stroke="#FFFCF7" strokeWidth="2" strokeLinecap="round" strokeLinejoin="round"/>
<path d="M24.5 21.3335V23.3335C24.5 24.4381 25.3954 25.3335 26.5 25.3335H29.8333M29.8333 25.3335V21.3335M29.8333 25.3335V29.3335" stroke="#FFFCF7" strokeWidth="2" strokeLinecap="round" strokeLinejoin="round"/>
<path d="M29.8334 16.0002L27.1667 13.3335" stroke="#FFFCF7" strokeWidth="2" strokeLinecap="round" strokeLinejoin="round"/>
</svg>
