<svg width="41" height="40" viewBox="0 0 41 40" fill="none" xmlns="http://www.w3.org/2000/svg">
<circle cx="20.5" cy="20" r="19.5" stroke="white"/>
<path d="M24.7859 12C22.6821 12 20.9766 13.7909 20.9766 16C20.9766 16.3338 21.0155 16.6581 21.0889 16.9681C19.066 16.9681 16.019 16.5591 13.4743 14.0096C13.1359 13.6706 12.512 13.8973 12.5354 14.3757C12.9126 22.0627 16.2046 24.3049 17.9 24.4444C16.8052 25.5257 15.215 26.3791 13.6148 26.7622C13.1924 26.8633 13.0881 27.3256 13.5011 27.4599C14.6461 27.8323 16.285 27.9758 17.1672 28C23.4081 28 28.4805 22.7471 28.5934 16.2223C29.4127 15.6894 29.9376 14.5325 30.2325 13.7129C30.3043 13.5133 29.9772 13.2807 29.7813 13.3623C29.1693 13.6171 28.3922 13.6775 27.7303 13.4618C27.0316 12.5693 25.9721 12 24.7859 12Z" fill="white"/>
</svg>
