<svg width="60" height="16" viewBox="0 0 60 16" fill="none" xmlns="http://www.w3.org/2000/svg">
<path d="M38.3083 5.67006C38.3083 6.42203 38.4577 6.67804 38.9965 6.66685V6.89901C38.9965 6.89901 38.9652 6.89512 38.0912 6.89512C37.5716 6.89512 36.1715 7.02507 35.8619 7.02409C33.4464 7.01874 32.999 5.69391 32.999 4.58421C32.999 3.18832 33.9352 2.13946 35.3308 2.13946C36.1083 2.13946 36.384 2.35117 36.6905 2.67532V1.59531C36.6476 1.25997 36.7733 0.767416 35.9518 0.747947V0.545475L38.0881 0.414062H38.3083V5.67006ZM36.6905 3.27203C36.4163 2.77315 36.1083 2.46166 35.5767 2.46166C34.8213 2.46166 34.6188 3.37716 34.6188 4.50098C34.6188 6.15921 35.0838 6.74959 35.8094 6.74959C36.6183 6.74959 36.6905 6.29889 36.6905 5.59852V3.27203Z" fill="#275DA6"/>
<path d="M29.8743 2.14845C31.7869 2.15283 32.3681 3.50491 32.412 4.27683L28.9902 4.27051C28.9447 5.21181 29.4633 6.25872 30.6544 6.26116C31.4426 6.26262 31.8591 5.75157 32.0571 5.41379L32.3307 5.53791C32.0323 6.22514 31.2527 7.04038 29.843 7.03406C28.5989 7.0287 27.3441 6.21833 27.3477 4.58979C27.3502 2.92134 28.7478 2.14553 29.8743 2.14845ZM29.8955 2.52273C29.1992 2.52273 28.9962 3.24987 28.9912 3.79937C28.9912 3.79937 30.7635 3.80083 30.7609 3.79937C30.7988 3.2927 30.5872 2.52273 29.8955 2.52273ZM31.4532 11.3035C30.7569 11.3025 30.5539 12.0301 30.5484 12.5792C30.5484 12.5792 32.3206 12.5811 32.3176 12.5792C32.356 12.074 32.1444 11.3035 31.4532 11.3035ZM31.4269 10.9282C33.3391 10.9292 33.9233 12.2808 33.9682 13.0522H30.5468C30.5034 13.994 31.0235 15.0405 32.2151 15.0405C33.0028 15.0405 33.4188 14.5275 33.6158 14.1897L33.8894 14.3133C33.593 15.001 32.815 15.8182 31.4052 15.8148C30.1611 15.8114 28.9048 15.004 28.9048 13.3744C28.9048 11.706 30.3004 10.9273 31.4269 10.9282Z" fill="#275DA6"/>
<path d="M22.2272 11.2261C22.6745 11.2111 24.4832 11.049 24.4832 11.049L24.4928 11.7635C25.0916 11.3639 25.7288 10.9375 26.4827 11.0709C27.5975 11.2685 27.8136 12.1465 27.8116 12.7364C27.8116 12.7364 27.8106 14.5353 27.8116 14.7592C27.8136 15.0313 27.9434 15.4012 28.4488 15.4016C28.4478 15.4012 28.4493 15.6265 28.4493 15.6265H25.5682V15.4002C25.8343 15.4012 26.2196 15.3062 26.2216 14.7251C26.2221 14.398 26.2206 13.1852 26.2216 12.7603C26.2221 12.3354 26.0272 12.0638 25.7187 11.9474C25.2507 11.7703 24.7967 12.0297 24.4978 12.3227L24.4983 14.7183C24.4983 14.9909 24.5751 15.4012 25.133 15.4007L25.1315 15.628H22.2812C22.2812 15.628 22.2822 15.4722 22.2812 15.4007C22.6008 15.4012 22.9174 15.2478 22.9189 14.7003C22.9189 14.7003 22.9179 12.4371 22.9189 12.1485C22.9204 11.6457 22.7952 11.431 22.2277 11.4354C22.2272 11.4403 22.2272 11.2266 22.2272 11.2261ZM7.21938 15.3934C6.45947 15.4104 6.35899 14.5922 6.13329 14.0924L4.3191 9.43261L3.12698 9.42969L1.10477 14.4418C0.949253 14.7611 0.794243 15.1213 0.447866 15.3189C0.362535 15.443 0 15.4089 0 15.4089L0.00151393 15.6173L2.29689 15.6211L2.29437 15.4162C2.07321 15.4182 1.85155 15.3793 1.72279 15.1646C1.5698 14.6025 1.89245 14.0768 2.08836 13.5726H4.13481L4.54531 14.6589C4.57863 14.8439 4.64377 15.0682 4.49734 15.2123C4.34082 15.3987 4.10906 15.3812 3.898 15.4235L3.90002 15.6124L7.14314 15.6207M2.28376 13.0479L3.12951 10.9083L3.9293 13.0479H2.28376ZM10.6993 15.4065C10.6993 15.4065 10.9957 15.4182 11.075 15.332C11.3062 15.2279 11.3703 15.0045 11.4001 14.7889L11.4027 11.7922C11.2512 11.3717 10.9583 11.3863 10.7155 11.3571C10.7357 11.2953 10.725 11.2247 10.7245 11.1624L12.9624 11.0568L12.9598 12.2813C13.3981 11.7552 13.8687 10.7871 14.7574 11.0563L15.075 11.1765C14.9952 11.6798 14.8624 12.2142 14.7513 12.7276C14.3484 12.4746 13.849 12.0998 13.3562 12.422C13.186 12.544 13.0485 12.7034 12.9548 12.8868L12.9568 14.7655C12.9735 15.0215 13.0734 15.241 13.2663 15.3311C13.439 15.4119 13.6405 15.4016 13.6405 15.4016L13.6289 15.6173L10.6948 15.6119L10.6993 15.4065Z" fill="#275DA6"/>
<path d="M7.23054 15.3936C7.70062 15.3927 7.84655 15.1386 7.84655 14.5215C7.84554 14.5142 7.84655 12.1044 7.84655 12.1044C7.84503 12.0022 7.86523 11.681 7.68194 11.5209C7.5446 11.4011 7.34112 11.3671 7.16086 11.3646V11.1534L9.40625 11.0502C9.40625 11.0502 9.40726 14.5365 9.40625 14.5283C9.40473 15.342 9.76626 15.3917 10.0722 15.3917V15.6209H7.1543M15.0644 15.3966C15.3532 15.3893 15.794 15.3279 15.794 14.6558C15.794 14.4723 15.7955 10.765 15.794 10.2063C15.793 9.77017 15.6567 9.51368 15.0634 9.55748V9.33067L17.4103 9.14767C17.4103 9.14767 17.4047 13.5909 17.4103 14.6475C17.4143 15.2832 17.7132 15.4019 18.1081 15.4005C18.1061 15.4019 18.1081 15.6273 18.1081 15.6273H15.0644C15.0644 15.6273 15.0614 15.3956 15.0644 15.3966ZM18.6897 15.3927C19.1598 15.3922 19.3497 15.1406 19.3492 14.5273V12.1278C19.3487 12.0266 19.3684 11.7083 19.1846 11.5496C19.0477 11.4313 18.8438 11.3968 18.6635 11.3943V11.185L20.9104 11.0833C20.9104 11.0833 20.9114 13.8775 20.9104 14.5341C20.9084 15.3425 21.2709 15.3922 21.5764 15.3917V15.619L18.6897 15.6195V15.3927ZM20.0808 10.5513C20.566 10.5513 20.9589 10.1839 20.9589 9.73026C20.9589 9.27714 20.566 8.91016 20.0808 8.91016C19.5961 8.91016 19.2033 9.27714 19.2033 9.73026C19.2033 10.1834 19.5961 10.5513 20.0808 10.5513Z" fill="#275DA6"/>
<path d="M8.59681 10.5513C9.08103 10.5513 9.47386 10.1839 9.47386 9.73026C9.47386 9.27714 9.08103 8.91016 8.59681 8.91016C8.11208 8.91016 7.71875 9.27714 7.71875 9.73026C7.71925 10.1834 8.11208 10.5513 8.59681 10.5513ZM34.8346 14.0143C35.1961 13.8985 35.0719 14.3516 35.2653 14.4835C35.6647 15.0461 36.2766 15.5547 37.0214 15.3941C37.1916 15.3201 37.3925 15.216 37.4768 15.0408C37.5201 14.9212 37.5274 14.7923 37.4979 14.6689C37.4685 14.5455 37.4034 14.4326 37.3102 14.3433C36.4948 13.7442 34.982 13.8391 34.8639 12.5444C34.8275 12.0514 35.0366 11.6289 35.4284 11.3277C36.1479 10.7967 37.3112 10.931 38.1136 11.1919C38.3695 11.261 38.4301 10.9212 38.676 10.9918L38.7316 12.4096L38.5185 12.4223C38.3221 11.9399 37.8278 11.4411 37.3037 11.2907C37.0477 11.2211 36.7068 11.2444 36.4726 11.3491C36.314 11.444 36.1772 11.5983 36.1782 11.7832C36.1696 11.9998 36.2888 12.1833 36.4811 12.2952C37.4122 12.6671 38.9275 12.8603 38.9714 14.1647C38.9972 14.647 38.777 15.0505 38.3963 15.3513C37.645 16.0157 36.364 15.7898 35.4981 15.5202C35.3491 15.5007 35.2108 15.5635 35.1481 15.6978V15.7285L34.9462 15.7407C34.8869 15.1667 34.8496 14.5909 34.8346 14.0143Z" fill="#275DA6"/>
<path d="M58.1414 0.499957V15.5856H54.8993C55.5839 13.8524 55.7385 11.7094 55.2552 9.83022C54.6695 7.44241 53.0482 5.17288 50.7503 3.77212C48.5802 2.43999 45.8233 1.91531 43.1124 2.45508L42.4888 2.60109V0.499957H58.1414ZM46.7973 2.86586C45.9657 2.42295 44.87 2.35919 43.8879 2.51981L44.2353 2.55777L44.2848 2.53538C44.7397 2.50326 45.2179 2.51786 45.642 2.60693C45.5032 2.64441 45.2654 2.72082 45.0977 2.78799C45.1911 2.82157 45.3118 2.88046 45.3951 2.93108C45.6391 2.85303 45.8872 2.7874 46.1384 2.73445C46.302 2.78312 46.7256 2.97051 46.9887 3.15692C46.6776 3.18807 46.253 3.24696 45.9117 3.32288C45.9919 3.392 46.0616 3.47182 46.1207 3.56137C46.5285 3.49145 46.9408 3.44851 47.3547 3.43288C47.5673 3.61004 47.74 3.82274 47.8581 4.04322C47.3987 4.01255 46.7857 4.02083 46.4115 4.05928C46.4489 4.12499 46.5029 4.28901 46.5262 4.38927C46.9907 4.3698 47.7506 4.40192 48.0682 4.4467C48.1727 4.68957 48.2333 4.94947 48.257 5.22349C47.7243 5.12177 47.0992 5.03708 46.6105 5.01469C46.616 5.16606 46.6095 5.3111 46.5953 5.45371C47.1765 5.51114 47.7405 5.61238 48.2868 5.74914C48.2803 6.01683 48.2399 6.34926 48.1651 6.60624C47.6057 6.41742 47.0343 6.2633 46.4545 6.14484C46.3963 6.37793 46.316 6.60537 46.2146 6.82429C46.7872 7.00827 47.3532 7.2487 47.8955 7.50714C47.8045 7.7599 47.6912 8.00464 47.5567 8.23867C47.0139 7.94616 46.456 7.65802 45.9026 7.43073C45.7295 7.73223 45.5354 8.02201 45.3214 8.29805C45.857 8.61563 46.3763 8.95802 46.8776 9.32404C46.7251 9.5377 46.5085 9.79517 46.3757 9.94898C45.8915 9.56009 44.8958 8.79498 44.8958 8.79498C44.6004 9.13665 44.3504 9.39072 43.9808 9.66474C44.4268 10.1076 44.8535 10.5681 45.2598 11.0451C45.0957 11.212 44.9135 11.3616 44.7165 11.4914C44.311 11.0112 43.9176 10.5218 43.5365 10.0234C43.1381 10.3247 42.8948 10.4883 42.4888 10.6917V11.2548L43.1356 12.5032C42.9916 12.5908 42.8397 12.6655 42.6817 12.7266L42.4888 12.3636V13.0196C44.9846 11.9503 47.5229 9.59514 48.2621 7.03552C48.5322 6.15214 48.5807 5.01323 48.1384 4.18923C47.8788 3.64752 47.3532 3.14183 46.7973 2.86586ZM46.4257 2.49499C46.5342 2.52857 46.6382 2.57578 46.7418 2.61959L46.8003 2.60985C47.3254 2.69299 47.8322 2.86082 48.2994 3.1063C48.0515 3.10776 47.7945 3.10435 47.5471 3.12333C47.6511 3.21386 47.7602 3.31802 47.8506 3.41293C48.1767 3.40662 48.503 3.4136 48.8286 3.43385C49.1452 3.65823 49.4683 3.9595 49.6486 4.26905C49.2082 4.17876 48.7623 4.11552 48.3136 4.07972C48.3732 4.21016 48.4322 4.34498 48.4827 4.4832C48.9876 4.55475 49.489 4.64333 49.9763 4.76258C50.1358 5.08332 50.259 5.42207 50.3105 5.77834C49.7738 5.59339 49.2224 5.41866 48.6584 5.30818C48.6731 5.48194 48.6736 5.66445 48.6751 5.84259C49.2578 6.00564 49.8263 6.19351 50.3777 6.43443C50.3819 6.78138 50.3414 7.12749 50.257 7.4648C49.7011 7.19808 49.1366 6.93575 48.5489 6.74301C48.4742 7.05752 48.3781 7.36693 48.2611 7.66922C48.8256 7.95005 49.3865 8.2338 49.9202 8.56964C49.8113 8.86498 49.6708 9.14863 49.5012 9.41603C48.9765 9.07095 48.4519 8.73463 47.9046 8.44066C47.7118 8.83124 47.4767 9.20108 47.2032 9.54403C47.6915 9.91588 48.1899 10.2999 48.661 10.7107C48.4839 10.9664 48.2848 11.2072 48.0657 11.4305C47.7218 11.082 47.1502 10.5875 46.6746 10.1987C46.3373 10.5924 45.9379 11.0261 45.5365 11.3488C45.8425 11.6588 46.7519 12.7154 46.7519 12.7154C46.5696 12.8902 46.3439 13.0693 46.1096 13.2314C46.1096 13.2314 45.1831 12.0832 44.9528 11.8077C44.4045 12.2273 43.9642 12.5212 43.3224 12.8498C43.5789 13.2683 44.2096 14.4009 44.2096 14.4009C44.0475 14.4973 43.8763 14.5873 43.7062 14.6472C43.4093 14.1697 43.0508 13.4776 42.8589 13.0824C42.6746 13.1803 42.4888 13.243 42.4888 13.243V15.3072C44.4242 14.7022 46.2065 13.6305 47.7173 12.0798C49.0932 10.643 50.1803 9.0909 50.5039 7.23702C50.7614 5.7579 50.2535 4.36639 49.0361 3.42412C48.2979 2.81573 47.382 2.60255 46.4257 2.49499ZM45.7819 3.48058C44.9341 2.65317 43.6329 2.58503 42.4888 2.84493V2.9452C42.7624 2.88599 43.0415 2.85386 43.3219 2.84931C43.1382 2.9598 42.9627 3.08259 42.7968 3.21678C42.866 3.23138 42.9397 3.25328 43.0043 3.28054C43.2347 3.12078 43.4741 2.97341 43.7213 2.83909C43.9914 2.84007 44.3419 2.88922 44.5711 2.97732C44.1944 3.10824 43.7375 3.30974 43.4426 3.50005C43.4995 3.53138 43.5513 3.57075 43.5961 3.61686C44.0168 3.40536 44.4546 3.22728 44.9053 3.08439C45.1068 3.16178 45.3234 3.3005 45.4481 3.41633C44.9033 3.54045 44.3807 3.67916 43.8551 3.88552C43.9071 3.94247 43.9601 4.03008 43.9864 4.0841C44.5456 3.89898 45.1169 3.74956 45.6966 3.63681C45.8031 3.74681 45.9298 3.92349 45.9965 4.08702C45.3527 4.15224 44.6145 4.26029 44.1192 4.39657C44.149 4.47785 44.1677 4.55573 44.1833 4.63068C44.8239 4.51051 45.4728 4.43617 46.1247 4.40825C46.1853 4.59028 46.2171 4.78594 46.2182 4.98549C45.5494 4.95017 44.8788 4.96547 44.2126 5.03124C44.2131 5.10668 44.2025 5.25562 44.1919 5.34858C44.8614 5.32488 45.5318 5.34749 46.1979 5.41623C46.1732 5.60459 46.1247 5.8494 46.0616 6.06015C45.386 5.9117 44.77 5.83967 44.0909 5.79684C44.0578 5.93952 44.0085 6.07825 43.944 6.21054C44.5807 6.32297 45.2174 6.49284 45.8309 6.70456C45.746 6.89681 45.6481 7.08419 45.541 7.26671C45.0811 7.05694 44.2656 6.76442 43.7299 6.61938C43.6236 6.82554 43.4948 7.02019 43.3456 7.20003C43.7309 7.3806 44.4691 7.78214 44.973 8.09558C44.8523 8.2523 44.7175 8.41389 44.5746 8.55795C44.0902 8.18799 43.5872 7.8412 43.0674 7.51882C42.8978 7.70572 42.6862 7.90917 42.4888 8.07124V8.12965L43.7092 9.3839C43.5761 9.50044 43.4365 9.60995 43.2911 9.71195L42.4888 8.72295V10.4698C43.7289 9.76743 44.9851 8.61733 45.6905 7.39617C46.2666 6.41983 46.7014 5.09646 46.1449 3.97362C46.045 3.80035 45.9404 3.63097 45.7819 3.48058ZM49.4289 3.49177L49.7895 3.53363C50.151 3.7142 50.4812 3.96875 50.7801 4.27197C50.8897 4.38878 51.0073 4.50511 51.0846 4.63068C50.7867 4.54988 50.4974 4.45157 50.1904 4.38781C50.2944 4.54404 50.3691 4.69784 50.4459 4.87793C50.7887 4.97138 51.128 5.08721 51.4618 5.20256C51.6753 5.59242 51.8314 6.01391 51.9051 6.45682C51.5219 6.27187 51.1376 6.0913 50.7397 5.94091C50.7705 6.15798 50.7801 6.38187 50.7705 6.59699C51.2048 6.78973 51.692 7.04769 51.9935 7.23313C52.0036 7.54073 51.9738 8.08584 51.8803 8.43482C51.5335 8.19 51.0321 7.87656 50.6276 7.67555C50.5721 7.97633 50.4252 8.44601 50.2686 8.77698C50.6938 9.05294 51.1139 9.33669 51.5168 9.6696C51.3896 9.99427 51.2393 10.3101 51.0669 10.6148C50.6656 10.283 50.2535 9.96336 49.8314 9.65646C49.5915 10.1208 49.2992 10.5583 48.9599 10.9609C49.3663 11.3189 49.7622 11.688 50.1469 12.0676C49.9561 12.3353 49.7425 12.5996 49.4926 12.8488C49.1209 12.4643 48.7402 12.0701 48.3509 11.7031C47.9475 12.1523 47.4921 12.622 47.0144 13.0089C47.3884 13.3977 47.7355 13.8097 48.0535 14.2423C47.8167 14.4374 47.5956 14.6229 47.3578 14.7893L46.355 13.5429C45.7354 14.0067 45.079 14.3917 44.4186 14.7387L44.9457 15.5856H46.5776C49.0704 13.9429 51.3244 11.5055 52.0177 8.78428C52.4373 7.11826 52.0389 5.41526 50.8478 4.17512C50.2136 3.51514 49.5087 3.2932 49.0119 3.14621C49.1386 3.227 49.2861 3.35111 49.4289 3.49177ZM42.4893 3.35355V3.64411L42.6584 3.53022C42.7983 3.56332 42.9589 3.63 43.0654 3.69863C42.8715 3.80814 42.6716 3.91765 42.4908 4.03543V4.21843C42.7341 4.07088 42.9828 3.93191 43.2366 3.80181C43.3275 3.85729 43.4093 3.93955 43.4724 4.02229C43.1487 4.1464 42.6983 4.35861 42.4888 4.46617V4.65258C42.8473 4.48564 43.2437 4.31577 43.6203 4.20334C43.6698 4.28609 43.7173 4.39073 43.7365 4.48612C43.3355 4.56059 42.871 4.72364 42.4908 4.86576V5.03757C42.8912 4.90324 43.433 4.76599 43.7859 4.71099C43.8132 4.82147 43.8152 4.96164 43.8162 5.06288C43.3715 5.10248 42.9296 5.16732 42.4928 5.25708V5.45273C42.8781 5.4026 43.5173 5.35734 43.7955 5.36756C43.7727 5.5029 43.7357 5.63564 43.685 5.76374C43.2877 5.73036 42.889 5.71639 42.4903 5.72189C42.4888 5.72189 42.4888 5.98325 42.4888 5.98471C42.8407 6.00418 43.2245 6.08546 43.5335 6.14192C43.4821 6.26484 43.4194 6.3831 43.3462 6.49527C43.1048 6.4174 42.7524 6.30983 42.4888 6.26944V6.78632C42.6579 6.85836 42.9013 6.97614 42.9841 7.02773C42.9134 7.12726 42.8324 7.21957 42.7423 7.30321C42.6307 7.23021 42.4883 7.1499 42.4883 7.1499L42.4888 7.80745C42.771 7.5417 43.0482 7.26184 43.2674 6.96495C43.8132 6.20616 44.2454 5.22203 43.8526 4.27197C43.6153 3.75168 43.0397 3.42412 42.4893 3.35355ZM51.6304 4.80687C51.7445 4.99279 51.8536 5.18358 51.9445 5.37827L52.3787 5.57246C52.6877 6.05674 52.9336 6.56876 53.0674 7.12361C52.8281 6.97809 52.5837 6.82672 52.3393 6.69726C52.3772 6.94937 52.3868 7.17715 52.3923 7.4429C52.6685 7.62834 52.9553 7.82399 53.2214 8.05372C53.2445 8.50759 53.2168 8.96254 53.1386 9.41067C52.8609 9.14905 52.5619 8.90931 52.2444 8.69375C52.1697 9.09139 52.0207 9.54063 51.848 9.94314C52.1807 10.2039 52.4926 10.4883 52.7811 10.7939C52.6569 11.1431 52.502 11.4815 52.3181 11.8053C52.0227 11.4982 51.6991 11.1765 51.3759 10.9054C51.178 11.2777 50.7766 11.8778 50.4231 12.3407C50.7392 12.6598 51.0444 12.9887 51.3386 13.3268C51.1239 13.6114 50.8921 13.8836 50.6443 14.142C50.3449 13.8086 50.0641 13.4679 49.7516 13.1433C49.279 13.6733 48.8826 14.0875 48.3166 14.5465C48.6519 14.9363 49.1558 15.5856 49.1558 15.5856H49.4421C49.9747 15.1242 50.4758 14.6302 50.9422 14.1065C52.0843 12.7627 52.9866 11.3235 53.3022 9.65257C53.6445 7.89943 53.1664 6.19351 51.9647 4.9266L51.6304 4.80687ZM52.7715 5.68343L52.767 5.69609C53.2891 6.3147 53.7021 6.97809 53.9182 7.71546L53.9142 7.7247L53.5112 7.43122C53.5622 7.73054 53.6031 8.00797 53.6137 8.3219C53.8031 8.46061 54.0111 8.6407 54.1737 8.82905C54.201 9.33864 54.201 9.88035 54.1096 10.3817C53.9298 10.148 53.7688 9.98207 53.486 9.71C53.4234 10.0799 53.281 10.6615 53.1068 11.0519C53.3532 11.3098 53.6067 11.6364 53.7652 11.8754C53.6728 12.1815 53.4931 12.5933 53.3022 12.9384C53.0745 12.6566 52.9144 12.4263 52.617 12.09C52.3163 12.6275 51.9756 13.1433 51.5976 13.6334C51.8561 13.9278 52.0919 14.2354 52.3191 14.5474C52.1035 14.8397 51.8719 15.1208 51.6254 15.3894C51.3891 15.0775 51.1391 14.7664 50.8942 14.4588C50.5514 14.8424 50.2065 15.2337 49.7895 15.5861H51.7117C52.9483 14.2019 53.846 12.6707 54.2101 10.9394C54.5888 9.19457 54.2903 7.34848 53.125 6.03241C53.0159 5.91608 52.9028 5.76958 52.7715 5.68343ZM54.4115 8.10872C54.4852 8.4426 54.5181 8.71808 54.5615 9.15515C54.7049 9.30652 54.8766 9.55961 54.8766 9.55961C54.8984 10.0792 54.8568 10.5995 54.7528 11.1098L54.462 10.7637C54.3743 11.2504 54.2415 11.7285 54.0651 12.1922L54.3893 12.7344C54.2939 13.0566 54.1091 13.5034 53.9313 13.8612C53.8112 13.6723 53.696 13.465 53.5734 13.298C53.275 13.8496 52.9364 14.38 52.56 14.8852L53.0099 15.5861H53.1139C54.201 14.0291 54.9301 12.3129 55.0053 10.3612C55.0417 9.54354 54.7761 8.83295 54.457 8.15204L54.4115 8.10872ZM55.2744 10.9078C55.2396 11.1687 55.2184 11.433 55.1704 11.6822L55.0841 11.5697C54.9962 12.091 54.856 12.6028 54.6655 13.098L54.7993 13.4543C54.6897 13.8135 54.5509 14.1989 54.3721 14.6019C54.3224 14.4684 54.2575 14.3406 54.1787 14.2208C53.9364 14.691 53.6653 15.1469 53.3668 15.5861L54.0863 15.5856C54.4792 14.85 54.7896 14.0761 55.0124 13.2771C55.2022 12.529 55.3734 11.7284 55.279 10.9078H55.2744ZM55.3209 12.8196C55.1689 13.5823 54.8962 14.5265 54.6665 15.2006C54.6387 15.1478 54.6128 15.094 54.5888 15.0395C54.4817 15.2493 54.3181 15.5856 54.3181 15.5856H54.6877C55.0068 14.8614 55.23 13.8174 55.3209 12.8196ZM43.8597 14.9952C43.4103 15.1928 42.9609 15.3568 42.4888 15.5028V15.5841H44.2025L43.8597 14.9952ZM47.6122 15.1057C47.4345 15.2288 47.2078 15.423 46.9336 15.5861H47.9404C47.9404 15.5861 47.7218 15.2721 47.6122 15.1057ZM58.6968 14.9665C58.6968 14.6185 58.9846 14.3411 59.3486 14.3411C59.7122 14.3411 60 14.6185 60 14.9665C60 15.314 59.7122 15.5909 59.3486 15.5909C59.2632 15.5917 59.1784 15.5761 59.0992 15.5451C59.02 15.514 58.948 15.4681 58.8874 15.41C58.8267 15.3519 58.7787 15.2828 58.7459 15.2067C58.7132 15.1305 58.6965 15.0489 58.6968 14.9665ZM59.9005 14.9665C59.9005 14.6715 59.646 14.4379 59.3486 14.4379C59.0512 14.4379 58.7968 14.6715 58.7968 14.9665C58.7968 15.2605 59.0512 15.4951 59.3486 15.4951C59.646 15.4951 59.9005 15.2605 59.9005 14.9665ZM59.6577 15.3047H59.538L59.3254 14.9889H59.2052V15.3047H59.1063V14.6199H59.4153C59.543 14.6199 59.6678 14.654 59.6678 14.8005C59.6678 14.9353 59.5698 14.9855 59.4431 14.9889L59.6577 15.3047ZM59.3254 14.8925C59.4133 14.8925 59.5678 14.9086 59.5678 14.7995C59.5678 14.7295 59.4719 14.7158 59.3951 14.7158H59.2052V14.8925H59.3254ZM20.0258 6.66611C20.4959 6.66513 20.6863 6.41399 20.6852 5.80025V3.40173C20.6842 3.30001 20.7044 2.9817 20.5206 2.82303C20.3838 2.70476 20.1798 2.67069 20.0001 2.66777V2.45848L22.246 2.35627C22.246 2.35627 22.247 5.15049 22.246 5.80755C22.2444 6.61646 22.607 6.66513 22.913 6.66465V6.89243H20.0258V6.66611ZM21.4169 1.82527C21.9021 1.82527 22.2944 1.45732 22.2944 1.0037C22.2944 0.551062 21.9021 0.183594 21.4169 0.183594C20.9327 0.183594 20.5393 0.551062 20.5393 1.0037C20.5393 1.45732 20.9327 1.82527 21.4169 1.82527ZM13.2215 2.49158C13.6688 2.47649 15.4775 2.31442 15.4775 2.31442L15.4866 3.0294C16.0859 2.62932 16.7231 2.20247 17.477 2.33632C18.5918 2.53441 18.8074 3.41195 18.8059 4.00136C18.8059 4.00136 18.8049 5.80073 18.8059 6.02413C18.8074 6.29621 18.9377 6.66708 19.4431 6.66805C19.4421 6.66708 19.4436 6.89194 19.4436 6.89194H16.562V6.66562C16.8292 6.66708 17.2139 6.5712 17.2154 5.99104C17.2164 5.66348 17.2144 4.4506 17.2154 4.0257C17.2164 3.6008 17.022 3.32921 16.713 3.2124C16.2445 3.03621 15.791 3.29563 15.4921 3.58814L15.4926 5.98325C15.4926 6.25678 15.5684 6.66708 16.1273 6.66611L16.1263 6.89243H13.2755V6.66611C13.5951 6.66708 13.9112 6.51377 13.9132 5.96524V3.41439C13.9147 2.91113 13.7895 2.69697 13.222 2.70135L13.2215 2.49158ZM23.3361 2.67264C24.0995 2.17619 24.8832 1.39697 25.4174 0.775435H25.588V2.37866H27.0008V2.88484H25.5805C25.5805 2.88484 25.5779 4.45887 25.5805 5.43034C25.582 6.00953 25.8299 6.29767 26.2803 6.29718C26.5026 6.29272 26.7143 6.2049 26.8705 6.05236L27.1164 6.15506C26.7433 6.74885 26.1753 7.02238 25.4936 7.02335C24.4499 7.0253 24.0056 6.35996 24.0076 5.6299C24.0086 5.00837 24.0086 2.88338 24.0086 2.88338H23.3361V2.67264ZM11.8935 5.86401C11.8779 6.39501 12.2253 6.6442 12.6605 6.64323V6.87052H10.2137V6.20276C9.41841 6.93477 9.08415 7.02335 8.39695 7.02335C7.03871 7.02335 6.17732 6.25045 6.17732 5.05022V1.92164C6.17732 1.39307 6.03392 1.28015 5.36035 1.12733V0.915122H8.54893V1.12733C7.84204 1.28015 7.73146 1.42373 7.73146 1.97275V5.30477C7.73146 6.03679 8.06572 6.47434 8.81654 6.47434C9.36893 6.47434 9.61735 6.21979 10.2137 5.65034V1.92164C10.2137 1.38285 10.0703 1.28015 9.3967 1.12733V0.915122H12.5853V1.1249C11.9506 1.10981 11.8935 1.42276 11.8935 2.04381V5.86401Z" fill="#275DA6"/>
</svg>
