<svg width="20" height="20" viewBox="0 0 20 20" fill="none" xmlns="http://www.w3.org/2000/svg">
<path d="M15.4655 16.2908C14.6377 14.0766 12.5029 12.5001 9.99984 12.5001C7.49682 12.5001 5.362 14.0766 4.53414 16.2908M15.4655 16.2908C17.2225 14.7629 18.3332 12.5112 18.3332 10.0001C18.3332 5.39771 14.6022 1.66675 9.99984 1.66675C5.39746 1.66675 1.6665 5.39771 1.6665 10.0001C1.6665 12.5112 2.77721 14.7629 4.53414 16.2908M15.4655 16.2908C14.0024 17.5631 12.0911 18.3334 9.99984 18.3334C7.9086 18.3334 5.99729 17.5631 4.53414 16.2908" stroke="#FFFCF7" strokeWidth="1.25" strokeLinejoin="round"/>
<circle cx="2.5" cy="2.5" r="2.5" transform="matrix(1 0 0 -1 7.5 10)" stroke="#FFFCF7" strokeWidth="1.25" strokeLinejoin="round"/>
</svg>
